<?xml version="1.0" encoding="iso-8859-1"?>
<!-- Generator: Adobe Illustrator 19.0.0, SVG Export Plug-In . SVG Version: 6.00 Build 0)  -->
<svg version="1.1" id="Layer_1" xmlns="http://www.w3.org/2000/svg" xmlns:xlink="http://www.w3.org/1999/xlink" x="0px" y="0px"
	 viewBox="0 0 512 512" style="enable-background:new 0 0 512 512;" xml:space="preserve">
<circle style="fill:#E04F5F;" cx="256" cy="256" r="256"/>
<path style="fill:#FFFFFF;" d="M330.473,134.982H111.709c-2.569,0-4.655,2.085-4.655,4.655v260.655c0,2.569,2.085,4.655,4.655,4.655
	h269.964c2.569,0,4.655-2.085,4.655-4.655V190.836L330.473,134.982z"/>
<rect x="125.673" y="256" style="fill:#40C9E7;" width="111.709" height="93.091"/>
<g>
	<path style="fill:#E2E4E5;" d="M367.709,260.655c0,2.569-2.085,4.655-4.655,4.655h-102.4c-2.569,0-4.655-2.085-4.655-4.655
		s2.085-4.655,4.655-4.655h102.4C365.624,256,367.709,258.085,367.709,260.655z"/>
	<path style="fill:#E2E4E5;" d="M367.709,288.582c0,2.569-2.085,4.655-4.655,4.655h-102.4c-2.569,0-4.655-2.085-4.655-4.655
		s2.085-4.655,4.655-4.655h102.4C365.624,283.927,367.709,286.013,367.709,288.582z"/>
	<path style="fill:#E2E4E5;" d="M367.709,316.509c0,2.569-2.085,4.655-4.655,4.655h-102.4c-2.569,0-4.655-2.085-4.655-4.655
		c0-2.569,2.085-4.655,4.655-4.655h102.4C365.624,311.855,367.709,313.94,367.709,316.509z"/>
	<path style="fill:#E2E4E5;" d="M367.709,344.436c0,2.569-2.085,4.655-4.655,4.655h-102.4c-2.569,0-4.655-2.085-4.655-4.655
		c0-2.569,2.085-4.655,4.655-4.655h102.4C365.624,339.782,367.709,341.867,367.709,344.436z"/>
	<path style="fill:#E2E4E5;" d="M367.709,372.364c0,2.569-2.085,4.655-4.655,4.655h-102.4c-2.569,0-4.655-2.085-4.655-4.655
		c0-2.569,2.085-4.655,4.655-4.655h102.4C365.624,367.709,367.709,369.794,367.709,372.364z"/>
	<path style="fill:#E2E4E5;" d="M237.382,372.364c0,2.569-2.085,4.655-4.655,4.655h-102.4c-2.569,0-4.655-2.085-4.655-4.655
		c0-2.569,2.085-4.655,4.655-4.655h102.4C235.297,367.709,237.382,369.794,237.382,372.364z"/>
</g>
<polygon style="fill:#6FDAF1;" points="125.673,256 125.673,349.091 136.993,349.091 230.083,256 "/>
<path style="fill:#FA5655;" d="M367.709,228.073c0,2.569-2.085,4.655-4.655,4.655H130.327c-2.569,0-4.655-2.085-4.655-4.655
	c0-2.569,2.085-4.655,4.655-4.655h232.727C365.624,223.418,367.709,225.503,367.709,228.073z"/>
<polygon style="fill:#E2E4E5;" points="330.473,134.982 330.473,190.836 386.327,190.836 "/>
<g>
	<path style="fill:#3E3E3F;" d="M131.244,164.701h10.747l10.808,19.088l3.793,8.974l0.317-0.065c-0.065,0-1.201-7.713-1.266-7.713
		v-20.289h11.25v44.758h-11.441l-10.114-17.636l-3.919-8.974l-0.317,0.065l1.452,8.657v17.887H131.24v-44.753H131.244z"/>
	<path style="fill:#3E3E3F;" d="M185.428,182.272h18.139v9.798h-18.139v6.698h19.721v10.687h-31.162v-44.753h31.162v10.617h-19.721
		V182.272z"/>
	<path style="fill:#3E3E3F;" d="M253.77,164.701h11.692l-12.893,44.753h-10.491l-3.984-12.39l-1.578-10.24h-0.191l-1.708,10.179
		l-3.537,12.451h-10.491l-12.958-44.753h11.757l5.311,21.43l1.136,9.481h0.317l1.075-9.416l4.994-15.677h8.597l4.613,15.742
		l1.452,9.356h0.191l1.261-9.356L253.77,164.701z"/>
	<path style="fill:#3E3E3F;" d="M273.385,195.295c4.487,5.437,14.35,5.688,14.666,0.884c0.126-2.527-3.98-3.984-7.647-4.487
		c-7.205-1.136-13.782-5.688-13.782-14.22c0-8.788,7.964-13.4,16.184-13.4c5.436,0,10.682,1.517,15.299,7.145l-7.396,5.688
		c-4.678-4.994-12.707-4.803-12.898,0.382c0.126,2.15,2.467,3.412,5.944,4.17c7.964,1.452,15.928,4.236,15.421,15.234
		c-0.377,8.657-9.481,13.4-17.697,13.4c-5.371,0-11.059-2.718-15.234-8.09L273.385,195.295z"/>
</g>
<g>
</g>
<g>
</g>
<g>
</g>
<g>
</g>
<g>
</g>
<g>
</g>
<g>
</g>
<g>
</g>
<g>
</g>
<g>
</g>
<g>
</g>
<g>
</g>
<g>
</g>
<g>
</g>
<g>
</g>
</svg>
