<?xml version="1.0" encoding="iso-8859-1"?>
<!-- Generator: Adobe Illustrator 19.0.0, SVG Export Plug-In . SVG Version: 6.00 Build 0)  -->
<svg version="1.1" id="Layer_1" xmlns="http://www.w3.org/2000/svg" xmlns:xlink="http://www.w3.org/1999/xlink" x="0px" y="0px"
	 viewBox="0 0 512 512" style="enable-background:new 0 0 512 512;" xml:space="preserve">
<circle style="fill:#32BEA6;" cx="256" cy="256" r="256"/>
<path style="fill:#9C6144;" d="M256.95,256c-1.825,0-3.482-1.066-4.24-2.732c-0.754-1.662-0.465-3.612,0.735-4.99l60.691-69.357
	l18.385-20.992c-22.947-20.061-52.969-32.256-85.83-32.256c-71.959,0-130.327,58.368-130.327,130.327
	s58.368,130.327,130.327,130.327S377.018,327.959,377.018,256H256.95z"/>
<path style="fill:#AF7653;" d="M116.364,256c0,24.427,6.74,47.276,18.441,66.821l178.707-178.707
	c-19.549-11.697-42.398-18.441-66.821-18.441C174.732,125.673,116.364,184.041,116.364,256z"/>
<path style="fill:#FBEC9A;" d="M349.091,256c0,56.553-45.847,102.4-102.4,102.4s-102.4-45.847-102.4-102.4s45.847-102.4,102.4-102.4
	c25.833,0,49.431,9.542,67.444,25.321l-4.143,4.748l-18.153,20.759l-38.391,43.85c-1.201,1.373-1.489,3.323-0.735,4.99
	c0.754,1.662,2.411,2.732,4.236,2.732H349.091z"/>
<g>
	<path style="fill:#FCF6C2;" d="M144.291,256c0,16.659,4.003,32.372,11.059,46.271l137.607-137.607
		c-13.903-7.047-29.608-11.064-46.266-11.064C190.138,153.6,144.291,199.447,144.291,256z"/>
	<path style="fill:#FCF6C2;" d="M370.702,242.036h-81.171c-1.825,0-3.482-1.066-4.24-2.732c-0.754-1.662-0.465-3.612,0.735-4.99
		l53.462-61.1C358.609,190.003,370.702,214.607,370.702,242.036z"/>
</g>
<path style="fill:#9C6144;" d="M395.636,242.036h-24.934c0-27.429-12.092-52.033-31.209-68.822l16.417-18.744
	C380.258,175.835,395.636,207.127,395.636,242.036z"/>
<circle style="fill:#3E3E3F;" cx="274.618" cy="172.218" r="9.309"/>
<circle style="fill:#DF2C2C;" cx="223.418" cy="204.8" r="18.618"/>
<g>
	<circle style="fill:#3E3E3F;" cx="181.527" cy="228.073" r="9.309"/>
	<circle style="fill:#3E3E3F;" cx="223.418" cy="256" r="9.309"/>
	<circle style="fill:#3E3E3F;" cx="237.382" cy="321.164" r="9.309"/>
	<circle style="fill:#3E3E3F;" cx="311.855" cy="283.927" r="9.309"/>
</g>
<g>
	<circle style="fill:#DF2C2C;" cx="283.927" cy="321.164" r="18.618"/>
	<circle style="fill:#DF2C2C;" cx="190.836" cy="293.236" r="18.618"/>
	<path style="fill:#DF2C2C;" d="M330.473,202.659c0,7.727-6.237,13.964-13.964,13.964c-4.329,0-8.192-1.955-10.705-5.027
		l18.153-20.759C327.866,193.303,330.473,197.679,330.473,202.659z"/>
	<path style="fill:#DF2C2C;" d="M309.993,183.668l-18.153,20.759c-2.048-2.42-3.258-5.539-3.258-8.937
		c0-7.727,6.237-13.964,13.964-13.964C305.292,181.527,307.852,182.319,309.993,183.668z"/>
</g>
<g>
	<circle style="fill:#3E3E3F;" cx="358.4" cy="223.418" r="9.309"/>
	<path style="fill:#3E3E3F;" d="M283.927,172.218c0-5.139-4.17-9.309-9.309-9.309c-5.139,0-9.309,4.17-9.309,9.309
		c0,5.139,4.17,9.309,9.309,9.309c0.563,0,1.108-0.07,1.643-0.168l7.503-7.503C283.857,173.326,283.927,172.781,283.927,172.218z"/>
</g>
<g>
</g>
<g>
</g>
<g>
</g>
<g>
</g>
<g>
</g>
<g>
</g>
<g>
</g>
<g>
</g>
<g>
</g>
<g>
</g>
<g>
</g>
<g>
</g>
<g>
</g>
<g>
</g>
<g>
</g>
</svg>
