<?xml version="1.0" encoding="iso-8859-1"?>
<!-- Generator: Adobe Illustrator 19.0.0, SVG Export Plug-In . SVG Version: 6.00 Build 0)  -->
<svg version="1.1" id="Layer_1" xmlns="http://www.w3.org/2000/svg" xmlns:xlink="http://www.w3.org/1999/xlink" x="0px" y="0px"
	 viewBox="0 0 512 512" style="enable-background:new 0 0 512 512;" xml:space="preserve">
<circle style="fill:#32BEA6;" cx="256" cy="256" r="256"/>
<path style="fill:#FACB1B;" d="M404.815,194.472c0.27-0.847,0.121-1.773-0.405-2.49c-0.526-0.721-1.359-1.145-2.253-1.145h-0.023
	c-0.521,0-1.024,0.182-1.424,0.507c-3.877,3.151-26.708,20.019-53.346,23.687c-0.898,0.121-1.643,0.754-1.908,1.62
	c-0.265,0.866-0.009,1.806,0.666,2.411c7.54,6.814,12.279,16.673,12.279,27.629c0,20.573-16.663,37.236-37.236,37.236
	c-20.573,0-37.236-16.663-37.236-37.236c0-15.425,9.37-28.644,22.723-34.309c0.824-0.349,1.373-1.14,1.415-2.034
	s-0.433-1.732-1.22-2.155c-17.878-9.63-35.17-34.462-48.654-71.675c-0.335-0.922-1.21-1.536-2.192-1.536s-1.857,0.614-2.188,1.531
	c-13.484,37.213-30.776,62.045-48.654,71.675c-0.787,0.424-1.261,1.261-1.219,2.155c0.042,0.894,0.591,1.685,1.415,2.034
	c13.349,5.669,22.719,18.888,22.719,34.313c0,20.573-16.663,37.236-37.236,37.236S153.6,267.264,153.6,246.691
	c0-10.957,4.738-20.815,12.283-27.629c0.67-0.605,0.931-1.55,0.666-2.411s-1.01-1.494-1.908-1.62
	c-26.638-3.668-49.473-20.536-53.35-23.687c-0.4-0.326-0.908-0.507-1.424-0.507h-0.023c-0.889,0-1.727,0.424-2.253,1.145
	c-0.526,0.717-0.675,1.643-0.405,2.49l32.451,182.547h232.727L404.815,194.472z"/>
<polygon style="fill:#FA5655;" points="256,186.182 237.382,209.455 256,232.727 274.618,209.455 "/>
<path style="fill:#FBE158;" d="M256,134.982c-0.977,0-1.852,0.614-2.188,1.536c-13.48,37.213-30.776,62.045-48.654,71.675
	c-0.787,0.424-1.261,1.261-1.219,2.155c0.042,0.894,0.591,1.685,1.415,2.034c13.349,5.665,22.719,18.883,22.719,34.309
	c0,20.573-16.663,37.236-37.236,37.236S153.6,267.264,153.6,246.691c0-10.957,4.738-20.815,12.283-27.629
	c0.675-0.605,0.931-1.55,0.666-2.416c-0.27-0.866-1.01-1.494-1.908-1.62c-26.638-3.663-49.473-20.536-53.346-23.687
	c-0.405-0.321-0.912-0.503-1.429-0.503h-0.023c-0.889,0-1.727,0.424-2.248,1.145s-0.675,1.648-0.405,2.49l32.447,182.547H256
	V134.982z"/>
<polygon style="fill:#DF2C2C;" points="129.708,321.164 139.636,377.018 372.364,377.018 382.292,321.164 "/>
<path style="fill:#FBE158;" d="M377.018,400.291c0,2.569-2.085,4.655-4.655,4.655H139.636c-2.569,0-4.655-2.085-4.655-4.655v-18.618
	c0-2.569,2.085-4.655,4.655-4.655h232.727c2.569,0,4.655,2.085,4.655,4.655V400.291z"/>
<g>
	<path style="fill:#FBEC9A;" d="M390.982,316.509c0,2.569-2.085,4.655-4.655,4.655H125.673c-2.569,0-4.655-2.085-4.655-4.655V307.2
		c0-2.569,2.085-4.655,4.655-4.655h260.655c2.569,0,4.655,2.085,4.655,4.655V316.509z"/>
	<circle style="fill:#FBEC9A;" cx="321.164" cy="349.091" r="9.309"/>
</g>
<polygon style="fill:#FA5655;" points="256,321.164 129.708,321.164 139.636,377.018 256,377.018 "/>
<polygon style="fill:#F79392;" points="237.382,209.455 256,232.727 256,186.182 "/>
<g>
	<circle style="fill:#FBEC9A;" cx="190.836" cy="349.091" r="9.309"/>
	<circle style="fill:#FBEC9A;" cx="256" cy="349.091" r="9.309"/>
</g>
<g>
</g>
<g>
</g>
<g>
</g>
<g>
</g>
<g>
</g>
<g>
</g>
<g>
</g>
<g>
</g>
<g>
</g>
<g>
</g>
<g>
</g>
<g>
</g>
<g>
</g>
<g>
</g>
<g>
</g>
</svg>
