<?xml version="1.0" encoding="iso-8859-1"?>
<!-- Generator: Adobe Illustrator 19.0.0, SVG Export Plug-In . SVG Version: 6.00 Build 0)  -->
<svg version="1.1" id="Layer_1" xmlns="http://www.w3.org/2000/svg" xmlns:xlink="http://www.w3.org/1999/xlink" x="0px" y="0px"
	 viewBox="0 0 512 512" style="enable-background:new 0 0 512 512;" xml:space="preserve">
<circle style="fill:#E04F5F;" cx="256" cy="256" r="256"/>
<path style="fill:#FACB1B;" d="M228.073,293.236c0.414-2.206,10.561-56.292,11.124-59.299c1.629-8.797,9.309-15.174,18.292-15.174
	h52.643c1.164-6.051,1.722-12.241,1.722-18.618c0-23.273-13.964-41.891-13.964-41.891s0.791,32.396-13.964,41.891
	c0-51.2-55.668-74.473-55.668-74.473s9.123,37.236-4.841,51.2c0-55.855-74.473-69.818-74.473-69.818
	c27.927,46.545-32.582,74.473,0,125.673c-23.273,0-41.891-32.582-41.891-32.582c0,55.85,44.721,101.227,100.305,102.349
	C212.471,296.825,219.848,293.236,228.073,293.236z"/>
<path style="fill:#FA5655;" d="M228.212,292.492c1.275-6.8,10.449-55.701,10.985-58.554c1.629-8.797,9.309-15.174,18.292-15.174
	h20.294c-4.748-21.364-20.247-33.373-35.747-37.236c0,0,4.655,23.273-18.618,37.236c0-37.236-46.545-41.891-46.545-41.891
	c9.309,18.618-18.618,37.236,13.964,69.818c0,0-6.796,12.428-27.974,9.309c9.123,21.876,30.72,37.236,55.901,37.236
	C221.975,293.236,225.14,293.004,228.212,292.492z"/>
<path style="fill:#21B2D1;" d="M395.217,316.509c-2.188-13.219-13.684-23.273-27.508-23.273l-11.124-59.299
	c-1.629-8.797-9.309-15.174-18.292-15.174h-80.803c-8.983,0-16.663,6.377-18.292,15.174c-0.563,3.002-10.71,57.093-11.124,59.299
	c-15.407,0-27.927,12.521-27.927,27.927v23.273h195.491C395.636,322.7,395.902,320.168,395.217,316.509z M246.691,293.236
	c1.68-10.007,0.317-1.82,6.703-40.308c1.489-8.983,9.263-15.546,18.385-15.546h52.224c9.123,0,16.896,6.563,18.385,15.546
	l6.703,40.308H246.691z"/>
<g>
	<path style="fill:#3E3E3F;" d="M349.091,372.364v23.273c0,5.139,4.17,9.309,9.309,9.309h18.618c5.139,0,9.309-4.17,9.309-9.309
		v-23.273H349.091z"/>
	<path style="fill:#3E3E3F;" d="M209.455,372.364v23.273c0,5.139,4.17,9.309,9.309,9.309h18.618c5.139,0,9.309-4.17,9.309-9.309
		v-23.273H209.455z"/>
</g>
<path style="fill:#E2E4E5;" d="M404.945,353.745c0-5.143-4.166-9.309-9.309-9.309H200.145c-5.143,0-9.309,4.166-9.309,9.309v9.309
	c0,5.143,4.166,9.309,9.309,9.309h195.491c5.143,0,9.309-4.166,9.309-9.309V353.745z"/>
<circle style="fill:#FBE158;" cx="367.709" cy="325.818" r="13.964"/>
<path style="fill:#FFFFFF;" d="M395.636,344.436H200.145c-5.139,0-9.309,4.171-9.309,9.309v4.655h214.109v-4.655
	C404.945,348.607,400.775,344.436,395.636,344.436z"/>
<path style="fill:#FBEC9A;" d="M367.709,311.855c-7.713,0-13.964,6.251-13.964,13.964c0,3.989,1.694,7.564,4.375,10.11
	l19.698-19.698C375.273,313.549,371.698,311.855,367.709,311.855z"/>
<path style="fill:#40C9E7;" d="M239.197,233.937c-0.563,3.007-10.71,57.093-11.124,59.299c-15.407,0-27.927,12.521-27.927,27.927
	v23.273h9.835l51.2-51.2h-14.49c1.68-10.007,0.317-1.82,6.703-40.308c1.489-8.983,9.263-15.546,18.385-15.546h45.256l18.618-18.618
	h-78.164C248.506,218.764,240.826,225.14,239.197,233.937z"/>
<circle style="fill:#FBE158;" cx="228.073" cy="325.818" r="13.964"/>
<path style="fill:#FBEC9A;" d="M228.073,311.855c-7.713,0-13.964,6.251-13.964,13.964c0,3.989,1.694,7.564,4.375,10.11
	l19.698-19.698C235.636,313.549,232.062,311.855,228.073,311.855z"/>
<g>
	<path style="fill:#6FDAF1;" d="M324.003,237.382h-52.224c-9.123,0-16.896,6.563-18.385,15.546
		c-6.395,38.544-5.027,30.315-6.703,40.308h102.4l-6.703-40.308C340.899,243.945,333.126,237.382,324.003,237.382z"/>
	<path style="fill:#6FDAF1;" d="M246.691,293.236c1.68-10.007,0.317-1.82,6.703-40.308c1.489-8.983,9.263-15.546,18.385-15.546
		h52.224c9.123,0,16.896,6.563,18.385,15.546l6.703,40.308H246.691z"/>
</g>
<path style="fill:#9CE5F4;" d="M253.393,252.928c-6.028,36.329-5.264,31.735-6.703,40.308h14.49l55.855-55.855h-45.256
	C262.656,237.382,254.883,243.945,253.393,252.928z"/>
<g>
</g>
<g>
</g>
<g>
</g>
<g>
</g>
<g>
</g>
<g>
</g>
<g>
</g>
<g>
</g>
<g>
</g>
<g>
</g>
<g>
</g>
<g>
</g>
<g>
</g>
<g>
</g>
<g>
</g>
</svg>
