<?xml version="1.0" encoding="iso-8859-1"?>
<!-- Generator: Adobe Illustrator 19.0.0, SVG Export Plug-In . SVG Version: 6.00 Build 0)  -->
<svg version="1.1" id="Layer_1" xmlns="http://www.w3.org/2000/svg" xmlns:xlink="http://www.w3.org/1999/xlink" x="0px" y="0px"
	 viewBox="0 0 512 512" style="enable-background:new 0 0 512 512;" xml:space="preserve">
<circle style="fill:#FABC3D;" cx="256" cy="256" r="256"/>
<path style="fill:#F0F1F1;" d="M107.697,386.546c0.963-2.15,59.536-133.087,72.211-161.42
	c-3.267,16.994,16.407,47.737,37.818,69.153c26.024,26.024,55.231,41.286,70.358,37.395
	c-26.224,11.739-160.596,71.731-162.625,72.634c-3.714,1.708-9.318-0.079-13.48-4.282
	C107.776,395.864,105.989,390.26,107.697,386.546z"/>
<path style="fill:#FFFFFF;" d="M107.697,386.546c0.963-2.15,59.536-133.087,72.211-161.42c-3.263,16.98,16.37,47.681,37.758,69.092
	L111.919,399.956C107.762,395.809,105.998,390.242,107.697,386.546z"/>
<circle style="fill:#DF2C2C;" cx="214.109" cy="172.218" r="9.309"/>
<circle style="fill:#F37A10;" cx="288.582" cy="190.836" r="9.309"/>
<circle style="fill:#059BBF;" cx="377.018" cy="228.073" r="9.309"/>
<circle style="fill:#FA5655;" cx="381.673" cy="330.473" r="9.309"/>
<circle style="fill:#12B2A0;" cx="274.618" cy="125.673" r="9.309"/>
<polygon style="fill:#FA5655;" points="339.209,124.053 320.815,133.427 306.213,118.826 309.443,139.222 291.044,148.596 
	311.44,151.827 314.671,172.218 324.045,153.819 344.436,157.049 329.835,142.452 "/>
<polygon style="fill:#F37A10;" points="335.29,279.273 330.854,292.92 316.509,292.92 328.118,300.628 323.682,313.912 
	335.29,305.296 346.899,313.637 342.463,300.674 354.071,292.92 339.726,292.92 "/>
<path style="fill:#DF2C2C;" d="M302.545,232.727c46.364,0,56.111-29.477,63.939-53.16c6.521-19.707,11.669-35.277,33.806-35.277
	c2.569,0,4.655-2.085,4.655-4.655c0-2.569-2.085-4.655-4.655-4.655c-28.863,0-35.868,21.183-42.64,41.663
	c-7.955,24.055-15.467,46.774-55.105,46.774c-2.569,0-4.655,2.085-4.655,4.655C297.891,230.642,299.976,232.727,302.545,232.727z"/>
<path style="fill:#059BBF;" d="M240.291,203.781c32.619-26.098,21.034-43.567,9.83-60.467c-6.265-9.444-12.739-19.209-12.739-31.604
	c0-2.569-2.085-4.655-4.655-4.655s-4.655,2.085-4.655,4.655c0,15.202,7.592,26.647,14.289,36.752
	c10.892,16.421,18.088,27.276-7.889,48.054c-2.006,1.606-2.332,4.534-0.726,6.544C235.366,205.075,238.294,205.377,240.291,203.781z
	"/>
<path style="fill:#12B2A0;" d="M400.291,288.582c2.569,0,4.655-2.085,4.655-4.655c0-2.569-2.085-4.655-4.655-4.655
	c-13.303,0-23.92-7.08-34.188-13.926c-16.579-11.055-33.727-22.491-57.539,1.327c-1.82,1.815-1.82,4.766,0,6.582
	c1.815,1.82,4.766,1.82,6.582,0c18.418-18.413,29.305-11.152,45.791-0.163C371.828,280.353,384.168,288.582,400.291,288.582z"/>
<path style="fill:#DF2C2C;" d="M182.556,378.657c-42.435,19.126,8.657-3.798-33.82,15.239
	c-10.342-10.729-20.136-22.23-28.961-34.351c4.943-11.05,10.966-24.52,17.296-38.665
	C149.29,342.435,164.827,362.044,182.556,378.657z"/>
<path style="fill:#FA5655;" d="M158.874,353.001l-24.744,24.748c-5.004-5.893-9.812-11.962-14.355-18.209
	c4.943-11.05,10.966-24.52,17.296-38.665C143.476,332.176,150.812,342.924,158.874,353.001z"/>
<path style="fill:#E2E4E5;" d="M217.726,294.274c30.161,30.157,64.647,45.931,76.465,34.095
	c11.725-11.725-3.57-45.945-34.104-76.521c-30.576-30.534-64.787-45.777-76.516-34.104
	C169.919,231.382,192.689,269.238,217.726,294.274z"/>
<path style="fill:#DF2C2C;" d="M210.953,309.797c-16.635-22.514-26.703-46.294-28.83-67.537c-2.267-6.47-3.137-12.33-2.22-17.124
	l-26.117,58.475c6.544,14.136,15.02,28.342,25.181,42.1c10.575,14.308,22.481,27.425,35.165,38.982l35.384-15.807
	C235.487,338.409,222.189,325.069,210.953,309.797z"/>
<path style="fill:#F0F1F1;" d="M260.054,251.82l-42.389,42.389c-25.014-25.037-47.732-62.841-34.099-76.465
	C195.295,206.08,229.488,221.31,260.054,251.82z"/>
<path style="fill:#FA5655;" d="M179.903,225.136l-26.117,58.475c6.544,14.136,15.02,28.342,25.181,42.1
	c1.019,1.378,2.109,2.69,3.151,4.049l25.195-25.195c-14.438-20.959-23.245-42.729-25.209-62.348
	C179.852,235.762,178.986,229.916,179.903,225.136z"/>
<g>
</g>
<g>
</g>
<g>
</g>
<g>
</g>
<g>
</g>
<g>
</g>
<g>
</g>
<g>
</g>
<g>
</g>
<g>
</g>
<g>
</g>
<g>
</g>
<g>
</g>
<g>
</g>
<g>
</g>
</svg>
