<?xml version="1.0" encoding="iso-8859-1"?>
<!-- Generator: Adobe Illustrator 19.0.0, SVG Export Plug-In . SVG Version: 6.00 Build 0)  -->
<svg version="1.1" id="Layer_1" xmlns="http://www.w3.org/2000/svg" xmlns:xlink="http://www.w3.org/1999/xlink" x="0px" y="0px"
	 viewBox="0 0 512 512" style="enable-background:new 0 0 512 512;" xml:space="preserve">
<circle style="fill:#E04F5F;" cx="256" cy="256" r="256"/>
<path style="fill:#FACB1B;" d="M365.382,330.473c-15.825-13.033-34.909-35.142-34.909-130.327c0,0,0-8.378-4.329-18.618
	c-6.796-16.244-24.483-37.236-70.144-37.236s-63.348,20.992-70.144,37.236c-4.329,10.24-4.329,18.618-4.329,18.618
	c0,95.185-19.084,117.295-34.909,130.327c-11.311,9.309-20.945,14.01-20.945,37.236H256h130.327
	C386.327,344.483,376.692,339.782,365.382,330.473z"/>
<path style="fill:#FBEC9A;" d="M256,367.709H125.673c0-23.226,9.635-27.927,20.945-37.236
	c15.825-13.033,34.909-35.142,34.909-130.327c0,0,0-8.378,4.329-18.618c6.796-16.244,24.483-37.236,70.144-37.236V367.709z"/>
<circle style="fill:#FBE158;" cx="256" cy="125.673" r="18.618"/>
<path style="fill:#FACB1B;" d="M181.597,198.679c0.33-4.655,1.694-11.082,4.259-17.152H256v18.618h-74.473
	C181.527,200.145,181.527,199.624,181.597,198.679z"/>
<g>
	<path style="fill:#F3B607;" d="M330.403,198.679c-0.33-4.655-1.694-11.082-4.259-17.152H256v18.618h74.473
		C330.473,200.145,330.473,199.624,330.403,198.679z"/>
	<path style="fill:#F3B607;" d="M365.382,330.473H256v37.236h130.327C386.327,344.483,376.692,339.782,365.382,330.473z"/>
</g>
<path style="fill:#FACB1B;" d="M146.618,330.473H256v37.236H125.673C125.673,344.483,135.308,339.782,146.618,330.473z"/>
<path style="fill:#FBE158;" d="M256,404.945c20.564,0,37.236-16.673,37.236-37.236h-74.473
	C218.764,388.273,235.436,404.945,256,404.945z"/>
<g>
</g>
<g>
</g>
<g>
</g>
<g>
</g>
<g>
</g>
<g>
</g>
<g>
</g>
<g>
</g>
<g>
</g>
<g>
</g>
<g>
</g>
<g>
</g>
<g>
</g>
<g>
</g>
<g>
</g>
</svg>
