<?xml version="1.0" encoding="iso-8859-1"?>
<!-- Generator: Adobe Illustrator 19.0.0, SVG Export Plug-In . SVG Version: 6.00 Build 0)  -->
<svg version="1.1" id="Layer_1" xmlns="http://www.w3.org/2000/svg" xmlns:xlink="http://www.w3.org/1999/xlink" x="0px" y="0px"
	 viewBox="0 0 512 512" style="enable-background:new 0 0 512 512;" xml:space="preserve">
<circle style="fill:#32BEA6;" cx="256" cy="256" r="256"/>
<path style="fill:#FFFFFF;" d="M339.782,404.945h-204.8c-15.402,0-27.927-12.525-27.927-27.927V190.836
	c0-15.402,12.525-27.927,27.927-27.927h204.8c15.402,0,27.927,12.525,27.927,27.927v186.182
	C367.709,392.42,355.184,404.945,339.782,404.945z M144.291,367.709h186.182V200.145H144.291V367.709z"/>
<path style="fill:#FACB1B;" d="M242.036,349.091c-6.777,0-13.238-2.956-17.669-8.127L168.513,275.8
	c-8.364-9.761-7.233-24.45,2.523-32.815c9.756-8.374,24.446-7.242,32.815,2.523l36.515,42.603L355.77,148.945
	c17.869-25.027,36.571-11.166,18.618,13.964L260.976,339.344c-4.161,5.823-10.761,9.407-17.911,9.723
	C242.721,349.082,242.376,349.091,242.036,349.091z"/>
<g>
</g>
<g>
</g>
<g>
</g>
<g>
</g>
<g>
</g>
<g>
</g>
<g>
</g>
<g>
</g>
<g>
</g>
<g>
</g>
<g>
</g>
<g>
</g>
<g>
</g>
<g>
</g>
<g>
</g>
</svg>
