<?xml version="1.0" encoding="iso-8859-1"?>
<!-- Generator: Adobe Illustrator 19.0.0, SVG Export Plug-In . SVG Version: 6.00 Build 0)  -->
<svg version="1.1" id="Layer_1" xmlns="http://www.w3.org/2000/svg" xmlns:xlink="http://www.w3.org/1999/xlink" x="0px" y="0px"
	 viewBox="0 0 512 512" style="enable-background:new 0 0 512 512;" xml:space="preserve">
<circle style="fill:#FABC3D;" cx="256" cy="256" r="256"/>
<path style="fill:#FFFFFF;" d="M353.745,386.327c0,10.282-8.336,18.618-18.618,18.618H176.873c-10.282,0-18.618-8.336-18.618-18.618
	V125.673c0-10.282,8.336-18.618,18.618-18.618h158.255c10.282,0,18.618,8.336,18.618,18.618V386.327z"/>
<rect x="176.873" y="134.982" style="fill:#0D9681;" width="158.255" height="214.109"/>
<g>
	<path style="fill:#CFD3D4;" d="M274.618,123.345c0,1.28-1.047,2.327-2.327,2.327h-32.582c-1.28,0-2.327-1.047-2.327-2.327l0,0
		c0-1.28,1.047-2.327,2.327-2.327h32.582C273.571,121.018,274.618,122.065,274.618,123.345L274.618,123.345z"/>
	<circle style="fill:#CFD3D4;" cx="256" cy="377.018" r="9.309"/>
</g>
<polygon style="fill:#17B198;" points="326.6,134.982 176.873,134.982 176.873,284.709 "/>
<path style="fill:#FFFFFF;" d="M257.266,187.145c3.044,0,5.45,2.411,5.45,5.45v2.788c7.48,0.889,13.815,3.295,19.647,6.973
	c2.029,1.14,3.803,3.044,3.803,6.083c0,3.933-3.17,6.973-7.098,6.973c-1.271,0-2.537-0.377-3.803-1.14
	c-4.436-2.662-8.746-4.561-13.056-5.576v24.339c19.27,4.817,27.508,12.549,27.508,26.112c0,13.945-10.901,23.198-27.001,24.72v7.605
	c0,3.039-2.411,5.451-5.45,5.451c-3.044,0-5.576-2.411-5.576-5.451v-7.862c-9.509-1.015-18.255-4.436-25.986-9.886
	c-2.155-1.392-3.421-3.421-3.421-6.083c0-3.928,3.044-6.973,6.973-6.973c1.522,0,3.044,0.507,4.184,1.392
	c5.958,4.31,11.79,7.224,18.762,8.495v-24.972c-18.506-4.817-27.127-11.79-27.127-26.112c0-13.563,10.775-22.947,26.624-24.213
	v-2.662C251.69,189.556,254.227,187.145,257.266,187.145z M252.197,230.377v-22.44c-8.113,0.759-12.172,5.073-12.172,10.65
	C240.026,223.907,242.437,227.207,252.197,230.377z M262.209,247.994v23.073c8.113-0.889,12.549-4.943,12.549-11.027
	C274.762,254.459,271.974,251.034,262.209,247.994z"/>
<g>
</g>
<g>
</g>
<g>
</g>
<g>
</g>
<g>
</g>
<g>
</g>
<g>
</g>
<g>
</g>
<g>
</g>
<g>
</g>
<g>
</g>
<g>
</g>
<g>
</g>
<g>
</g>
<g>
</g>
</svg>
