<?xml version="1.0" encoding="iso-8859-1"?>
<!-- Generator: Adobe Illustrator 19.0.0, SVG Export Plug-In . SVG Version: 6.00 Build 0)  -->
<svg version="1.1" id="Layer_1" xmlns="http://www.w3.org/2000/svg" xmlns:xlink="http://www.w3.org/1999/xlink" x="0px" y="0px"
	 viewBox="0 0 512 512" style="enable-background:new 0 0 512 512;" xml:space="preserve">
<circle style="fill:#25B7D3;" cx="256" cy="256" r="256"/>
<g>
	<polygon style="fill:#FBE158;" points="325.818,237.382 372.364,237.382 325.818,311.855 367.709,311.855 274.618,404.945 
		307.2,330.473 279.273,330.473 	"/>
	<polygon style="fill:#FBE158;" points="325.818,237.382 372.364,237.382 325.818,311.855 367.709,311.855 274.618,404.945 
		307.2,330.473 279.273,330.473 	"/>
</g>
<g>
	<path style="fill:#0484AB;" d="M175.56,322.318c-3.882,8.346-13.791,11.962-22.132,8.085c-8.346-3.882-11.962-13.791-8.085-22.132
		c3.877-8.35,36.184-38.307,36.184-38.307S179.442,313.972,175.56,322.318z"/>
	<path style="fill:#0484AB;" d="M250.54,340.936c-3.882,8.346-13.791,11.962-22.132,8.085c-8.346-3.882-11.962-13.791-8.085-22.132
		c3.877-8.35,36.184-38.307,36.184-38.307S254.417,332.591,250.54,340.936z"/>
	<path style="fill:#0484AB;" d="M189.016,395.306c-3.882,8.346-13.791,11.962-22.132,8.085c-8.346-3.882-11.962-13.791-8.085-22.132
		c3.877-8.341,36.184-38.302,36.184-38.302S192.898,386.96,189.016,395.306z"/>
</g>
<path style="fill:#F0F1F1;" d="M404.945,195.491c0-22.798-16.403-41.737-38.046-45.736c-10.584-25.088-35.412-42.701-64.354-42.701
	c-25.204,0-47.22,13.4-59.494,33.415c-8.802-6.353-19.582-10.142-31.269-10.142c-24.404,0-44.954,16.347-51.395,38.679
	c-27.034-6.819-53.332,11.32-53.332,35.793c0,24.148,25.73,42.403,52.806,35.914c7.377,11.948,20.554,19.94,35.631,19.94
	c13.084,0,24.762-6.004,32.442-15.402c12.66,23.045,37.153,38.675,65.303,38.675c29.463,0,54.854-17.157,66.932-41.979
	C385.047,241.012,404.945,220.602,404.945,195.491z"/>
<path style="fill:#FFFFFF;" d="M302.876,107.055c-25.204,0-47.22,13.4-59.494,33.415c-8.802-6.353-19.582-10.142-31.269-10.142
	c-24.404,0-44.954,16.347-51.395,38.679c-27.034-6.819-53.332,11.32-53.332,35.793c0,24.148,25.73,42.403,52.806,35.914
	c7.382,11.948,20.559,19.94,35.631,19.94c10.845,0,20.685-4.17,28.123-10.929c0.019-0.019,4.366-4.399,4.375-4.375l120.772-120.771
	C336.78,113.687,320.61,107.055,302.876,107.055z"/>
<g>
</g>
<g>
</g>
<g>
</g>
<g>
</g>
<g>
</g>
<g>
</g>
<g>
</g>
<g>
</g>
<g>
</g>
<g>
</g>
<g>
</g>
<g>
</g>
<g>
</g>
<g>
</g>
<g>
</g>
</svg>
