<?xml version="1.0" encoding="iso-8859-1"?>
<!-- Generator: Adobe Illustrator 19.0.0, SVG Export Plug-In . SVG Version: 6.00 Build 0)  -->
<svg version="1.1" id="Layer_1" xmlns="http://www.w3.org/2000/svg" xmlns:xlink="http://www.w3.org/1999/xlink" x="0px" y="0px"
	 viewBox="0 0 512 512" style="enable-background:new 0 0 512 512;" xml:space="preserve">
<circle style="fill:#E04F5F;" cx="256" cy="256" r="256"/>
<path style="fill:#FFFFFF;" d="M398.876,369.729c-13.326,4.087-31.898,7.545-39.657-16.277l-16.617-50.995
	c-0.61-1.876,0.028-3.933,1.592-5.134c12.162-9.337,17.762-25.623,12.74-41.034l-44.698-137.193
	c-0.796-2.444-3.421-3.779-5.869-2.984l-61.957,20.187c-2.444,0.796-3.779,3.421-2.984,5.869l44.698,137.193
	c5.022,15.407,19.139,25.27,34.462,25.651c1.974,0.051,3.7,1.336,4.31,3.212l16.617,50.995c7.764,23.822-9.281,31.967-22.458,36.515
	c-2.276,0.787-3.756,3.226-2.853,6c0.796,2.444,3.426,3.779,5.869,2.984l79.658-25.954c2.444-0.796,3.779-3.421,2.984-5.865
	C403.814,370.129,401.18,369.022,398.876,369.729z"/>
<path style="fill:#C9F2F8;" d="M306.367,116.112c2.444-0.796,5.069,0.54,5.869,2.984l44.698,137.193
	c5.022,15.407-0.577,31.697-12.74,41.034c-1.564,1.201-2.202,3.258-1.592,5.134l16.617,50.995
	c7.764,23.822,26.331,20.364,39.657,16.277c2.285-0.703,4.929,0.382,5.841,3.17c0.796,2.444-0.54,5.069-2.984,5.865l-40.225,13.107
	l-80.984-267.338L306.367,116.112z"/>
<path style="fill:#FACB1B;" d="M333.191,303.369c-19.549,6.377-40.588-4.329-46.964-23.878l-16.663-51.153
	c5.12-5.12,13.731-10.938,26.764-10.938c15.872,0,33.932-4.329,43.799-12.986l16.943,51.991
	C363.399,275.954,352.74,296.993,333.191,303.369z"/>
<g>
	<circle style="fill:#FBEC9A;" cx="296.215" cy="241.552" r="4.655"/>
	<circle style="fill:#FBEC9A;" cx="305.524" cy="274.134" r="4.655"/>
</g>
<path style="fill:#F3B607;" d="M340.126,204.414l16.943,51.991c6.186,19.102-3.873,39.592-22.579,46.466l-25.777-86.323
	C320.87,214.905,332.772,210.865,340.126,204.414z"/>
<circle style="fill:#FBEC9A;" cx="335.127" cy="246.207" r="9.309"/>
<path style="fill:#C9F2F8;" d="M113.124,369.729c13.326,4.087,31.898,7.545,39.657-16.277l16.617-50.995
	c0.61-1.876-0.028-3.933-1.592-5.134c-12.162-9.337-17.762-25.623-12.739-41.034l44.698-137.193
	c0.796-2.444,3.421-3.779,5.869-2.984l61.957,20.187c2.444,0.796,3.779,3.421,2.984,5.869l-44.698,137.193
	c-5.022,15.407-19.139,25.27-34.462,25.651c-1.969,0.051-3.7,1.336-4.31,3.212l-16.617,50.995
	c-7.764,23.822,9.281,31.967,22.458,36.515c2.276,0.787,3.756,3.226,2.853,6c-0.796,2.444-3.426,3.779-5.869,2.984l-79.663-25.954
	c-2.444-0.796-3.779-3.421-2.984-5.865C108.186,370.129,110.82,369.022,113.124,369.729z"/>
<path style="fill:#FFFFFF;" d="M205.633,116.112c-2.444-0.796-5.069,0.54-5.869,2.984l-44.698,137.193
	c-5.022,15.407,0.577,31.697,12.739,41.034c1.564,1.201,2.202,3.258,1.592,5.134l-16.617,50.995
	c-7.764,23.822-26.331,20.364-39.657,16.277c-2.285-0.703-4.929,0.382-5.841,3.17c-0.796,2.444,0.54,5.069,2.984,5.865
	l40.225,13.107l80.984-267.338L205.633,116.112z"/>
<path style="fill:#F3B607;" d="M178.809,303.369c19.549,6.377,40.588-4.329,46.964-23.878l16.663-51.153
	c-5.12-5.12-13.731-10.938-26.764-10.938c-15.872,0-33.932-4.329-43.799-12.986l-16.943,51.991
	C148.601,275.954,159.26,296.993,178.809,303.369z"/>
<g>
	<circle style="fill:#FBEC9A;" cx="215.785" cy="241.552" r="4.655"/>
	<circle style="fill:#FBEC9A;" cx="206.476" cy="274.134" r="4.655"/>
</g>
<g>
	<path style="fill:#FFFFFF;" d="M156.253,184.688c-9.3,2.453-15.174,8.327-17.622,17.622c-0.358,1.364-2.276,1.364-2.634,0
		c-2.453-9.295-8.327-15.169-17.622-17.622c-1.364-0.358-1.364-2.276,0-2.634c9.3-2.453,15.174-8.327,17.622-17.622
		c0.358-1.364,2.276-1.364,2.634,0c2.453,9.295,8.327,15.169,17.622,17.622C157.617,182.412,157.617,184.329,156.253,184.688z"/>
	<path style="fill:#FFFFFF;" d="M387.998,137.165c-9.3,2.453-15.174,8.327-17.622,17.622c-0.358,1.364-2.276,1.364-2.634,0
		c-2.453-9.295-8.327-15.169-17.622-17.622c-1.364-0.358-1.364-2.276,0-2.634c9.3-2.453,15.174-8.327,17.622-17.622
		c0.358-1.364,2.276-1.364,2.634,0c2.453,9.295,8.327,15.169,17.622,17.622C389.367,134.889,389.367,136.806,387.998,137.165z"/>
</g>
<path style="fill:#FACB1B;" d="M171.874,204.414l-16.943,51.991c-6.186,19.102,3.873,39.592,22.579,46.466l25.777-86.323
	C191.13,214.905,179.228,210.865,171.874,204.414z"/>
<circle style="fill:#FBEC9A;" cx="176.873" cy="246.207" r="9.309"/>
<g>
</g>
<g>
</g>
<g>
</g>
<g>
</g>
<g>
</g>
<g>
</g>
<g>
</g>
<g>
</g>
<g>
</g>
<g>
</g>
<g>
</g>
<g>
</g>
<g>
</g>
<g>
</g>
<g>
</g>
</svg>
