<?xml version="1.0" encoding="iso-8859-1"?>
<!-- Generator: Adobe Illustrator 19.0.0, SVG Export Plug-In . SVG Version: 6.00 Build 0)  -->
<svg version="1.1" id="Layer_1" xmlns="http://www.w3.org/2000/svg" xmlns:xlink="http://www.w3.org/1999/xlink" x="0px" y="0px"
	 viewBox="0 0 512 512" style="enable-background:new 0 0 512 512;" xml:space="preserve">
<circle style="fill:#00B0FF;" cx="256" cy="256" r="256"/>
<rect x="153.6" y="386.327" style="fill:#C5CAE9;" width="186.182" height="18.618"/>
<path style="fill:#E8EAF6;" d="M116.364,349.091c0,20.564,16.673,37.236,37.236,37.236h186.182
	c20.564,0,37.236-16.673,37.236-37.236v-55.855H116.364V349.091z"/>
<path style="fill:#FFFFFF;" d="M270.666,193.62c-18.702,13.615-54.267,46.252-58.056,99.617h64.582
	c-0.047-17.059,1.694-52.918,16.016-67.854L270.666,193.62z"/>
<rect x="278.482" y="124.216" transform="matrix(-0.5787 -0.8155 0.8155 -0.5787 368.172 545.671)" style="fill:#2962FF;" width="93.088" height="107.051"/>
<rect x="276.613" y="155.832" transform="matrix(-0.5787 -0.8155 0.8155 -0.5787 364.1123 546.2943)" style="fill:#2979FF;" width="93.088" height="46.539"/>
<path style="fill:#FFFFFF;" d="M242.036,293.236H116.364v55.855c0,20.564,16.673,37.236,37.236,37.236h88.436V293.236z"/>
<rect x="153.6" y="386.327" style="fill:#E8EAF6;" width="88.436" height="18.618"/>
<g>
</g>
<g>
</g>
<g>
</g>
<g>
</g>
<g>
</g>
<g>
</g>
<g>
</g>
<g>
</g>
<g>
</g>
<g>
</g>
<g>
</g>
<g>
</g>
<g>
</g>
<g>
</g>
<g>
</g>
</svg>
