<?xml version="1.0" encoding="iso-8859-1"?>
<!-- Generator: Adobe Illustrator 19.0.0, SVG Export Plug-In . SVG Version: 6.00 Build 0)  -->
<svg version="1.1" id="Layer_1" xmlns="http://www.w3.org/2000/svg" xmlns:xlink="http://www.w3.org/1999/xlink" x="0px" y="0px"
	 viewBox="0 0 512 512" style="enable-background:new 0 0 512 512;" xml:space="preserve">
<circle style="fill:#FABC3D;" cx="256" cy="256" r="256"/>
<g>
	<path style="fill:#FFFFFF;" d="M379.276,193.233c0,28.23-22.97,51.2-51.2,51.2s-51.2-22.97-51.2-51.2s22.97-51.2,51.2-51.2
		S379.276,164.999,379.276,193.233z M295.494,193.233c0,17.967,14.615,32.582,32.582,32.582s32.582-14.615,32.582-32.582
		s-14.615-32.582-32.582-32.582S295.494,175.267,295.494,193.233z"/>
	<path style="fill:#FFFFFF;" d="M165.101,343.533l-31.344-31.344c-3.463-3.463-9.076-3.463-12.539,0
		c-3.463,3.463-3.463,9.076,0,12.539l31.344,31.344l-31.344,31.344c-3.463,3.463-3.463,9.076,0,12.535
		c3.463,3.458,9.076,3.463,12.539,0l31.344-31.344l31.344,31.344c3.463,3.463,9.076,3.463,12.535,0
		c3.463-3.463,3.463-9.076,0-12.535l-31.344-31.344l31.344-31.344c3.463-3.463,3.463-9.076,0-12.539
		c-3.463-3.463-9.076-3.463-12.535,0L165.101,343.533z"/>
</g>
<path style="fill:#DF2C2C;" d="M139.636,111.709l-9.309,88.436l34.392-18.911c23.464,62.841,109.847,181.82,240.226,181.82v-27.927
	c-121.47,0-199.294-120.753-215.543-167.475l34.015-18.707L139.636,111.709z"/>
<g>
</g>
<g>
</g>
<g>
</g>
<g>
</g>
<g>
</g>
<g>
</g>
<g>
</g>
<g>
</g>
<g>
</g>
<g>
</g>
<g>
</g>
<g>
</g>
<g>
</g>
<g>
</g>
<g>
</g>
</svg>
