<?xml version="1.0" encoding="iso-8859-1"?>
<!-- Generator: Adobe Illustrator 19.0.0, SVG Export Plug-In . SVG Version: 6.00 Build 0)  -->
<svg version="1.1" id="Layer_1" xmlns="http://www.w3.org/2000/svg" xmlns:xlink="http://www.w3.org/1999/xlink" x="0px" y="0px"
	 viewBox="0 0 512 512" style="enable-background:new 0 0 512 512;" xml:space="preserve">
<circle style="fill:#32BEA6;" cx="256" cy="256" r="256"/>
<path style="fill:#EDBC7C;" d="M390.419,371.8c-2.621-2.62-6.172-4.091-9.877-4.091H131.458c-3.7,0-7.256,1.471-9.877,4.091
	l-14.527,14.527v18.618h297.891v-18.618L390.419,371.8z"/>
<path style="fill:#F8E1C2;" d="M107.055,386.327l14.527-14.527c2.621-2.62,6.172-4.091,9.877-4.091h249.088
	c3.705,0,7.256,1.471,9.872,4.091l14.527,14.527H107.055z"/>
<circle style="fill:#FACB1B;" cx="144.291" cy="144.291" r="37.236"/>
<path style="fill:#107665;" d="M353.745,162.909c-16.71,0-27.927,13.079-27.927,27.648v18.991c0,5.073-4.143,9.216-9.216,9.216
	h-0.186c-5.073,0-9.216-4.143-9.216-9.216v-65.257c0-20.573-16.663-37.236-37.236-37.236s-37.236,16.663-37.236,37.236v102.493
	c0,5.073-4.143,9.216-9.216,9.216h-0.186c-5.073,0-9.216-4.143-9.216-9.216v-18.991c0-15.118-11.823-27.648-27.927-27.648
	c-15.951,0-27.927,12.372-27.927,27.648v47.523c0,55.948,74.473,35.747,74.473,92.393v18.618H307.2v-55.855
	c0-56.646,74.473-36.445,74.473-92.393v-47.523C381.673,175.29,369.012,162.909,353.745,162.909z"/>
<path style="fill:#0D9681;" d="M232.727,144.291v102.493c0,5.073-4.143,9.216-9.216,9.216h-0.186c-5.073,0-9.216-4.143-9.216-9.216
	v-18.991c0-15.118-11.823-27.648-27.927-27.648c-15.951,0-27.927,12.372-27.927,27.648v47.523c0,55.948,74.473,35.747,74.473,92.393
	v18.618h37.236V107.055C249.391,107.055,232.727,123.718,232.727,144.291z"/>
<g>
</g>
<g>
</g>
<g>
</g>
<g>
</g>
<g>
</g>
<g>
</g>
<g>
</g>
<g>
</g>
<g>
</g>
<g>
</g>
<g>
</g>
<g>
</g>
<g>
</g>
<g>
</g>
<g>
</g>
</svg>
