<?xml version="1.0" encoding="iso-8859-1"?>
<!-- Generator: Adobe Illustrator 19.0.0, SVG Export Plug-In . SVG Version: 6.00 Build 0)  -->
<svg version="1.1" id="Layer_1" xmlns="http://www.w3.org/2000/svg" xmlns:xlink="http://www.w3.org/1999/xlink" x="0px" y="0px"
	 viewBox="0 0 512 512" style="enable-background:new 0 0 512 512;" xml:space="preserve">
<circle style="fill:#FABC3D;" cx="256" cy="256" r="256"/>
<path style="fill:#84462D;" d="M404.61,335.416c-5.236-27.262-20.285-90.028-49.971-139.837
	c18.474-15.83,28.942-35.668,31.213-59.601c0.251-2.662-0.661-5.302-2.49-7.252c-1.834-1.946-4.408-3.016-7.08-2.932
	c-27.788,0.87-50.576,6.372-67.356,17.427c-15.421-10.892-32.963-17.543-52.922-17.543c-98.839,0-139.287,161.187-148.61,209.743
	c-1.559,8.113,2.416,16.291,9.761,20.07c28.504,14.653,102.102,49.455,138.845,49.455s110.341-34.802,138.85-49.464
	C402.204,351.702,406.17,343.533,404.61,335.416z"/>
<path style="fill:#9C6144;" d="M203.078,143.216c-16.78-11.055-39.568-16.556-67.356-17.427c-2.672-0.084-5.246,0.987-7.08,2.932
	c-1.829,1.946-2.742,4.589-2.49,7.252c2.271,23.934,12.735,43.771,31.213,59.601c-29.687,49.813-44.739,112.579-49.976,139.841
	c-1.559,8.113,2.416,16.291,9.761,20.07c28.509,14.657,102.107,49.459,138.85,49.459V125.673
	C236.041,125.673,218.498,132.324,203.078,143.216z"/>
<path style="fill:#EDBC7C;" d="M325.818,153.595c9.43-6.582,22.9-9.421,39.568-9.309c0,15.518-6.204,27.932-18.618,37.241
	L325.818,153.595z"/>
<path style="fill:#F4D0A1;" d="M186.182,153.595c-9.43-6.582-22.9-9.421-39.568-9.309c0,15.518,6.205,27.932,18.618,37.241
	L186.182,153.595z"/>
<path id="SVGCleanerId_0" style="fill:#3E3E3F;" d="M220.705,317.002c-0.54-1.28-0.484-2.732,0.158-3.966
	c0.642-1.233,1.797-2.113,3.156-2.402c21.322-4.58,42.645-4.58,63.963,0c1.359,0.293,2.513,1.173,3.151,2.406
	c0.638,1.233,0.703,2.686,0.163,3.966c-6.474,15.281-17.715,25.796-33.727,31.544c-1.019,0.368-2.127,0.363-3.142,0
	C238.42,342.798,227.179,332.283,220.705,317.002z"/>
<path style="fill:#EDBC7C;" d="M310.924,362.775c-0.233,3.119-0.372,6.237-2.56,8.425l-15.034,15.034l-3.398,3.398
	c-9.384,9.379-19.233,15.313-34.118,15.313c-14.569,0-24.292-6.009-33.745-15.267c0,0,0,0,0-0.047l-3.398-3.398l-15.22-15.22
	c-2.095-2.095-2.281-5.073-2.607-8.052c-2.467-23.785,7.401-56.925,34.304-119.389c1.583-3.631,4.841-6.191,8.797-6.191h23.924
	c4.049,0,7.261,2.7,8.844,6.423C301.428,301.661,313.158,333.405,310.924,362.775z"/>
<path style="fill:#F4D0A1;" d="M256,237.382h-12.055c-3.956,0-7.215,2.56-8.797,6.191c-26.903,62.464-36.771,95.604-34.304,119.389
	c0.326,2.979,0.512,5.958,2.607,8.052l15.22,15.22l3.398,3.398c0,0.047,0,0.047,0,0.047l2.281,2.234
	c8.332,8.332,19.642,13.033,31.465,13.033H256V237.382z"/>
<path style="fill:#84462D;" d="M293.329,386.234l-3.398,3.398c-6.284-11.031-20.992-19.596-34.118-19.596
	c-13.172,0-27.462,8.425-33.745,19.596l-3.398-3.398c7.401-11.916,22.854-20.852,37.143-20.852
	C270.289,365.382,285.929,374.319,293.329,386.234z"/>
<g>
	<path id="SVGCleanerId_0_1_" style="fill:#3E3E3F;" d="M220.705,317.002c-0.54-1.28-0.484-2.732,0.158-3.966
		c0.642-1.233,1.797-2.113,3.156-2.402c21.322-4.58,42.645-4.58,63.963,0c1.359,0.293,2.513,1.173,3.151,2.406
		c0.638,1.233,0.703,2.686,0.163,3.966c-6.474,15.281-17.715,25.796-33.727,31.544c-1.019,0.368-2.127,0.363-3.142,0
		C238.42,342.798,227.179,332.283,220.705,317.002z"/>
</g>
<path style="fill:#5B5C5F;" d="M220.863,313.037c-0.642,1.233-0.698,2.686-0.158,3.966c6.474,15.281,17.715,25.795,33.722,31.544
	c0.507,0.182,1.043,0.275,1.573,0.275V307.2c-10.664,0-21.322,1.145-31.981,3.435C222.659,310.924,221.501,311.803,220.863,313.037z
	"/>
<path style="fill:#FFFFFF;" d="M237.382,209.445c0,7.713-6.251,13.964-13.964,13.964H204.8c-7.713,0-13.964-6.251-13.964-13.964
	v-11.604c0-1.61,0.414-3.198,1.21-4.599c2.816-4.948,10.11-16.384,17.408-16.384c7.61,0,21.439,18.66,26.238,25.474
	c1.103,1.578,1.69,3.44,1.69,5.357V209.445z"/>
<path style="fill:#3E3E3F;" d="M204.474,208.947c-0.116-0.284-0.168-0.573-0.256-0.856c1.112,0.14,2.271,0.033,3.384-0.424
	c3.454-1.415,5.106-5.362,3.696-8.816c-0.456-1.112-1.192-2.011-2.071-2.709c0.265-0.135,0.507-0.303,0.787-0.419
	c5.181-2.122,11.106,0.358,13.228,5.544c2.122,5.18-0.358,11.106-5.544,13.228C212.517,216.613,206.597,214.132,204.474,208.947z"/>
<path style="fill:#FFFFFF;" d="M274.618,209.445c0,7.713,6.251,13.964,13.964,13.964H307.2c7.713,0,13.964-6.251,13.964-13.964
	v-11.604c0-1.61-0.419-3.198-1.21-4.599c-2.816-4.948-10.11-16.384-17.408-16.384c-7.61,0-21.439,18.66-26.238,25.474
	c-1.103,1.578-1.69,3.44-1.69,5.357V209.445z"/>
<path style="fill:#3E3E3F;" d="M293.795,195.575c-0.279,0.116-0.521,0.284-0.787,0.424c0.884,0.689,1.629,1.583,2.095,2.69
	c1.443,3.444-0.182,7.405-3.621,8.848c-1.108,0.465-2.267,0.582-3.379,0.451c0.093,0.284,0.144,0.573,0.261,0.856
	c2.164,5.167,8.108,7.601,13.27,5.432c5.167-2.164,7.596-8.108,5.432-13.27C304.901,195.845,298.961,193.41,293.795,195.575z"/>
<g>
</g>
<g>
</g>
<g>
</g>
<g>
</g>
<g>
</g>
<g>
</g>
<g>
</g>
<g>
</g>
<g>
</g>
<g>
</g>
<g>
</g>
<g>
</g>
<g>
</g>
<g>
</g>
<g>
</g>
</svg>
