<?xml version="1.0" encoding="iso-8859-1"?>
<!-- Generator: Adobe Illustrator 19.0.0, SVG Export Plug-In . SVG Version: 6.00 Build 0)  -->
<svg version="1.1" id="Layer_1" xmlns="http://www.w3.org/2000/svg" xmlns:xlink="http://www.w3.org/1999/xlink" x="0px" y="0px"
	 viewBox="0 0 512 512" style="enable-background:new 0 0 512 512;" xml:space="preserve">
<circle style="fill:#25B7D3;" cx="256" cy="256" r="256"/>
<path style="fill:#6FDAF1;" d="M181.527,311.855c0,10.282,8.336,18.618,18.618,18.618h111.709l55.855,55.855v-55.855h18.618
	c10.282,0,18.618-8.336,18.618-18.618V162.909c0-10.282-8.336-18.618-18.618-18.618H200.145c-10.282,0-18.618,8.336-18.618,18.618
	V311.855z"/>
<path style="fill:#F0F1F1;" d="M330.473,274.618c0,10.282-8.336,18.618-18.618,18.618H200.145l-55.855,55.855v-55.855h-18.618
	c-10.282,0-18.618-8.336-18.618-18.618V125.673c0-10.282,8.336-18.618,18.618-18.618h186.182c10.282,0,18.618,8.336,18.618,18.618
	V274.618z"/>
<path style="fill:#FFFFFF;" d="M327.377,115.423c-3.328-5.036-9.03-8.369-15.523-8.369H125.673
	c-10.282,0-18.618,8.336-18.618,18.618v148.945c0,10.282,8.336,18.618,18.618,18.618h18.618v5.278L327.377,115.423z"/>
<g>
	<circle style="fill:#21B2D1;" cx="162.909" cy="200.145" r="18.618"/>
	<circle style="fill:#21B2D1;" cx="218.764" cy="200.145" r="18.618"/>
	<circle style="fill:#21B2D1;" cx="274.618" cy="200.145" r="18.618"/>
</g>
<g>
</g>
<g>
</g>
<g>
</g>
<g>
</g>
<g>
</g>
<g>
</g>
<g>
</g>
<g>
</g>
<g>
</g>
<g>
</g>
<g>
</g>
<g>
</g>
<g>
</g>
<g>
</g>
<g>
</g>
</svg>
