<?xml version="1.0" encoding="iso-8859-1"?>
<!-- Generator: Adobe Illustrator 19.0.0, SVG Export Plug-In . SVG Version: 6.00 Build 0)  -->
<svg version="1.1" id="Layer_1" xmlns="http://www.w3.org/2000/svg" xmlns:xlink="http://www.w3.org/1999/xlink" x="0px" y="0px"
	 viewBox="0 0 512 512" style="enable-background:new 0 0 512 512;" xml:space="preserve">
<circle style="fill:#FABC3D;" cx="256" cy="256" r="256"/>
<path style="fill:#FA5655;" d="M167.145,324.929c-13.033-4.766-24.218-10.193-33.801-15.681l-2.728,62.096l43.455-44.074
	C171.757,326.502,169.439,325.772,167.145,324.929z"/>
<path style="fill:#059BBF;" d="M198.554,334.024l14.327,61.612l30.785-55.571C228.599,339.256,213.499,337.329,198.554,334.024z"/>
<path style="fill:#099686;" d="M281.088,339.931l26.433,55.417l18.074-60.705C311.096,337.175,296.197,339.028,281.088,339.931z"/>
<path style="fill:#DF2C2C;" d="M345.335,330.747l32.005,49.953l10.17-61.231C374.151,323.645,360.024,327.508,345.335,330.747z"/>
<path style="fill:#84462D;" d="M404.945,303.891v9.821c-41.332,14.429-92.207,26.857-144.384,26.857
	c-54.649,0-111.113-14.536-153.507-49.292v-12.521c0.652,0.559,1.303,1.164,2.001,1.769c0.047,0.047,0.047,0.047,0.093,0.093
	C140.381,307.661,232.541,365.144,404.945,303.891z"/>
<path style="fill:#DF2C2C;" d="M123.499,168.294l8.197,61.919l34.839-50.623C152.711,177.273,138.356,173.587,123.499,168.294z"/>
<g>
	<path style="fill:#059BBF;" d="M204.102,182.826c-2.248,0-4.548-0.102-6.833-0.172l21.495,55.887l22.672-58.941
		C229.627,181.634,217.181,182.826,204.102,182.826z"/>
	<path style="fill:#059BBF;" d="M271.774,172.172l44.553,44.144l-3.44-61.691C300.73,161.178,286.985,167.308,271.774,172.172z"/>
</g>
<path style="fill:#099686;" d="M367.49,115.214c-6.893,6.582-17.915,16.165-32.6,26.084l48.761,30.427L367.49,115.214z"/>
<path style="fill:#84462D;" d="M374.458,108.214c-10.24,10.985-73.542,74.612-170.356,74.612c-29.463,0-61.952-5.911-97.047-20.899
	v-10.193c132.655,59.02,227.84-18.013,254.324-43.52C361.379,108.214,374.458,108.214,374.458,108.214z"/>
<path style="fill:#099686;" d="M196.552,274.6l32.465,50.241l9.681-59.722C224.456,269.014,210.316,272.151,196.552,274.6z"/>
<path style="fill:#059BBF;" d="M270.024,255.348l43.055,45.312l-1.587-62.413C297.979,244.713,284.067,250.41,270.024,255.348z"/>
<path style="fill:#FA5655;" d="M330.17,228.65l47.579,39.187l-9.486-63.907C356.333,213.025,343.547,221.268,330.17,228.65z"/>
<path style="fill:#84462D;" d="M404.945,154.992V169.7c-72.844,84.806-216.902,116.271-295.796,110.918
	c-0.698-0.047-1.396-0.093-2.095-0.14v-9.309C137.914,271.542,319.209,268.33,404.945,154.992z"/>
<path style="fill:#12B2A0;" d="M367.49,115.214c-6.893,6.582-17.915,16.165-32.6,26.084l16.756,10.454l20.447-20.447L367.49,115.214
	z"/>
<g>
	<path style="fill:#21B2D1;" d="M312.888,154.619c-12.158,6.558-25.903,12.684-41.114,17.548l15.523,15.383l25.977-25.977
		L312.888,154.619z"/>
	<path style="fill:#21B2D1;" d="M204.102,182.826c-2.248,0-4.548-0.102-6.833-0.172l8.443,21.951l23.259-23.259
		C220.942,182.272,212.675,182.826,204.102,182.826z"/>
</g>
<path style="fill:#FA5655;" d="M123.499,168.294l5.004,37.79l28.346-28.346C146.032,175.462,134.917,172.362,123.499,168.294z"/>
<path style="fill:#059BBF;" d="M121.674,281.121l28.388,52.973l13.577-54.886C148.634,280.739,134.502,281.358,121.674,281.121z"/>
<g>
</g>
<g>
</g>
<g>
</g>
<g>
</g>
<g>
</g>
<g>
</g>
<g>
</g>
<g>
</g>
<g>
</g>
<g>
</g>
<g>
</g>
<g>
</g>
<g>
</g>
<g>
</g>
<g>
</g>
</svg>
