<?xml version="1.0" encoding="iso-8859-1"?>
<!-- Generator: Adobe Illustrator 19.0.0, SVG Export Plug-In . SVG Version: 6.00 Build 0)  -->
<svg version="1.1" id="Layer_1" xmlns="http://www.w3.org/2000/svg" xmlns:xlink="http://www.w3.org/1999/xlink" x="0px" y="0px"
	 viewBox="0 0 512 512" style="enable-background:new 0 0 512 512;" xml:space="preserve">
<circle style="fill:#FF5722;" cx="256" cy="256" r="256"/>
<path style="fill:#FFFFFF;" d="M379.276,193.233c0,28.23-22.97,51.2-51.2,51.2s-51.2-22.97-51.2-51.2s22.97-51.2,51.2-51.2
	S379.276,164.999,379.276,193.233z M295.494,193.233c0,17.967,14.615,32.582,32.582,32.582s32.582-14.615,32.582-32.582
	s-14.615-32.582-32.582-32.582S295.494,175.262,295.494,193.233z"/>
<path style="fill:#AC2200;" d="M165.101,343.538l-31.344-31.339c-3.458-3.463-9.072-3.463-12.535,0
	c-3.463,3.458-3.463,9.072,0,12.535l31.344,31.339l-31.344,31.344c-3.463,3.458-3.463,9.072,0,12.535
	c3.463,3.463,9.076,3.463,12.535,0l31.344-31.344l31.344,31.344c3.458,3.463,9.072,3.463,12.535,0c3.458-3.463,3.458-9.076,0-12.535
	l-31.344-31.344l31.344-31.339c3.458-3.463,3.458-9.076,0-12.535c-3.463-3.463-9.076-3.463-12.535,0L165.101,343.538z"/>
<path style="fill:#2C0900;" d="M139.636,111.709l-9.309,88.436l34.392-18.911c23.464,62.841,109.847,181.82,240.226,181.82v-27.927
	c-121.474,0-199.294-120.748-215.543-167.475l34.015-18.707L139.636,111.709z"/>
<g>
</g>
<g>
</g>
<g>
</g>
<g>
</g>
<g>
</g>
<g>
</g>
<g>
</g>
<g>
</g>
<g>
</g>
<g>
</g>
<g>
</g>
<g>
</g>
<g>
</g>
<g>
</g>
<g>
</g>
</svg>
