<?xml version="1.0" encoding="iso-8859-1"?>
<!-- Generator: Adobe Illustrator 19.0.0, SVG Export Plug-In . SVG Version: 6.00 Build 0)  -->
<svg version="1.1" id="Layer_1" xmlns="http://www.w3.org/2000/svg" xmlns:xlink="http://www.w3.org/1999/xlink" x="0px" y="0px"
	 viewBox="0 0 512 512" style="enable-background:new 0 0 512 512;" xml:space="preserve">
<circle style="fill:#E04F5F;" cx="256" cy="256" r="256"/>
<path style="fill:#3E3E3F;" d="M404.945,209.459c-17.008-9.719-41.621-9.286-61.272-6.656
	c-9.411-12.214-22.621-22.007-47.444-30.836c-10.152-11.311-24.325-18.362-40.034-18.362c-0.065,0-0.13,0.009-0.196,0.009v-0.005
	c-0.065,0-0.13-0.009-0.195-0.009c-15.709,0-29.882,7.052-40.034,18.362c-24.823,8.83-38.032,18.623-47.444,30.836
	c-19.651-2.63-44.26-3.067-61.272,6.656c9.607,21.62,20.471,35.756,33.196,45.061c-32.573,59.443,55.217,56.827,45.736,85.267
	c-12.577,37.725,9.309,60.509,69.818,60.509c0.07,0,0.13-0.005,0.195-0.005v0.005c0.07,0,0.13,0.005,0.196,0.005
	c60.509,0,82.395-22.784,69.818-60.509c-9.444-28.328,78.066-26.261,45.736-85.267C384.475,245.215,395.338,231.075,404.945,209.459
	z"/>
<g>
	<path style="fill:#FFFFFF;" d="M107.664,109.359c-5.064,95.446,82.725,106.198,92.681,104.755
		c17.692-2.569,31.609-19.903,22.756-37.236c-13.475-26.373-85.937-5.986-109.945-67.691
		C112.04,106.328,107.823,106.301,107.664,109.359z"/>
	<path style="fill:#FFFFFF;" d="M404.736,109.359c5.064,95.446-82.725,106.198-92.681,104.755
		c-17.692-2.569-31.609-19.903-22.756-37.236c13.475-26.373,85.937-5.986,109.945-67.691
		C400.356,106.328,404.573,106.301,404.736,109.359z"/>
</g>
<path style="fill:#FACB1B;" d="M256,404.955c-24.38,0-44.218-19.838-44.218-44.218c0-10.021,3.444-19.838,9.705-27.643
	c2.406-3.007,6.805-3.491,9.812-1.08c3.007,2.416,3.491,6.805,1.08,9.816c-4.338,5.413-6.633,11.948-6.633,18.907
	c0,16.682,13.573,30.255,30.255,30.255s30.255-13.573,30.255-30.255c0-6.954-2.295-13.494-6.633-18.907
	c-2.411-3.007-1.927-7.401,1.08-9.812c3.007-2.411,7.405-1.927,9.812,1.08c6.256,7.806,9.7,17.622,9.7,27.639
	C300.218,385.117,280.38,404.955,256,404.955z"/>
<path style="fill:#FBE158;" d="M225.745,360.737c0-6.959,2.295-13.494,6.633-18.907c2.411-3.007,1.932-7.401-1.08-9.816
	c-3.007-2.411-7.405-1.927-9.812,1.08c-6.26,7.806-9.705,17.622-9.705,27.643c0,24.38,19.838,44.218,44.218,44.218v-13.964
	C239.318,390.991,225.745,377.418,225.745,360.737z"/>
<g>
	<path style="fill:#5B5C5F;" d="M365.312,242.209c8.862-9.737,16.235-19.796,21.211-28.095c-10.771-2.695-23.487-2.648-36.129-1.243
		C355.412,221.417,359.741,231.08,365.312,242.209z"/>
	<path style="fill:#5B5C5F;" d="M155.997,242.209c-8.862-9.737-16.235-19.796-21.211-28.095c10.771-2.695,23.487-2.648,36.129-1.243
		C165.897,221.417,161.569,231.08,155.997,242.209z"/>
</g>
<path style="fill:#FFFFFF;" d="M237.382,260.655c0,7.713-6.251,13.964-13.964,13.964H204.8c-7.713,0-13.964-6.251-13.964-13.964
	v-11.604c0-1.61,0.414-3.198,1.21-4.599c2.816-4.948,10.11-16.384,17.408-16.384c7.61,0,21.439,18.66,26.238,25.474
	c1.103,1.578,1.69,3.435,1.69,5.357V260.655z"/>
<path style="fill:#3E3E3F;" d="M204.218,259.3c1.112,0.14,2.271,0.033,3.384-0.424c3.454-1.415,5.106-5.362,3.696-8.816
	c-0.456-1.112-1.192-2.011-2.071-2.709c5.576-2.877,11.855-0.154,14.015,5.125c2.122,5.18-0.358,11.106-5.544,13.228
	C212.387,267.874,206.038,265.244,204.218,259.3z"/>
<path style="fill:#FFFFFF;" d="M274.618,260.655c0,7.713,6.251,13.964,13.964,13.964H307.2c7.713,0,13.964-6.251,13.964-13.964
	v-11.604c0-1.61-0.419-3.198-1.21-4.599c-2.816-4.948-10.11-16.384-17.408-16.384c-7.61,0-21.439,18.66-26.238,25.474
	c-1.103,1.578-1.69,3.435-1.69,5.357V260.655z"/>
<path style="fill:#3E3E3F;" d="M293.008,247.208c0.884,0.689,1.629,1.583,2.095,2.69c1.443,3.444-0.182,7.405-3.621,8.848
	c-1.108,0.465-2.267,0.582-3.379,0.451c1.908,5.976,8.276,8.49,13.531,6.288c5.167-2.164,7.596-8.108,5.432-13.27
	C304.845,246.924,298.496,244.294,293.008,247.208z"/>
<g>
</g>
<g>
</g>
<g>
</g>
<g>
</g>
<g>
</g>
<g>
</g>
<g>
</g>
<g>
</g>
<g>
</g>
<g>
</g>
<g>
</g>
<g>
</g>
<g>
</g>
<g>
</g>
<g>
</g>
</svg>
