<?xml version="1.0" encoding="iso-8859-1"?>
<!-- Generator: Adobe Illustrator 19.0.0, SVG Export Plug-In . SVG Version: 6.00 Build 0)  -->
<svg version="1.1" id="Layer_1" xmlns="http://www.w3.org/2000/svg" xmlns:xlink="http://www.w3.org/1999/xlink" x="0px" y="0px"
	 viewBox="0 0 512 512" style="enable-background:new 0 0 512 512;" xml:space="preserve">
<circle style="fill:#FABC3D;" cx="256" cy="256" r="256"/>
<path style="fill:#FA5655;" d="M181.634,320.265c0.512,10.384,2.681,22.258,5.809,34.448l12.558-7.717l-4.589-30.487
	L181.634,320.265z"/>
<path style="fill:#FFFFFF;" d="M181.634,320.265l13.777-3.756l14.043-23.273h-9.388H162.83c-6.54,0-12.786-1.182-18.618-3.249
	v35.831c0,31.032-17.068,60.509-4.655,79.127h44.614c4.557,0,8.83-2.229,11.446-5.972c2.611-3.738,3.23-8.518,1.662-12.8
	C189.165,364.013,182.589,339.586,181.634,320.265z"/>
<path style="fill:#DF2C2C;" d="M106.975,237.382c0,30.846,25.009,55.855,55.855,55.855h55.855V181.527H162.83
	C131.98,181.527,106.975,206.536,106.975,237.382z"/>
<path style="fill:#FA5655;" d="M218.685,181.527H162.83c-30.846,0-55.855,25.009-55.855,55.855h111.709V181.527z"/>
<path style="fill:#FFFFFF;" d="M367.709,125.673c0.028,34.365,0,111.709,0,111.709H218.671v-55.855
	C334.676,181.527,367.709,125.673,367.709,125.673z"/>
<g>
	<path style="fill:#F0F1F1;" d="M367.709,349.091c0.028-34.365,0-111.709,0-111.709H218.671v55.855
		C334.676,293.236,367.709,349.091,367.709,349.091z"/>
	<rect x="367.709" y="116.364" style="fill:#F0F1F1;" width="27.927" height="121.018"/>
</g>
<rect x="367.709" y="237.382" style="fill:#E2E4E5;" width="27.927" height="121.018"/>
<g>
</g>
<g>
</g>
<g>
</g>
<g>
</g>
<g>
</g>
<g>
</g>
<g>
</g>
<g>
</g>
<g>
</g>
<g>
</g>
<g>
</g>
<g>
</g>
<g>
</g>
<g>
</g>
<g>
</g>
</svg>
