<?xml version="1.0" encoding="iso-8859-1"?>
<!-- Generator: Adobe Illustrator 19.0.0, SVG Export Plug-In . SVG Version: 6.00 Build 0)  -->
<svg version="1.1" id="Layer_1" xmlns="http://www.w3.org/2000/svg" xmlns:xlink="http://www.w3.org/1999/xlink" x="0px" y="0px"
	 viewBox="0 0 512 512" style="enable-background:new 0 0 512 512;" xml:space="preserve">
<circle style="fill:#25B7D3;" cx="256" cy="256" r="256"/>
<path style="fill:#3E3E3F;" d="M185.041,308.424c-11.608,6.67-28.039,20.485-35.733,47.416c-7.485,26.2-28.984,30.455-29.817,30.613
	c-5.073,0.847-8.495,5.641-7.652,10.715c0.759,4.552,4.701,7.782,9.169,7.778c5.827,0,36.077-8.56,46.201-43.99
	c7.284-25.493,24.143-35.444,31.646-38.721L185.041,308.424z"/>
<path style="fill:#E2E4E5;" d="M286.459,146.544L162.109,270.895c-4.031,4.031-4.031,10.57,0,14.601l64.391,64.386
	c4.031,4.031,10.57,4.031,14.601,0l124.351-124.351L286.459,146.544z"/>
<polygon style="fill:#F3B607;" points="266.71,126.794 385.196,245.281 404.945,107.05 "/>
<g>
	<path style="fill:#DF2C2C;" d="M259.375,331.613l-18.274,18.274c-4.031,4.031-10.57,4.031-14.601,0l-65.359-65.359
		C190.925,313.586,221.226,325.064,259.375,331.613z"/>
	<path style="fill:#DF2C2C;" d="M312.031,278.952l-31.069,31.069c-36.468-10.403-70.893-29.817-99.793-58.186l26.298-26.298
		C237.256,254.594,273.887,272.403,312.031,278.952z"/>
	<path style="fill:#DF2C2C;" d="M364.693,226.29l-31.069,31.069c-36.468-10.403-70.893-29.817-99.793-58.186l26.298-26.298
		C289.913,201.937,326.544,219.741,364.693,226.29z"/>
</g>
<path style="fill:#FA5655;" d="M199.354,312.688l-5.027,5.027l-32.582-32.582C174.033,297.002,186.368,305.892,199.354,312.688z"/>
<path style="fill:#FFFFFF;" d="M225.839,286.203l-26.484,26.484c-12.986-6.796-25.321-15.686-37.609-27.555
	c-0.047-0.093-0.14-0.14-0.186-0.186c-0.047-0.093-0.14-0.14-0.186-0.233c-3.305-4.049-3.072-10.007,0.698-13.824l19.084-19.037
	C194.886,265.351,209.92,276.848,225.839,286.203z"/>
<path style="fill:#FA5655;" d="M253.161,258.881l-27.322,27.322c-15.919-9.356-30.953-20.852-44.684-34.351l26.298-26.298
	C221.37,239.146,236.777,250.27,253.161,258.881z"/>
<path style="fill:#FFFFFF;" d="M278.481,233.607l-25.321,25.274c-16.384-8.611-31.791-19.735-45.708-33.327l26.345-26.391
	C247.575,212.662,262.609,224.158,278.481,233.607z"/>
<path style="fill:#FA5655;" d="M305.85,206.238l-27.369,27.369c-15.872-9.449-30.906-20.945-44.684-34.444l26.298-26.298
	C274.013,186.456,289.466,197.581,305.85,206.238z"/>
<path style="fill:#FFFFFF;" d="M325.958,186.084l-20.108,20.154c-16.384-8.657-31.837-19.782-45.754-33.373l26.345-26.298
	L325.958,186.084z"/>
<polygon style="fill:#FACB1B;" points="404.945,107.185 266.715,126.934 325.953,186.177 "/>
<g>
</g>
<g>
</g>
<g>
</g>
<g>
</g>
<g>
</g>
<g>
</g>
<g>
</g>
<g>
</g>
<g>
</g>
<g>
</g>
<g>
</g>
<g>
</g>
<g>
</g>
<g>
</g>
<g>
</g>
</svg>
