<?xml version="1.0" encoding="iso-8859-1"?>
<!-- Generator: Adobe Illustrator 19.0.0, SVG Export Plug-In . SVG Version: 6.00 Build 0)  -->
<svg version="1.1" id="Layer_1" xmlns="http://www.w3.org/2000/svg" xmlns:xlink="http://www.w3.org/1999/xlink" x="0px" y="0px"
	 viewBox="0 0 512 512" style="enable-background:new 0 0 512 512;" xml:space="preserve">
<circle style="fill:#25B7D3;" cx="256" cy="256" r="256"/>
<path style="fill:#F0F1F1;" d="M404.945,316.509c0-22.798-16.403-41.737-38.046-45.736c-10.584-25.088-35.412-42.701-64.354-42.701
	c-25.204,0-47.22,13.4-59.494,33.415c-8.802-6.353-19.582-10.142-31.269-10.142c-24.404,0-44.954,16.347-51.395,38.679
	c-27.034-6.819-53.332,11.32-53.332,35.793c0,24.148,25.73,42.403,52.806,35.914c7.377,11.948,20.554,19.94,35.631,19.94
	c13.084,0,24.762-6.004,32.442-15.402c12.66,23.045,37.153,38.675,65.303,38.675c29.463,0,54.854-17.157,66.932-41.979
	C385.047,362.031,404.945,341.62,404.945,316.509z"/>
<path style="fill:#F37A10;" d="M376.241,106.277c-111.495,0-205.005,78.066-228.985,182.388c4.389-0.177,8.909,0.205,13.461,1.354
	c4.031-13.973,13.587-25.6,26.149-32.349C219.062,185.027,291.793,134.2,376.236,134.2c9.742,0,19.316,0.707,28.705,2.02v-28.151
	C395.534,106.91,385.96,106.277,376.241,106.277z"/>
<path style="fill:#FACB1B;" d="M376.241,134.204c-84.443,0-157.175,50.823-189.37,123.471c7.517-4.035,16.109-6.33,25.246-6.33
	c3.021,0,5.976,0.265,8.858,0.749c30.971-53.709,88.939-89.963,155.266-89.963c9.775,0,19.354,0.824,28.705,2.341v-28.248
	C395.557,134.917,385.983,134.204,376.241,134.204z"/>
<path style="fill:#47C4B7;" d="M376.241,162.132c-66.327,0-124.3,36.254-155.266,89.963c8.266,1.392,15.881,4.682,22.407,9.398
	c5.302-8.643,12.423-16.044,20.829-21.676c27.695-30.534,67.654-49.752,112.026-49.752c9.821,0,19.405,0.996,28.705,2.797v-28.388
	C395.594,162.96,386.015,162.132,376.241,162.132z"/>
<path style="fill:#FFFFFF;" d="M302.876,228.073c-25.204,0-47.22,13.4-59.494,33.415c-8.802-6.353-19.582-10.142-31.269-10.142
	c-24.404,0-44.954,16.347-51.395,38.679c-27.034-6.819-53.332,11.32-53.332,35.793c0,24.148,25.73,42.403,52.806,35.914
	c7.382,11.948,20.559,19.94,35.631,19.94c10.845,0,20.685-4.171,28.123-10.929c0.019-0.019,4.366-4.399,4.375-4.375l120.772-120.771
	C336.78,234.705,320.61,228.073,302.876,228.073z"/>
<g>
</g>
<g>
</g>
<g>
</g>
<g>
</g>
<g>
</g>
<g>
</g>
<g>
</g>
<g>
</g>
<g>
</g>
<g>
</g>
<g>
</g>
<g>
</g>
<g>
</g>
<g>
</g>
<g>
</g>
</svg>
