<?xml version="1.0" encoding="iso-8859-1"?>
<!-- Generator: Adobe Illustrator 19.0.0, SVG Export Plug-In . SVG Version: 6.00 Build 0)  -->
<svg version="1.1" id="Layer_1" xmlns="http://www.w3.org/2000/svg" xmlns:xlink="http://www.w3.org/1999/xlink" x="0px" y="0px"
	 viewBox="0 0 512 512" style="enable-background:new 0 0 512 512;" xml:space="preserve">
<circle style="fill:#E04F5F;" cx="256" cy="256" r="256"/>
<path style="fill:#84462D;" d="M377.018,158.255c0-5.143-4.166-9.309-9.309-9.309H144.291c-5.143,0-9.309,4.166-9.309,9.309v237.382
	c0,5.143,4.166,9.309,9.309,9.309h223.418c5.143,0,9.309-4.166,9.309-9.309V158.255z"/>
<rect x="153.6" y="167.564" style="fill:#FFFFFF;" width="204.8" height="218.764"/>
<path style="fill:#FACB1B;" d="M302.545,134.982h-18.618c0-15.421-12.507-27.927-27.927-27.927s-27.927,12.507-27.927,27.927
	h-18.618c-5.139,0-9.309,4.17-9.309,9.309v37.236c0,5.139,4.17,9.309,9.309,9.309h93.091c5.143,0,9.309-4.17,9.309-9.309v-37.236
	C311.855,139.152,307.684,134.982,302.545,134.982z M256,116.364c5.139,0,9.309,4.17,9.309,9.309s-4.17,9.309-9.309,9.309
	c-5.139,0-9.309-4.17-9.309-9.309S250.861,116.364,256,116.364z"/>
<path style="fill:#DF2C2C;" d="M277.276,365.382c-15.402,0-27.927-12.53-27.927-27.927c0-15.397,12.525-27.927,27.927-27.927
	s27.927,12.53,27.927,27.927C305.203,352.852,292.678,365.382,277.276,365.382z M277.276,323.491
	c-7.699,0-13.964,6.265-13.964,13.964s6.265,13.964,13.964,13.964s13.964-6.265,13.964-13.964S284.979,323.491,277.276,323.491z"/>
<g>
	<polygon style="fill:#5B5C5F;" points="335.788,250.149 327.345,241.706 314.68,254.371 302.01,241.706 293.567,250.149 
		306.232,262.814 293.567,275.484 302.01,283.927 314.68,271.262 327.345,283.927 335.788,275.484 323.123,262.814 	"/>
	<polygon style="fill:#5B5C5F;" points="223.749,222.552 215.305,214.109 202.64,226.774 189.64,213.779 181.197,222.222 
		194.192,235.222 181.527,247.887 189.971,256.33 202.64,243.665 214.975,256 223.418,247.557 211.084,235.222 	"/>
</g>
<path style="fill:#DF2C2C;" d="M275.395,242.036l-37.683,4.408l10.384,10.929c-14.141,8.397-49.948,35.23-49.948,91.718
	c0,3.854,3.123,6.982,6.982,6.982s6.982-3.128,6.982-6.982c0-54.495,37.897-77.117,45.903-81.282l11.059,11.636L275.395,242.036z"/>
<path style="fill:#FBE158;" d="M302.545,134.982h-18.618c0-15.421-12.507-27.927-27.927-27.927s-27.927,12.507-27.927,27.927
	h-18.618c-5.139,0-9.309,4.17-9.309,9.309v18.618h111.709v-18.618C311.855,139.152,307.684,134.982,302.545,134.982z M256,134.982
	c-5.139,0-9.309-4.17-9.309-9.309s4.17-9.309,9.309-9.309c5.139,0,9.309,4.17,9.309,9.309S261.139,134.982,256,134.982z"/>
<g>
</g>
<g>
</g>
<g>
</g>
<g>
</g>
<g>
</g>
<g>
</g>
<g>
</g>
<g>
</g>
<g>
</g>
<g>
</g>
<g>
</g>
<g>
</g>
<g>
</g>
<g>
</g>
<g>
</g>
</svg>
