<?xml version="1.0" encoding="iso-8859-1"?>
<!-- Generator: Adobe Illustrator 19.0.0, SVG Export Plug-In . SVG Version: 6.00 Build 0)  -->
<svg version="1.1" id="Layer_1" xmlns="http://www.w3.org/2000/svg" xmlns:xlink="http://www.w3.org/1999/xlink" x="0px" y="0px"
	 viewBox="0 0 512 512" style="enable-background:new 0 0 512 512;" xml:space="preserve">
<circle style="fill:#E04F5F;" cx="256" cy="256" r="256"/>
<rect x="153.6" y="386.327" style="fill:#CFD3D4;" width="186.182" height="18.618"/>
<path style="fill:#E2E4E5;" d="M116.364,349.091c0,20.564,16.673,37.236,37.236,37.236h186.182
	c20.564,0,37.236-16.673,37.236-37.236v-55.855H116.364V349.091z"/>
<path style="fill:#FFFFFF;" d="M270.671,193.62c-18.707,13.619-54.267,46.248-58.061,99.617h64.582
	c-0.047-17.059,1.694-52.922,16.016-67.854L270.671,193.62z"/>
<rect x="278.482" y="124.216" transform="matrix(-0.5787 -0.8155 0.8155 -0.5787 368.172 545.671)" style="fill:#FBE158;" width="93.088" height="107.051"/>
<rect x="276.619" y="155.825" transform="matrix(-0.5787 -0.8155 0.8155 -0.5787 364.1246 546.2925)" style="fill:#FACB1B;" width="93.088" height="46.544"/>
<path style="fill:#FFFFFF;" d="M242.036,293.236H116.364v55.855c0,20.564,16.673,37.236,37.236,37.236h88.436V293.236z"/>
<rect x="153.6" y="386.327" style="fill:#F0F1F1;" width="88.436" height="18.618"/>
<g>
</g>
<g>
</g>
<g>
</g>
<g>
</g>
<g>
</g>
<g>
</g>
<g>
</g>
<g>
</g>
<g>
</g>
<g>
</g>
<g>
</g>
<g>
</g>
<g>
</g>
<g>
</g>
<g>
</g>
</svg>
