<?xml version="1.0" encoding="iso-8859-1"?>
<!-- Generator: Adobe Illustrator 19.0.0, SVG Export Plug-In . SVG Version: 6.00 Build 0)  -->
<svg version="1.1" id="Layer_1" xmlns="http://www.w3.org/2000/svg" xmlns:xlink="http://www.w3.org/1999/xlink" x="0px" y="0px"
	 viewBox="0 0 512 512" style="enable-background:new 0 0 512 512;" xml:space="preserve">
<circle style="fill:#32BEA6;" cx="256" cy="256" r="256"/>
<path style="fill:#F7B4B4;" d="M265.309,146.255c0-21.439-17.492-39.201-39.201-39.201c-21.569,0-39.201,17.543-39.201,39.201
	c0,13.293,6.656,25.037,16.798,32.13v7.07h44.8v-7.07C258.653,171.297,265.309,159.549,265.309,146.255z"/>
<path style="fill:#692E19;" d="M265.179,144.03c-7.187,1.438-14.829,2.22-22.737,2.22c-20.317,0-38.94-5.032-53.183-13.396
	c5.488-15.025,19.931-25.805,36.85-25.805C246.952,107.055,264.066,123.453,265.179,144.03z"/>
<path style="fill:#FBC8C8;" d="M225.41,185.456v-78.364c-21.248,0.377-38.502,17.743-38.502,39.163
	c0,13.293,6.661,25.037,16.803,32.13v7.07H225.41z"/>
<path style="fill:#84462D;" d="M225.41,107.11c-16.612,0.298-30.739,10.938-36.147,25.754c10.142,5.958,22.533,10.175,36.147,12.139
	V107.11z"/>
<path style="fill:#3E3E3F;" d="M297.891,256v-45.34c0-5.995-3.212-11.529-8.42-14.504l-41.202-11.138h-44.553l-41.7,11.138
	c-5.204,2.974-8.415,8.509-8.415,14.504V256H297.891z"/>
<polygon style="fill:#FFFFFF;" points="248.269,185.018 234.906,225.168 225.997,251.844 217.083,225.057 203.72,185.018 "/>
<polygon style="fill:#FA5655;" points="234.906,225.168 225.997,251.844 217.083,225.057 225.773,185.018 "/>
<rect x="125.673" y="274.618" style="fill:#84462D;" width="260.655" height="130.327"/>
<path style="fill:#3E3E3F;" d="M367.709,244.005V204.8h-18.618v38.586c-6.679,2.122-12.288,6.651-15.742,12.614h48.324
	C378.531,250.573,373.602,246.333,367.709,244.005z"/>
<g>
	<rect x="107.055" y="256" style="fill:#9C6144;" width="297.891" height="18.618"/>
	<path style="fill:#9C6144;" d="M200.145,311.855c-18.618-12.414-37.236-12.414-55.855,0v74.473h55.855V311.855z"/>
	<path style="fill:#9C6144;" d="M367.709,311.855c-18.618-12.414-37.236-12.414-55.855,0v74.473h55.855V311.855z"/>
	<path style="fill:#9C6144;" d="M293.236,311.855c-24.823-24.823-49.65-24.823-74.473,0v74.473h74.473V311.855z"/>
</g>
<path style="fill:#5B5C5F;" d="M333.349,256H358.4v-51.2h-9.309v38.586C342.412,245.509,336.803,250.038,333.349,256z"/>
<path style="fill:#E2E4E5;" d="M358.4,158.255c-25.707,0-46.545,20.838-46.545,46.545h93.091
	C404.945,179.093,384.107,158.255,358.4,158.255z"/>
<path style="fill:#FFFFFF;" d="M358.4,158.255c-25.707,0-46.545,20.838-46.545,46.545H358.4V158.255z"/>
<g>
</g>
<g>
</g>
<g>
</g>
<g>
</g>
<g>
</g>
<g>
</g>
<g>
</g>
<g>
</g>
<g>
</g>
<g>
</g>
<g>
</g>
<g>
</g>
<g>
</g>
<g>
</g>
<g>
</g>
</svg>
