<?xml version="1.0" encoding="iso-8859-1"?>
<!-- Generator: Adobe Illustrator 19.0.0, SVG Export Plug-In . SVG Version: 6.00 Build 0)  -->
<svg version="1.1" id="Layer_1" xmlns="http://www.w3.org/2000/svg" xmlns:xlink="http://www.w3.org/1999/xlink" x="0px" y="0px"
	 viewBox="0 0 512 512" style="enable-background:new 0 0 512 512;" xml:space="preserve">
<circle style="fill:#32BEA6;" cx="256" cy="256" r="256"/>
<path style="fill:#F0F1F1;" d="M256,107.055c-82.26,0-148.945,58.349-148.945,130.327c0,29.342,11.087,56.413,29.789,78.196
	l-29.789,89.367l93.328-46.662c17.189,6.056,35.947,9.425,55.617,9.425c82.26,0,148.945-58.349,148.945-130.327
	S338.26,107.055,256,107.055z"/>
<path style="fill:#FFFFFF;" d="M363.534,147.256c-27.113-24.758-65.252-40.201-107.534-40.201
	c-82.26,0-148.945,58.349-148.945,130.327c0,29.342,11.087,56.413,29.789,78.196L107.66,403.13L363.534,147.256z"/>
<path style="fill:#21B2D1;" d="M267.594,193.811c4.603,0,6.912,3.207,6.912,9.626v74.296c0,8.392,1.564,12.586,4.692,12.586
	c1.112,0,5.8-1.727,7.899-1.727c6.912,0,10.366,4.352,10.366,13.047c0,11.543-4.855,17.315-14.564,17.315
	c-0.27,0-18.437-1.974-29.622-1.974c-7.629,0-18.618,1.974-25.917,1.974c-4.44,0-8.066-1.522-10.859-4.566
	c-2.797-3.044-4.194-6.949-4.194-11.725c0-9.379,3.947-14.071,11.846-14.071c1.145,0.265,7.052,1.727,8.145,1.727
	c2.96,0,4.445-4.603,4.445-13.824v-39.987c0-9.379-1.401-14.071-4.198-14.071c-0.168,0-5.232,1.727-8.392,1.727
	c-7.899,0-11.846-4.603-11.846-13.824c0-9.626,5.804-16.538,15.304-16.538c3.347,0,15.002,1.974,21.723,1.974
	C254.259,195.784,267.562,193.811,267.594,193.811z M253.524,184.427c-12.255,0-22.463-10.203-22.463-22.463
	c0-12.442,9.765-22.463,22.463-22.463c12.376,0,22.463,9.714,22.463,22.463C275.987,174.406,266.226,184.427,253.524,184.427z"/>
<g>
</g>
<g>
</g>
<g>
</g>
<g>
</g>
<g>
</g>
<g>
</g>
<g>
</g>
<g>
</g>
<g>
</g>
<g>
</g>
<g>
</g>
<g>
</g>
<g>
</g>
<g>
</g>
<g>
</g>
</svg>
