<?xml version="1.0" encoding="iso-8859-1"?>
<!-- Generator: Adobe Illustrator 19.0.0, SVG Export Plug-In . SVG Version: 6.00 Build 0)  -->
<svg version="1.1" id="Layer_1" xmlns="http://www.w3.org/2000/svg" xmlns:xlink="http://www.w3.org/1999/xlink" x="0px" y="0px"
	 viewBox="0 0 512 512" style="enable-background:new 0 0 512 512;" xml:space="preserve">
<circle style="fill:#E04F5F;" cx="256" cy="256" r="256"/>
<g>
	<polygon style="fill:#FACB1B;" points="377.018,349.091 134.982,349.091 107.055,404.945 404.945,404.945 	"/>
	<polygon style="fill:#FACB1B;" points="172.218,274.618 144.291,330.473 367.709,330.473 339.782,274.618 	"/>
	<polygon style="fill:#FACB1B;" points="181.527,256 330.473,256 302.545,200.145 209.455,200.145 	"/>
	<polygon style="fill:#FACB1B;" points="218.764,181.527 293.236,181.527 256,107.055 	"/>
</g>
<path style="fill:#F0F1F1;" d="M404.871,276.196c1.876-42.408-30.976-78.308-73.384-80.184s-78.308,30.976-80.184,73.384
	c-0.586,13.21,2.206,25.782,7.596,36.897l-66.551,66.718c5.353,15.979,16.021,26.624,32.014,31.935l65.401-65.569
	c10.333,5.958,22.179,9.644,34.918,10.207C367.09,351.46,402.991,318.604,404.871,276.196z"/>
<path style="fill:#FFFFFF;" d="M331.483,196.012c-42.408-1.88-78.308,30.976-80.184,73.384c-0.586,13.205,2.206,25.782,7.596,36.897
	l-66.546,66.718c2.979,8.904,7.675,16.086,13.959,21.676l176.119-176.123C369.32,205.424,351.497,196.901,331.483,196.012z"/>
<circle style="fill:#40C9E7;" cx="328.099" cy="272.803" r="54.9"/>
<path style="fill:#6FDAF1;" d="M330.515,217.954c-30.292-1.34-55.934,22.128-57.274,52.415
	c-0.712,16.049,5.585,30.748,16.128,41.263l77.549-77.554C357.553,224.68,344.813,218.587,330.515,217.954z"/>
<path style="fill:#84462D;" d="M275.638,353.541l-32.014-31.93l-51.274,51.4c5.353,15.979,16.021,26.624,32.014,31.935
	L275.638,353.541z"/>
<path style="fill:#F3B607;" d="M275.638,353.541l14.127-14.164c-13.349-7.699-24.148-19.233-30.864-33.08l-15.276,15.313
	L275.638,353.541z"/>
<path style="fill:#9C6144;" d="M258.895,306.292l-66.546,66.718c2.979,8.904,7.675,16.086,13.959,21.676l67.547-67.547
	C267.776,321.094,262.675,314.075,258.895,306.292z"/>
<path style="fill:#FBE158;" d="M258.895,306.292l-15.276,15.313l17.906,17.864l12.325-12.325
	C267.776,321.094,262.675,314.075,258.895,306.292z"/>
<g>
</g>
<g>
</g>
<g>
</g>
<g>
</g>
<g>
</g>
<g>
</g>
<g>
</g>
<g>
</g>
<g>
</g>
<g>
</g>
<g>
</g>
<g>
</g>
<g>
</g>
<g>
</g>
<g>
</g>
</svg>
