<?xml version="1.0" encoding="iso-8859-1"?>
<!-- Generator: Adobe Illustrator 19.0.0, SVG Export Plug-In . SVG Version: 6.00 Build 0)  -->
<svg version="1.1" id="Layer_1" xmlns="http://www.w3.org/2000/svg" xmlns:xlink="http://www.w3.org/1999/xlink" x="0px" y="0px"
	 viewBox="0 0 512 512" style="enable-background:new 0 0 512 512;" xml:space="preserve">
<circle style="fill:#25B7D3;" cx="256" cy="256" r="256"/>
<g>
	<path style="fill:#DF2C2C;" d="M389.576,355.146l-39.778-59.28c-1.597,0.707-2.891,1.573-3.659,2.718
		c-4.343,6.484,5.329,24.543-0.168,30.04c-5.502,5.497-23.557-4.175-30.045,0.168c-6.437,4.31-4.375,24.702-11.618,27.704
		c-4.924,2.039-12.637-4.906-19.489-8.876l36.003,53.653c1.773,2.644,4.906,4.035,8.052,3.584c3.151-0.456,5.762-2.672,6.717-5.711
		l8.76-27.816c1.164-3.691,4.729-6.088,8.588-5.762l29.063,2.439c3.17,0.265,6.214-1.308,7.829-4.054
		C391.447,361.207,391.35,357.79,389.576,355.146z"/>
	<path style="fill:#DF2C2C;" d="M205.959,356.501c-7.242-3.002-5.181-23.398-11.618-27.709c-6.488-4.343-24.543,5.329-30.045-0.168
		c-5.497-5.497,4.175-23.557-0.168-30.04c-0.735-1.098-1.964-1.941-3.477-2.63l-39.722,59.197c-1.773,2.644-1.876,6.07-0.261,8.811
		s4.655,4.319,7.829,4.054l29.063-2.439c3.859-0.326,7.429,2.071,8.588,5.762l8.76,27.816c0.959,3.035,3.565,5.255,6.717,5.711
		c3.151,0.452,6.284-0.94,8.052-3.584l36.143-53.858C218.875,351.353,210.972,358.582,205.959,356.501z"/>
</g>
<path style="fill:#F3B607;" d="M383.604,237.787c0,7.945-19.628,13.861-21.113,21.369c-1.531,7.736,14.313,20.694,11.362,27.811
	c-3.002,7.242-23.398,5.181-27.709,11.618c-4.343,6.484,5.329,24.543-0.168,30.04c-5.497,5.497-23.557-4.175-30.04,0.168
	c-6.437,4.31-4.375,24.702-11.618,27.704c-7.117,2.951-20.075-12.893-27.811-11.362c-7.508,1.485-13.424,21.113-21.364,21.113
	c-7.945,0-13.861-19.628-21.369-21.113c-7.736-1.531-20.694,14.313-27.811,11.362c-7.242-3.002-5.18-23.398-11.618-27.709
	c-6.484-4.343-24.543,5.329-30.04-0.168c-5.497-5.497,4.175-23.557-0.168-30.04c-4.31-6.437-24.702-4.375-27.704-11.618
	c-2.951-7.117,12.893-20.075,11.362-27.811c-1.485-7.508-21.113-13.424-21.113-21.364c0-7.945,19.628-13.861,21.113-21.369
	c1.531-7.736-14.313-20.694-11.362-27.811c3.002-7.242,23.398-5.181,27.708-11.618c4.343-6.484-5.329-24.543,0.168-30.04
	c5.497-5.497,23.557,4.175,30.04-0.168c6.437-4.31,4.375-24.702,11.618-27.704c7.117-2.951,20.075,12.893,27.811,11.362
	c7.508-1.485,13.424-21.113,21.364-21.113c7.945,0,13.861,19.628,21.369,21.113c7.736,1.531,20.694-14.313,27.811-11.362
	c7.242,3.002,5.181,23.398,11.618,27.709c6.484,4.343,24.543-5.329,30.04,0.168c5.497,5.497-4.175,23.557,0.168,30.04
	c4.31,6.437,24.702,4.375,27.704,11.618c2.951,7.117-12.893,20.075-11.362,27.811C363.976,223.93,383.604,229.846,383.604,237.787z"
	/>
<path style="fill:#FACB1B;" d="M345.982,146.953c-5.497-5.497-23.557,4.175-30.045-0.168c-6.437-4.31-4.375-24.706-11.618-27.709
	c-7.117-2.951-20.075,12.893-27.816,11.362c-7.508-1.485-13.424-21.113-21.364-21.113c-7.941,0-13.861,19.628-21.364,21.113
	c-7.736,1.531-20.694-14.313-27.811-11.362c-7.242,3.002-5.18,23.398-11.618,27.704c-6.484,4.343-24.543-5.334-30.04,0.168
	c-5.502,5.497,4.17,23.557-0.168,30.04c-4.31,6.437-24.706,4.375-27.709,11.618c-2.951,7.117,12.893,20.075,11.362,27.811
	c-1.485,7.508-21.118,13.424-21.118,21.369s19.628,13.861,21.113,21.369c1.531,7.736-14.313,20.694-11.362,27.811
	c3.007,7.242,23.398,5.185,27.709,11.618c4.343,6.484-5.334,24.543,0.168,30.04c0.168,0.168,0.382,0.279,0.568,0.419
	l181.527-181.527C346.256,147.33,346.145,147.116,345.982,146.953z"/>
<circle style="fill:#FBE158;" cx="255.139" cy="237.801" r="86.812"/>
<path style="fill:#FBEC9A;" d="M255.139,150.979c-47.946,0-86.812,38.865-86.812,86.812c0,23.864,9.64,45.466,25.218,61.156
	l122.75-122.75C300.604,160.614,278.998,150.979,255.139,150.979z"/>
<circle style="fill:#FFFFFF;" cx="255.139" cy="237.801" r="56.632"/>
<g>
</g>
<g>
</g>
<g>
</g>
<g>
</g>
<g>
</g>
<g>
</g>
<g>
</g>
<g>
</g>
<g>
</g>
<g>
</g>
<g>
</g>
<g>
</g>
<g>
</g>
<g>
</g>
<g>
</g>
</svg>
