<?xml version="1.0" encoding="iso-8859-1"?>
<!-- Generator: Adobe Illustrator 19.0.0, SVG Export Plug-In . SVG Version: 6.00 Build 0)  -->
<svg version="1.1" id="Layer_1" xmlns="http://www.w3.org/2000/svg" xmlns:xlink="http://www.w3.org/1999/xlink" x="0px" y="0px"
	 viewBox="0 0 512 512" style="enable-background:new 0 0 512 512;" xml:space="preserve">
<circle style="fill:#FABC3D;" cx="256" cy="256" r="256"/>
<path style="fill:#FFFFFF;" d="M335.127,242.036H294.33c-0.438-0.796-0.945-1.555-1.615-2.23l-25.172-25.172
	c-0.675-0.67-1.434-1.182-2.23-1.615v-40.802h-9.309v40.797c-0.796,0.438-1.555,0.945-2.23,1.615l-25.172,25.172
	c-0.67,0.675-1.182,1.434-1.615,2.23h-40.806c-12.833,0-23.273,10.44-23.273,23.273v60.509h9.309v-60.504
	c0-7.699,6.265-13.964,13.964-13.964h40.797c0.433,0.796,0.945,1.555,1.615,2.23l25.172,25.172c3.803,3.803,9.965,3.803,13.768,0
	l25.172-25.172c0.67-0.675,1.182-1.434,1.615-2.23h40.806c7.699,0,13.964,6.265,13.964,13.964v60.509h9.309v-60.509
	C358.4,252.477,347.96,242.036,335.127,242.036z"/>
<path style="fill:#0D9681;" d="M335.127,162.909c0,10.282-8.336,18.618-18.618,18.618H204.8c-10.282,0-18.618-8.336-18.618-18.618
	v-37.236c0-10.282,8.336-18.618,18.618-18.618h111.709c10.282,0,18.618,8.336,18.618,18.618V162.909z"/>
<path style="fill:#0484AB;" d="M107.055,330.473c0-10.282,8.336-18.618,18.618-18.618h74.473c10.282,0,18.618,8.336,18.618,18.618
	v55.855c0,10.282-8.336,18.618-18.618,18.618h-74.473c-10.282,0-18.618-8.336-18.618-18.618V330.473z"/>
<circle style="fill:#DF2C2C;" cx="353.745" cy="358.4" r="46.545"/>
<path style="fill:#17B198;" d="M260.655,107.055H204.8c-10.282,0-18.618,8.336-18.618,18.618v37.236
	c0,10.282,8.336,18.618,18.618,18.618h55.855V107.055z"/>
<path style="fill:#FA5655;" d="M307.2,358.4c0,25.707,20.838,46.545,46.545,46.545v-93.091
	C328.038,311.855,307.2,332.693,307.2,358.4z"/>
<path style="fill:#059BBF;" d="M162.909,311.855h-37.236c-10.282,0-18.618,8.336-18.618,18.618v55.855
	c0,10.282,8.336,18.618,18.618,18.618h37.236V311.855z"/>
<g>
</g>
<g>
</g>
<g>
</g>
<g>
</g>
<g>
</g>
<g>
</g>
<g>
</g>
<g>
</g>
<g>
</g>
<g>
</g>
<g>
</g>
<g>
</g>
<g>
</g>
<g>
</g>
<g>
</g>
</svg>
