<?xml version="1.0" encoding="iso-8859-1"?>
<!-- Generator: Adobe Illustrator 19.0.0, SVG Export Plug-In . SVG Version: 6.00 Build 0)  -->
<svg version="1.1" id="Layer_1" xmlns="http://www.w3.org/2000/svg" xmlns:xlink="http://www.w3.org/1999/xlink" x="0px" y="0px"
	 viewBox="0 0 512 512" style="enable-background:new 0 0 512 512;" xml:space="preserve">
<circle style="fill:#FABC3D;" cx="256" cy="256" r="256"/>
<path style="fill:#E2E4E5;" d="M383.125,129.578c-29.096-29.096-76.223-29.096-105.318,0c-2.239,2.239-4.278,4.543-6.153,7.01
	c-4.049,5.167-7.308,10.729-9.742,16.589c-5.916,13.936-7.363,29.282-4.399,43.916L115.023,355.16
	c-10.259,11.962-9.57,29.808,1.573,40.951s28.989,11.827,40.951,1.573l158.068-142.49c14.634,2.96,29.98,1.517,43.92-4.403
	c5.855-2.434,11.422-5.693,16.621-9.709c2.434-1.908,4.738-3.952,6.977-6.186C412.216,205.805,412.216,158.673,383.125,129.578z"/>
<g>
	<path style="fill:#FFFFFF;" d="M277.807,129.578c-17.501,17.496-25.311,42.757-20.298,67.514L115.018,355.16
		c-10.161,11.85-9.546,29.454,1.299,40.616l266.487-266.491C353.685,100.501,306.8,100.585,277.807,129.578z"/>
	<path style="fill:#FFFFFF;" d="M238.308,155.909c-3.635-3.635-9.528-3.635-13.168,0l-59.238,59.243
		c-3.635,3.635-3.635,9.528,0,13.163l59.136,59.131l72.401-72.406L238.308,155.909z"/>
</g>
<path style="fill:#3E3E3F;" d="M383.125,234.896c-28.919,28.919-76.069,29.249-105.318,0c-29.31-29.31-28.849-76.474,0-105.318
	c29.096-29.096,76.227-29.096,105.318,0C412.221,158.673,412.221,205.805,383.125,234.896z"/>
<path style="fill:#5B5C5F;" d="M277.807,129.578c-28.779,28.779-29.296,75.776-0.195,105.104l105.3-105.3
	C353.797,100.496,306.828,100.552,277.807,129.578z"/>
<path style="fill:#FFFFFF;" d="M297.551,346.801c-3.635,3.635-9.528,3.635-13.163,0L165.902,228.315
	c-3.635-3.635-3.635-9.528,0-13.163l59.243-59.243c3.635-3.635,9.528-3.635,13.163,0l118.486,118.486
	c3.635,3.635,3.635,9.528,0,13.163L297.551,346.801z"/>
<path style="fill:#B6BCBD;" d="M376.148,241.087c-5.199,4.017-10.761,7.275-16.621,9.709l-97.62-97.62
	c2.434-5.86,5.693-11.422,9.742-16.589L376.148,241.087z"/>
<g>
	<path style="fill:#FA5655;" d="M225.648,184.422l6.712,6.712l-5.171,18.669l-3.24,7.973l0.237,0.158
		c-0.042-0.042,4.068-5.567,4.026-5.604l12.67-12.67l7.028,7.028l-27.946,27.946l-7.145-7.145l4.696-17.329l3.156-8.052
		l-0.237-0.158l-4.501,6.316l-11.171,11.171l-7.066-7.066L225.648,184.422z"/>
	<path style="fill:#FA5655;" d="M248.52,229.241l11.329,11.329l-6.121,6.121l-11.329-11.329l-4.184,4.184l12.316,12.316l-6.67,6.67
		L224.4,239.071l27.946-27.946l19.461,19.461l-6.633,6.633l-12.316-12.316L248.52,229.241z"/>
	<path style="fill:#FA5655;" d="M302.173,260.948l7.303,7.303l-35.998,19.894l-6.554-6.554l5.25-10.221l5.409-7.382l-0.116-0.116
		l-7.419,5.288l-9.989,5.567l-6.554-6.554l19.856-36.04l7.34,7.34l-10.063,16.701l-5.213,6.633l0.195,0.195l6.554-5.213
		l12.907-6.675l5.367,5.371l-6.949,12.707l-4.934,6.749l0.116,0.116l6.633-5.05L302.173,260.948z"/>
	<path style="fill:#FA5655;" d="M295.326,292.31c-0.591,6.2,5.409,12.511,8.606,9.709c1.657-1.499,0-4.976-1.974-7.578
		c-3.789-5.213-5.055-12.158,0.275-17.487c5.488-5.488,13.34-3.393,18.474,1.736c3.393,3.393,5.72,7.62,5.092,14.015l-8.173-1.066
		c0.195-6.037-4.934-10.934-8.29-7.815c-1.261,1.42-0.591,3.672,1.103,6.316c4.068,5.883,7.303,12.591,0.121,19.144
		c-5.646,5.171-14.289,2.448-19.419-2.686c-3.356-3.356-5.213-8.606-4.459-14.564L295.326,292.31z"/>
</g>
<g>
</g>
<g>
</g>
<g>
</g>
<g>
</g>
<g>
</g>
<g>
</g>
<g>
</g>
<g>
</g>
<g>
</g>
<g>
</g>
<g>
</g>
<g>
</g>
<g>
</g>
<g>
</g>
<g>
</g>
</svg>
