<?xml version="1.0" encoding="iso-8859-1"?>
<!-- Generator: Adobe Illustrator 19.0.0, SVG Export Plug-In . SVG Version: 6.00 Build 0)  -->
<svg version="1.1" id="Layer_1" xmlns="http://www.w3.org/2000/svg" xmlns:xlink="http://www.w3.org/1999/xlink" x="0px" y="0px"
	 viewBox="0 0 512 512" style="enable-background:new 0 0 512 512;" xml:space="preserve">
<circle style="fill:#E04F5F;" cx="256" cy="256" r="256"/>
<path style="fill:#099686;" d="M120.059,353.243c-2.472,2.472-3.212,6.191-1.876,9.421s4.492,5.334,7.987,5.334h257.503
	c3.617,0,6.852-2.253,8.108-5.641c1.257-3.393,0.265-7.205-2.476-9.56c-31.846-17.869-58.112-37.958-72.955-62.594h41.398
	c3.617,0,6.852-2.253,8.108-5.641c1.257-3.393,0.265-7.205-2.476-9.56c-30.697-15.239-55.473-35.7-72.955-62.594h43.222
	c3.752,0,7.075-2.42,8.229-5.99c1.15-3.57,0.233-8.104-3.179-9.667c-22.337-10.273-56.529-40.094-70.097-63.376
	c-2.667-4.575-7.582-7.405-12.874-7.405c-5.157,0-9.914,2.742-12.502,7.201c-13.684,23.547-47.881,53.309-70.8,64.042
	c-3.272,1.531-3.724,6.167-2.472,9.56c1.252,3.393,4.487,5.641,8.104,5.641h43.222c-17.585,27.713-43.446,48.035-75.264,63.041
	c-2.472,2.472-3.212,6.191-1.876,9.421c1.336,3.23,4.492,5.334,7.987,5.334h43.222C180.424,315.56,152.972,335.565,120.059,353.243z
	"/>
<path style="fill:#12B2A0;" d="M255.902,125.975c-0.065,0-0.13-0.014-0.195-0.014c-5.157,0-9.914,2.742-12.502,7.201
	c-13.684,23.547-47.877,53.309-70.8,64.042c-3.272,1.531-3.724,6.167-2.472,9.556c1.257,3.389,4.487,5.641,8.104,5.641h43.222
	c-17.585,27.713-43.446,48.04-75.264,63.041c-2.472,2.472-3.212,6.191-1.876,9.421c1.336,3.23,4.492,5.334,7.987,5.334h43.222
	c-14.899,25.358-42.356,45.363-75.264,63.041c-2.472,2.472-3.212,6.191-1.876,9.421c1.336,3.23,4.492,5.334,7.987,5.334h129.731
	V125.975H255.902z"/>
<path style="fill:#84462D;" d="M283.83,395.93c0,5.143-4.166,9.309-9.309,9.309h-37.236c-5.143,0-9.309-4.166-9.309-9.309v-27.927
	h55.855V395.93z"/>
<path style="fill:#FBE158;" d="M253.715,108.297c0.186-0.568,0.712-0.95,1.308-0.95s1.126,0.386,1.308,0.95l3.658,11.259
	c0.186,0.568,0.712,0.95,1.308,0.95h11.841c0.596,0,1.126,0.386,1.308,0.95c0.186,0.568-0.019,1.187-0.498,1.541l-9.579,6.959
	c-0.484,0.349-0.684,0.973-0.498,1.541l3.658,11.259c0.186,0.568-0.019,1.187-0.498,1.541c-0.484,0.349-1.136,0.349-1.62,0
	l-9.579-6.959c-0.484-0.349-1.136-0.349-1.62,0l-9.579,6.959c-0.484,0.349-1.136,0.349-1.62,0s-0.684-0.973-0.498-1.541
	l3.658-11.259c0.186-0.568-0.019-1.187-0.498-1.541l-9.579-6.959c-0.484-0.349-0.684-0.973-0.498-1.541
	c0.186-0.568,0.712-0.95,1.308-0.95h11.841c0.596,0,1.126-0.386,1.308-0.95L253.715,108.297z"/>
<g>
	<path style="fill:#FACB1B;" d="M181.43,212.406h39.824c-0.303,0.475-0.652,0.908-0.954,1.378
		c30.147-8.816,57.903-23.235,82.092-42.063c-2.365-2.067-4.71-4.17-6.996-6.335C262.959,190.282,223.939,206.969,181.43,212.406z"
		/>
	<path style="fill:#FACB1B;" d="M312.571,239.472c-2.276-2.243-4.468-4.566-6.605-6.935c-45.405,26.875-98.309,42.37-154.792,42.37
		c-1.317,0-2.611-0.084-3.924-0.098c-0.428,0.205-0.829,0.433-1.261,0.638c-2.267,2.267-2.993,5.562-2.081,8.588
		c2.425,0.056,4.831,0.186,7.266,0.186C210.153,284.22,265.37,267.855,312.571,239.472z"/>
	<path style="fill:#FACB1B;" d="M324.291,301.601c-1.964-2.49-3.821-5.027-5.539-7.62c-50.111,26.41-107.11,41.435-167.578,41.435
		c-0.451,0-0.889-0.033-1.34-0.033c-4.506,3.063-9.211,6.042-14.075,8.951c5.12,0.209,10.245,0.391,15.411,0.391
		C213.69,344.73,272.603,329.086,324.291,301.601z"/>
</g>
<g>
	<circle style="fill:#DF2C2C;" cx="227.975" cy="181.807" r="9.309"/>
	<circle style="fill:#DF2C2C;" cx="274.52" cy="223.697" r="9.309"/>
	<circle style="fill:#DF2C2C;" cx="209.357" cy="260.934" r="9.309"/>
	<circle style="fill:#DF2C2C;" cx="297.793" cy="302.825" r="9.309"/>
	<circle style="fill:#DF2C2C;" cx="246.593" cy="298.17" r="9.309"/>
	<circle style="fill:#DF2C2C;" cx="204.702" cy="344.716" r="9.309"/>
	<circle style="fill:#DF2C2C;" cx="321.066" cy="344.716" r="9.309"/>
</g>
<path style="fill:#9C6144;" d="M255.902,368.002h-27.927v27.927c0,5.139,4.166,9.309,9.309,9.309h18.618V368.002z"/>
<g>
</g>
<g>
</g>
<g>
</g>
<g>
</g>
<g>
</g>
<g>
</g>
<g>
</g>
<g>
</g>
<g>
</g>
<g>
</g>
<g>
</g>
<g>
</g>
<g>
</g>
<g>
</g>
<g>
</g>
</svg>
