<?xml version="1.0" encoding="iso-8859-1"?>
<!-- Generator: Adobe Illustrator 19.0.0, SVG Export Plug-In . SVG Version: 6.00 Build 0)  -->
<svg version="1.1" id="Layer_1" xmlns="http://www.w3.org/2000/svg" xmlns:xlink="http://www.w3.org/1999/xlink" x="0px" y="0px"
	 viewBox="0 0 512 512" style="enable-background:new 0 0 512 512;" xml:space="preserve">
<circle style="fill:#25B7D3;" cx="256" cy="256" r="256"/>
<path style="fill:#C9F2F8;" d="M107.055,404.945c0-111.709,97.745-232.727,181.527-153.6c-27.927-4.655-93.091,41.891-51.2,97.745
	c4.655-27.927,41.891-51.2,65.164-37.236c-9.309,4.655-27.927,41.891,18.618,51.2c4.655-27.927,32.582-41.891,51.2-32.582
	c-9.309,9.309-13.964,46.545,32.582,55.855c0,13.964,0,18.618,0,18.618S139.636,404.945,107.055,404.945z"/>
<circle style="fill:#FACB1B;" cx="358.4" cy="172.218" r="46.545"/>
<path style="fill:#FBE158;" d="M358.4,125.673c-25.707,0-46.545,20.838-46.545,46.545c0,11.399,4.11,21.83,10.915,29.919
	l65.55-65.55C380.23,129.783,369.799,125.673,358.4,125.673z"/>
<g>
</g>
<g>
</g>
<g>
</g>
<g>
</g>
<g>
</g>
<g>
</g>
<g>
</g>
<g>
</g>
<g>
</g>
<g>
</g>
<g>
</g>
<g>
</g>
<g>
</g>
<g>
</g>
<g>
</g>
</svg>
