<?xml version="1.0" encoding="iso-8859-1"?>
<!-- Generator: Adobe Illustrator 19.0.0, SVG Export Plug-In . SVG Version: 6.00 Build 0)  -->
<svg version="1.1" id="Layer_1" xmlns="http://www.w3.org/2000/svg" xmlns:xlink="http://www.w3.org/1999/xlink" x="0px" y="0px"
	 viewBox="0 0 512 512" style="enable-background:new 0 0 512 512;" xml:space="preserve">
<circle style="fill:#FABC3D;" cx="256" cy="256" r="256"/>
<g>
	<path style="fill:#47C4B7;" d="M251.345,134.125v10.287c1.536-0.065,3.081-0.121,4.655-0.121c1.583,0,3.109,0.112,4.655,0.182
		V134.13c5.413-1.927,9.309-7.038,9.309-13.107c0-7.713-6.251-13.964-13.964-13.964c-7.713,0-13.964,6.251-13.964,13.964
		C242.036,127.088,245.932,132.203,251.345,134.125z"/>
	<path style="fill:#47C4B7;" d="M204.339,151.561l4.278,6.246c2.583-1.731,5.264-3.305,8.052-4.715l-4.655-6.791
		c3.379-4.645,3.705-11.064,0.275-16.077c-4.357-6.363-13.047-7.992-19.409-3.631c-6.363,4.357-7.987,13.047-3.631,19.409
		C192.68,151.012,198.786,153.032,204.339,151.561z"/>
	<path style="fill:#47C4B7;" d="M295.298,153.139c2.793,1.41,5.478,2.974,8.062,4.706l4.301-6.284
		c5.553,1.471,11.655-0.549,15.09-5.558c4.357-6.363,2.732-15.053-3.631-19.409c-6.363-4.361-15.053-2.732-19.409,3.631
		c-3.43,5.008-3.105,11.432,0.275,16.077L295.298,153.139z"/>
</g>
<g>
	<circle style="fill:#FBEC9A;" cx="256" cy="121.018" r="13.964"/>
	<circle style="fill:#FBEC9A;" cx="311.226" cy="138.114" r="13.964"/>
	<circle style="fill:#FBEC9A;" cx="200.751" cy="138.114" r="13.964"/>
</g>
<path style="fill:#12B2A0;" d="M342.993,327.913c-4.608,20.945-11.59,40.82-19.782,58.601c4.841,0.605,16.57,3.631,16.57,18.432
	h-46.545c-5.12,0-9.309-4.189-9.309-9.309v-55.855c-18.618,6.191-37.236,6.191-55.855,0v55.855c0,5.12-4.143,9.309-9.309,9.309
	c-5.632,0-46.545,0-46.545,0c0-14.801,11.729-17.827,16.57-18.432c-14.895-32.396-25.879-71.773-25.879-111.895
	c0-79.686,32.582-130.327,93.091-130.327c44.172,0,73.495,26.996,86.016,72.611c4.701,16.803,7.075,36.212,7.075,57.716
	C349.091,292.724,346.857,310.691,342.993,327.913z"/>
<g>
	<path style="fill:#099686;" d="M375.901,337.734c-6.191,3.817-14.01,3.724-20.061-0.279c-4.515-2.979-8.844-6.284-12.847-9.542
		c3.863-17.222,6.097-35.188,6.097-53.295c0-21.504-2.374-40.913-7.075-57.716c13.917,16.617,36.166,50.548,42.543,102.772
		C385.443,326.842,382.045,333.917,375.901,337.734z"/>
	<path style="fill:#099686;" d="M136.099,337.734c6.191,3.817,14.01,3.724,20.061-0.279c4.515-2.979,8.844-6.284,12.847-9.542
		c-3.863-17.222-6.097-35.188-6.097-53.295c0-21.504,2.374-40.913,7.075-57.716c-13.917,16.617-36.166,50.548-42.543,102.772
		C126.557,326.842,129.955,333.917,136.099,337.734z"/>
</g>
<path style="fill:#47C4B7;" d="M162.909,274.618c0,40.122,10.985,79.5,25.879,111.895c-4.841,0.605-16.57,3.631-16.57,18.432
	c0,0,40.913,0,46.545,0c5.167,0,9.309-4.189,9.309-9.309v-55.855c9.309,3.095,18.618,4.645,27.927,4.645V144.291
	C195.491,144.291,162.909,194.932,162.909,274.618z"/>
<circle style="fill:#F0F1F1;" cx="256" cy="218.764" r="37.236"/>
<path style="fill:#3E3E3F;" d="M267.636,214.109c-3.854,0-6.982-3.128-6.982-6.982c0-2.23,1.061-4.189,2.686-5.469
	c-2.253-0.968-4.729-1.513-7.34-1.513c-10.282,0-18.618,8.336-18.618,18.618s8.336,18.618,18.618,18.618
	c10.282,0,18.618-8.336,18.618-18.618c0-2.611-0.545-5.087-1.513-7.34C271.825,213.048,269.866,214.109,267.636,214.109z"/>
<g>
</g>
<g>
</g>
<g>
</g>
<g>
</g>
<g>
</g>
<g>
</g>
<g>
</g>
<g>
</g>
<g>
</g>
<g>
</g>
<g>
</g>
<g>
</g>
<g>
</g>
<g>
</g>
<g>
</g>
</svg>
