<?xml version="1.0" encoding="iso-8859-1"?>
<!-- Generator: Adobe Illustrator 19.0.0, SVG Export Plug-In . SVG Version: 6.00 Build 0)  -->
<svg version="1.1" id="Layer_1" xmlns="http://www.w3.org/2000/svg" xmlns:xlink="http://www.w3.org/1999/xlink" x="0px" y="0px"
	 viewBox="0 0 512 512" style="enable-background:new 0 0 512 512;" xml:space="preserve">
<circle style="fill:#25B7D3;" cx="256" cy="256" r="256"/>
<g>
	<path style="fill:#0C7367;" d="M158.059,293.236c-4.655,9.309,0,27.927,4.655,37.236c3.821-20.662,10.943-35.7,23.273-41.891
		c12.414-3.105,24.823,0,37.236,9.309c4.655-9.309-9.309-23.273-18.618-23.273c6.204-9.309,18.618-12.414,37.236-9.309
		c-9.309-9.309-24.823-12.414-46.545-9.309c-0.07-10.045,9.942-23.142,23.273-37.236c-18.036,0.88-35.226,10.449-51.2,32.582
		c-18.036-3.081-35.226-0.777-51.2,9.309c11.79-3.049,27.927,4.655,32.582,9.309c-31.218,9.477-38.572,32.517-37.236,60.509
		C120.823,311.855,136.336,299.441,158.059,293.236z"/>
	<path style="fill:#0C7367;" d="M251.15,246.691c0.433-25.954,8.671-46.415,32.582-55.855c-4.655-9.309-37.236-23.273-69.818-23.273
		c27.927-18.618,74.473-18.618,93.091-4.655c0-18.618-6.204-37.236-18.618-55.855c23.273,4.655,46.545,23.273,51.2,46.545
		c12.563-9.961,37.236-13.964,60.509-4.655c-24.213,8.453-30.538,15.9-37.236,27.927c32.54,6.121,38.693,26.591,37.236,51.2
		c-12.414-15.514-31.032-24.823-55.855-27.927c20.401,26.275,16.835,47.202,0,65.164c-6.707-29.691-17.031-48.393-32.582-51.2
		C293.041,209.455,260.459,232.727,251.15,246.691z"/>
</g>
<path style="fill:#84462D;" d="M279.775,368.393c4.571-88.376,30.78-128.307,41.533-150.03c-2.974-2.16-6.172-3.626-9.649-4.254
	c-1.587-0.396-3.3-0.526-5.064-0.54c-32.009,26.363-59.718,108.986-73.779,153.311C248.525,366.494,264.355,367.057,279.775,368.393
	z"/>
<path style="fill:#692E19;" d="M234.463,366.834c-11.357-45.843-22.789-66.918-34.025-79.034c-4.817-0.666-9.63-0.424-14.448,0.782
	c-1.927,0.968-3.686,2.225-5.367,3.612c14.001,30.52,20.01,57.344,22.514,76.642C213.406,367.695,223.902,367.048,234.463,366.834z"
	/>
<path style="fill:#F8E1C2;" d="M107.055,404.945h297.891C372.438,371.81,180.094,338.772,107.055,404.945z"/>
<path style="fill:#FCF1E2;" d="M107.055,404.945h89.2l64.875-37.786C202.771,364.567,141.582,373.662,107.055,404.945z"/>
<g>
</g>
<g>
</g>
<g>
</g>
<g>
</g>
<g>
</g>
<g>
</g>
<g>
</g>
<g>
</g>
<g>
</g>
<g>
</g>
<g>
</g>
<g>
</g>
<g>
</g>
<g>
</g>
<g>
</g>
</svg>
