<?xml version="1.0" encoding="iso-8859-1"?>
<!-- Generator: Adobe Illustrator 19.0.0, SVG Export Plug-In . SVG Version: 6.00 Build 0)  -->
<svg version="1.1" id="Layer_1" xmlns="http://www.w3.org/2000/svg" xmlns:xlink="http://www.w3.org/1999/xlink" x="0px" y="0px"
	 viewBox="0 0 512 512" style="enable-background:new 0 0 512 512;" xml:space="preserve">
<circle style="fill:#00C853;" cx="256" cy="256" r="256"/>
<path style="fill:#8F4D38;" d="M256.95,256c-1.829,0-3.486-1.066-4.24-2.728s-0.465-3.617,0.735-4.99l60.691-69.367l18.381-20.983
	c-22.942-20.066-52.959-32.261-85.825-32.261c-71.959,0-130.327,58.368-130.327,130.327s58.368,130.327,130.327,130.327
	S377.018,327.959,377.018,256H256.95z"/>
<path style="fill:#824E3E;" d="M116.364,256c0,24.427,6.74,47.272,18.441,66.816l178.707-178.707
	c-19.549-11.692-42.398-18.437-66.821-18.437C174.732,125.673,116.364,184.041,116.364,256z"/>
<path style="fill:#FFF59D;" d="M349.091,256c0,56.553-45.847,102.4-102.4,102.4s-102.4-45.847-102.4-102.4s45.847-102.4,102.4-102.4
	c25.833,0,49.431,9.546,67.444,25.316l-4.143,4.752l-18.153,20.759l-38.391,43.855c-1.206,1.373-1.489,3.323-0.735,4.99
	c0.754,1.662,2.411,2.728,4.24,2.728H349.091z"/>
<g>
	<path style="fill:#FFF9C4;" d="M144.291,256c0,16.654,3.998,32.372,11.059,46.271l137.602-137.602
		c-13.898-7.056-29.603-11.069-46.262-11.069C190.138,153.6,144.291,199.447,144.291,256z"/>
	<path style="fill:#FFF9C4;" d="M370.702,242.036h-81.171c-1.829,0-3.486-1.066-4.24-2.728c-0.754-1.662-0.465-3.617,0.735-4.99
		l53.462-61.1C358.609,190.008,370.702,214.607,370.702,242.036z"/>
</g>
<path style="fill:#8F4D38;" d="M395.636,242.036h-24.934c0-27.429-12.092-52.029-31.209-68.817l16.412-18.744
	C380.258,175.835,395.636,207.127,395.636,242.036z"/>
<circle style="fill:#212121;" cx="274.618" cy="172.218" r="9.309"/>
<circle style="fill:#D32F2F;" cx="223.418" cy="204.8" r="18.618"/>
<g>
	<circle style="fill:#212121;" cx="181.527" cy="228.073" r="9.309"/>
	<circle style="fill:#212121;" cx="223.418" cy="256" r="9.309"/>
	<circle style="fill:#212121;" cx="237.382" cy="321.164" r="9.309"/>
	<circle style="fill:#212121;" cx="311.855" cy="283.927" r="9.309"/>
</g>
<g>
	<circle style="fill:#D32F2F;" cx="283.927" cy="321.164" r="18.618"/>
	<circle style="fill:#D32F2F;" cx="190.836" cy="293.236" r="18.618"/>
	<path style="fill:#D32F2F;" d="M330.473,202.659c0,7.722-6.237,13.964-13.964,13.964c-4.329,0-8.192-1.955-10.705-5.027
		l18.153-20.759C327.862,193.308,330.473,197.683,330.473,202.659z"/>
	<path style="fill:#D32F2F;" d="M309.993,183.668l-18.153,20.759c-2.048-2.42-3.258-5.539-3.258-8.937
		c0-7.727,6.237-13.964,13.964-13.964C305.292,181.527,307.856,182.319,309.993,183.668z"/>
</g>
<g>
	<circle style="fill:#212121;" cx="358.4" cy="223.418" r="9.309"/>
	<path style="fill:#212121;" d="M283.927,172.218c0-5.139-4.17-9.309-9.309-9.309c-5.139,0-9.309,4.17-9.309,9.309
		c0,5.139,4.17,9.309,9.309,9.309c0.563,0,1.108-0.074,1.643-0.163l7.503-7.503C283.853,173.326,283.927,172.781,283.927,172.218z"
		/>
</g>
<g>
</g>
<g>
</g>
<g>
</g>
<g>
</g>
<g>
</g>
<g>
</g>
<g>
</g>
<g>
</g>
<g>
</g>
<g>
</g>
<g>
</g>
<g>
</g>
<g>
</g>
<g>
</g>
<g>
</g>
</svg>
