<?xml version="1.0" encoding="iso-8859-1"?>
<!-- Generator: Adobe Illustrator 19.0.0, SVG Export Plug-In . SVG Version: 6.00 Build 0)  -->
<svg version="1.1" id="Layer_1" xmlns="http://www.w3.org/2000/svg" xmlns:xlink="http://www.w3.org/1999/xlink" x="0px" y="0px"
	 viewBox="0 0 512 512" style="enable-background:new 0 0 512 512;" xml:space="preserve">
<circle style="fill:#32BEA6;" cx="256" cy="256" r="256"/>
<path style="fill:#FCF6C2;" d="M200.145,195.491c0,0,139.636,0,204.8,148.945c-55.855-9.309-55.855-9.309-55.855-9.309
	l-4.655,65.164c-31.292-76.837-78.834-140.888-144.291-190.836C200.145,209.455,201.681,196.557,200.145,195.491z"/>
<path style="fill:#FBE158;" d="M177.306,122.782c0.712-2.192,2.755-3.677,5.059-3.677c2.304,0,4.347,1.485,5.06,3.677l14.131,43.497
	c0.712,2.192,2.755,3.677,5.059,3.677h45.736c2.304,0,4.347,1.485,5.059,3.677s-0.07,4.594-1.932,5.949l-37.004,26.885
	c-1.866,1.354-2.644,3.756-1.932,5.949l14.131,43.497c0.712,2.192-0.07,4.594-1.932,5.949c-1.866,1.354-4.389,1.354-6.256,0
	l-37.004-26.885c-1.866-1.354-4.389-1.354-6.256,0l-37.004,26.885c-1.866,1.354-4.389,1.354-6.256,0
	c-1.866-1.354-2.644-3.756-1.932-5.949l14.131-43.497c0.712-2.192-0.07-4.594-1.932-5.949l-37.004-26.885
	c-1.866-1.354-2.644-3.756-1.932-5.949c0.712-2.192,2.755-3.677,5.059-3.677h45.736c2.304,0,4.347-1.485,5.059-3.677
	L177.306,122.782z"/>
<path style="fill:#FBEC9A;" d="M142.639,229.474l60.691-60.691c-0.801-0.633-1.443-1.48-1.773-2.499l-14.131-43.497
	c-0.712-2.192-2.755-3.677-5.059-3.677c-2.304,0-4.347,1.48-5.059,3.677l-14.131,43.497c-0.712,2.192-2.755,3.677-5.06,3.677
	h-45.736c-2.304,0-4.347,1.485-5.059,3.677c-0.712,2.192,0.065,4.594,1.932,5.949l37.004,26.885
	c1.866,1.354,2.644,3.756,1.932,5.949L142.639,229.474z"/>
<g>
</g>
<g>
</g>
<g>
</g>
<g>
</g>
<g>
</g>
<g>
</g>
<g>
</g>
<g>
</g>
<g>
</g>
<g>
</g>
<g>
</g>
<g>
</g>
<g>
</g>
<g>
</g>
<g>
</g>
</svg>
