<?xml version="1.0" encoding="iso-8859-1"?>
<!-- Generator: Adobe Illustrator 19.0.0, SVG Export Plug-In . SVG Version: 6.00 Build 0)  -->
<svg version="1.1" id="Layer_1" xmlns="http://www.w3.org/2000/svg" xmlns:xlink="http://www.w3.org/1999/xlink" x="0px" y="0px"
	 viewBox="0 0 512 512" style="enable-background:new 0 0 512 512;" xml:space="preserve">
<circle style="fill:#25B7D3;" cx="256" cy="256" r="256"/>
<path style="fill:#F0F1F1;" d="M283.927,256H116.364c-5.139,0-9.309,4.17-9.309,9.309v102.4c0,5.139,4.17,9.309,9.309,9.309h102.4
	L256,404.945v-27.927h27.927c5.139,0,9.309-4.17,9.309-9.309v-102.4C293.236,260.17,289.066,256,283.927,256z"/>
<path style="fill:#FFFFFF;" d="M116.364,256c-5.139,0-9.309,4.17-9.309,9.309v102.4c0,5.139,4.17,9.309,9.309,9.309h21.993
	L259.375,256H116.364z"/>
<path style="fill:#6FDAF1;" d="M395.636,107.055H209.455c-5.139,0-9.309,4.17-9.309,9.309v111.709c0,5.139,4.17,9.309,9.309,9.309
	h121.018v37.236l37.236-37.236h27.927c5.139,0,9.309-4.17,9.309-9.309V116.364C404.945,111.225,400.775,107.055,395.636,107.055z"/>
<g>
</g>
<g>
</g>
<g>
</g>
<g>
</g>
<g>
</g>
<g>
</g>
<g>
</g>
<g>
</g>
<g>
</g>
<g>
</g>
<g>
</g>
<g>
</g>
<g>
</g>
<g>
</g>
<g>
</g>
</svg>
