<?xml version="1.0" encoding="iso-8859-1"?>
<!-- Generator: Adobe Illustrator 19.0.0, SVG Export Plug-In . SVG Version: 6.00 Build 0)  -->
<svg version="1.1" id="Layer_1" xmlns="http://www.w3.org/2000/svg" xmlns:xlink="http://www.w3.org/1999/xlink" x="0px" y="0px"
	 viewBox="0 0 512 512" style="enable-background:new 0 0 512 512;" xml:space="preserve">
<circle style="fill:#25B7D3;" cx="256" cy="256" r="256"/>
<path style="fill:#F0F1F1;" d="M199.81,142.676c0.829-2.025,2.802-3.351,4.99-3.351c2.188,0,4.161,1.322,4.99,3.351l89.018,217.6
	c0.68,1.662,0.489,3.556-0.512,5.046c-1.001,1.494-2.681,2.388-4.478,2.388H115.782c-1.797,0-3.477-0.894-4.478-2.388
	c-1.001-1.489-1.196-3.384-0.512-5.046L199.81,142.676z"/>
<path style="fill:#FBE158;" d="M361.174,189.724c-14.387,0-26.051-11.664-26.051-26.051s11.664-26.051,26.051-26.051
	c1.778,0,3.51,0.182,5.185,0.526c-6.619-6.749-15.83-10.943-26.028-10.943c-20.14,0-36.473,16.328-36.473,36.473
	s16.333,36.468,36.478,36.468c10.198,0,19.405-4.194,26.024-10.943C364.684,189.542,362.952,189.724,361.174,189.724z"/>
<path style="fill:#FFFFFF;" d="M204.856,139.334c-0.019,0-0.037-0.009-0.056-0.009c-2.188,0-4.161,1.322-4.99,3.351l-89.018,217.6
	c-0.68,1.662-0.489,3.556,0.512,5.046c1.001,1.489,2.681,2.388,4.478,2.388h89.074V139.334z"/>
<path style="fill:#3E3E3F;" d="M228.641,332.386c0-13.005-10.543-23.547-23.547-23.547s-23.547,10.543-23.547,23.547v35.323h47.099
	v-35.323H228.641z"/>
<path style="fill:#84462D;" d="M401.608,359.671c0-1.708-0.721-3.337-1.992-4.487c-1.271-1.15-2.96-1.704-4.664-1.536l-53.858,5.385
	l-53.858-5.385c-1.699-0.172-3.393,0.386-4.664,1.536c-1.271,1.15-1.992,2.779-1.992,4.487v10.543c0,1.755,0.763,3.421,2.085,4.571
	c1.322,1.15,3.086,1.666,4.822,1.42l35.449-5.064l-12.684,16.915c-1.215,1.62-1.541,3.747-0.861,5.655
	c0.68,1.908,2.267,3.356,4.236,3.845l10.24,2.56c2.937,0.735,5.962-0.815,7.084-3.621l10.142-25.349l10.142,25.349
	c1.122,2.811,4.152,4.357,7.084,3.621l10.24-2.56c1.969-0.493,3.556-1.936,4.236-3.845c0.68-1.908,0.354-4.035-0.861-5.655
	l-12.684-16.915l35.449,5.064c1.736,0.247,3.496-0.27,4.822-1.42c1.327-1.15,2.085-2.816,2.085-4.571L401.608,359.671
	L401.608,359.671z"/>
<path style="fill:#F37A10;" d="M341.099,365.084c-9.351,0-31.414-6.428-31.414-32.144s37.404-38.572,28.053-70.721
	c14.029,12.861,18.702,45.005,14.029,51.433c9.351-6.428,9.351-25.716,9.351-32.144c4.678,6.428,21.039,28.933,4.678,51.433
	c4.678,0,14.029-12.856,14.029-12.856C384.498,326.512,386.821,365.084,341.099,365.084z"/>
<path style="fill:#FACB1B;" d="M343.482,359.033c5.008,0,13.48-3.44,13.48-14.876c0-11.436-13.48-13.759-13.48-27.48
	C329.761,321.252,319.279,359.033,343.482,359.033z"/>
<path style="fill:#F37A10;" d="M351.767,313.651c4.678-6.428,0-38.572-14.029-51.433c9.351,32.144-28.053,45.005-28.053,70.721
	c0,10.589,3.761,17.864,8.816,22.812l53.174-53.174c-2.476-9.891-8.108-17.701-10.557-21.071
	C361.118,287.935,361.118,307.223,351.767,313.651z"/>
<path style="fill:#FBE158;" d="M343.482,316.677c-8.164,2.723-15.118,17.175-14.364,28.458l17.878-17.878
	C345.014,324.468,343.482,321.224,343.482,316.677z"/>
<polygon style="fill:#DF2C2C;" points="162.89,232.918 246.71,232.918 240.091,216.744 169.509,216.744 "/>
<polygon style="fill:#FA5655;" points="204.856,216.744 169.509,216.744 167.526,221.594 162.895,232.918 204.856,232.918 "/>
<g>
</g>
<g>
</g>
<g>
</g>
<g>
</g>
<g>
</g>
<g>
</g>
<g>
</g>
<g>
</g>
<g>
</g>
<g>
</g>
<g>
</g>
<g>
</g>
<g>
</g>
<g>
</g>
<g>
</g>
</svg>
