<?xml version="1.0" encoding="iso-8859-1"?>
<!-- Generator: Adobe Illustrator 19.0.0, SVG Export Plug-In . SVG Version: 6.00 Build 0)  -->
<svg version="1.1" id="Layer_1" xmlns="http://www.w3.org/2000/svg" xmlns:xlink="http://www.w3.org/1999/xlink" x="0px" y="0px"
	 viewBox="0 0 512 512" style="enable-background:new 0 0 512 512;" xml:space="preserve">
<circle style="fill:#25B7D3;" cx="256" cy="256" r="256"/>
<path style="fill:#FBE158;" d="M306.162,226.276l83.172-119.222h15.611l-88.725,127.171
	C313.027,231.387,309.713,228.682,306.162,226.276z"/>
<path style="fill:#DF2C2C;" d="M272.868,211.907l73.155-104.853h43.311l-83.172,119.222
	C296.229,219.532,284.961,214.63,272.868,211.907z"/>
<path style="fill:#FBE158;" d="M259.109,209.846l71.717-102.791h15.197l-73.155,104.853
	C268.39,210.902,263.796,210.218,259.109,209.846z"/>
<circle style="fill:#F3B607;" cx="256" cy="307.2" r="97.745"/>
<circle style="fill:#FBE158;" cx="256" cy="307.2" r="72.145"/>
<g>
	<path style="fill:#FFFFFF;" d="M404.471,228.696c0.27-0.042,0.475-0.275,0.475-0.554v-0.144c0-0.275-0.2-0.512-0.475-0.554
		c-15.556-2.332-24.497-11.278-26.829-26.829c-0.042-0.27-0.275-0.47-0.554-0.47h-0.14c-0.275,0-0.512,0.2-0.554,0.475
		c-2.332,15.551-11.273,24.497-26.829,26.829c-0.275,0.042-0.475,0.275-0.475,0.554v0.14c0,0.275,0.2,0.512,0.475,0.554
		c15.556,2.332,24.497,11.278,26.829,26.829c0.042,0.275,0.275,0.475,0.554,0.475h0.2c0.242,0,0.447-0.177,0.484-0.414
		C379.951,239.998,388.897,231.033,404.471,228.696z"/>
	<path style="fill:#FFFFFF;" d="M171.664,373.09c0.317-0.047,0.554-0.321,0.554-0.642v-0.168c0-0.321-0.237-0.596-0.554-0.642
		c-18.148-2.723-28.579-13.158-31.302-31.302c-0.047-0.321-0.321-0.554-0.642-0.554h-0.163c-0.321,0-0.596,0.237-0.642,0.554
		c-2.723,18.143-13.154,28.579-31.302,31.302c-0.326,0.047-0.559,0.321-0.559,0.642v0.163c0,0.321,0.237,0.596,0.554,0.642
		c18.148,2.723,28.579,13.158,31.302,31.302c0.047,0.326,0.321,0.559,0.642,0.559h0.233c0.284,0,0.521-0.205,0.563-0.484
		C143.057,386.276,153.493,375.817,171.664,373.09z"/>
</g>
<path style="fill:#FACB1B;" d="M256,209.455c-53.983,0-97.745,43.762-97.745,97.745c0,27.369,11.278,52.08,29.407,69.823
	l138.161-138.161C308.08,220.732,283.369,209.455,256,209.455z"/>
<path style="fill:#FCF6C2;" d="M256,235.055c-39.848,0-72.145,32.298-72.145,72.145c0,20.298,8.415,38.609,21.909,51.721
	l101.958-101.958C294.609,243.47,276.298,235.055,256,235.055z"/>
<path style="fill:#F99134;" d="M249.647,281.502c-2.509,0.652-8.415,2.406-10.826,2.406c-4.813,0-8.955-4.008-8.955-8.82
	c0-4.143,2.672-7.615,6.814-8.82l13.233-3.877c3.877-1.071,6.814-1.736,9.626-1.736h0.265c5.618,0,10.161,4.543,10.161,10.156
	v75.385c0,5.613-4.543,10.156-10.161,10.156c-5.613,0-10.161-4.543-10.161-10.156v-64.694H249.647z"/>
<path style="fill:#FBE158;" d="M205.838,226.276l-83.172-119.222h-15.611l88.725,127.171
	C198.973,231.387,202.287,228.682,205.838,226.276z"/>
<path style="fill:#DF2C2C;" d="M239.132,211.907l-73.155-104.853h-43.311l83.172,119.222
	C215.771,219.532,227.039,214.63,239.132,211.907z"/>
<path style="fill:#FBE158;" d="M252.891,209.846l-71.717-102.791h-15.197l73.155,104.853
	C243.61,210.902,248.204,210.218,252.891,209.846z"/>
<g>
</g>
<g>
</g>
<g>
</g>
<g>
</g>
<g>
</g>
<g>
</g>
<g>
</g>
<g>
</g>
<g>
</g>
<g>
</g>
<g>
</g>
<g>
</g>
<g>
</g>
<g>
</g>
<g>
</g>
</svg>
