<?xml version="1.0" encoding="iso-8859-1"?>
<!-- Generator: Adobe Illustrator 19.0.0, SVG Export Plug-In . SVG Version: 6.00 Build 0)  -->
<svg version="1.1" id="Layer_1" xmlns="http://www.w3.org/2000/svg" xmlns:xlink="http://www.w3.org/1999/xlink" x="0px" y="0px"
	 viewBox="0 0 512 512" style="enable-background:new 0 0 512 512;" xml:space="preserve">
<circle style="fill:#E04F5F;" cx="256" cy="256" r="256"/>
<path style="fill:#E2E4E5;" d="M404.945,232.727c0,82.26-111.709,172.218-148.945,172.218s-148.945-89.958-148.945-172.218
	S173.74,107.055,256,107.055S404.945,150.467,404.945,232.727z"/>
<path style="fill:#3E3E3F;" d="M274.618,311.855c0,0-18.618-93.091,93.091-93.091C367.709,218.764,377.018,311.855,274.618,311.855z
	"/>
<path style="fill:#FFFFFF;" d="M107.055,232.727c0,82.246,111.709,172.218,148.945,172.218V107.055
	C173.708,107.055,107.055,150.481,107.055,232.727z M237.382,311.855c-102.4,0-93.091-93.091-93.091-93.091
	C256,218.764,237.382,311.855,237.382,311.855z"/>
<path style="fill:#3E3E3F;" d="M237.382,311.855c-102.4,0-93.091-93.091-93.091-93.091C256,218.764,237.382,311.855,237.382,311.855
	z"/>
<g>
</g>
<g>
</g>
<g>
</g>
<g>
</g>
<g>
</g>
<g>
</g>
<g>
</g>
<g>
</g>
<g>
</g>
<g>
</g>
<g>
</g>
<g>
</g>
<g>
</g>
<g>
</g>
<g>
</g>
</svg>
