<?xml version="1.0" encoding="iso-8859-1"?>
<!-- Generator: Adobe Illustrator 19.0.0, SVG Export Plug-In . SVG Version: 6.00 Build 0)  -->
<svg version="1.1" id="Layer_1" xmlns="http://www.w3.org/2000/svg" xmlns:xlink="http://www.w3.org/1999/xlink" x="0px" y="0px"
	 viewBox="0 0 512 512" style="enable-background:new 0 0 512 512;" xml:space="preserve">
<circle style="fill:#32BEA6;" cx="256" cy="256" r="256"/>
<path style="fill:#9CE5F4;" d="M289.052,273.901c1.704-13.624-4.245-27.127-15.448-35.053c-11.213-7.931-24.474-13.41-37.995-16.761
	c-8.294-2.057-14.136-9.505-14.136-18.05c0-6.097,0-13.759,0-22.509h-46.545v22.528c0,8.555-5.818,15.979-14.122,18.046
	c-13.596,3.384-26.82,8.825-38,16.728c-11.227,7.936-17.166,21.42-15.462,35.058c2.136,17.101,6.293,50.348,14.345,114.744
	c1.164,9.309,9.072,16.31,18.451,16.31h116.094c9.388,0,17.31-6.991,18.474-16.31L289.052,273.901z"/>
<path style="fill:#F99134;" d="M129.452,283.927l10.668,85.509c0.875,6.991,6.814,12.237,13.857,12.237h91.443
	c7.042,0,12.982-5.246,13.857-12.232l10.687-85.513H129.452z"/>
<g>
	<path style="fill:#3E3E3F;" d="M166.689,125.673c0-5.143,4.166-9.309,9.309-9.309h46.545c5.143,0,9.309,4.166,9.309,9.309v46.545
		c0,5.143-4.166,9.309-9.309,9.309h-46.545c-5.143,0-9.309-4.166-9.309-9.309V125.673z"/>
	<path style="fill:#3E3E3F;" d="M151.654,265.309c37.236-31.032,55.855-31.032,93.091,0l-9.309,83.782
		c-24.823,12.414-49.65,12.414-74.473,0L151.654,265.309z"/>
</g>
<polygon style="fill:#FACB1B;" points="218.261,269.964 222.129,277.802 230.782,279.059 224.521,285.161 225.997,293.781 
	218.261,289.713 210.52,293.781 212.001,285.161 205.74,279.059 214.388,277.802 "/>
<path style="fill:#9CE5F4;" d="M404.945,293.236v93.091c0,10.287-8.332,18.618-18.618,18.618h-93.091
	c-10.287,0-18.618-8.332-18.618-18.618v-93.091c0-10.287,8.332-18.618,18.618-18.618h93.091
	C396.614,274.618,404.945,282.95,404.945,293.236z"/>
<path style="fill:#C9F2F8;" d="M339.782,274.618h-46.545c-10.287,0-18.618,8.332-18.618,18.618v93.091
	c0,10.287,8.332,18.618,18.618,18.618h46.545V274.618z"/>
<rect x="296.31" y="322.745" transform="matrix(-0.7133 -0.7008 0.7008 -0.7133 300.338 805.5763)" style="fill:#FFFFFF;" width="37.235" height="37.235"/>
<path style="fill:#F99134;" d="M391.08,339.782H288.582v37.236c0,5.143,4.166,9.309,9.309,9.309h83.88
	c5.143,0,9.309-4.166,9.309-9.309L391.08,339.782L391.08,339.782z"/>
<polygon style="fill:#FACB1B;" points="341.239,341.146 339.852,339.782 290.378,339.782 288.582,341.616 315.145,367.709 "/>
<rect x="343.112" y="313.152" transform="matrix(-0.913 0.4079 -0.4079 -0.913 827.33 487.1295)" style="fill:#FFFFFF;" width="37.235" height="37.235"/>
<polygon style="fill:#FACB1B;" points="352.33,356.385 386.327,341.197 385.694,339.782 344.911,339.782 "/>
<polygon style="fill:#FBE158;" points="183.864,269.964 187.732,277.802 196.385,279.059 190.124,285.161 191.6,293.781 
	183.864,289.713 176.123,293.781 177.603,285.161 171.343,279.059 179.996,277.802 "/>
<path style="fill:#5B5C5F;" d="M200.145,116.364h-24.148c-5.143,0-9.309,4.17-9.309,9.309v46.545c0,5.139,4.166,9.309,9.309,9.309
	h24.148V116.364z"/>
<g>
</g>
<g>
</g>
<g>
</g>
<g>
</g>
<g>
</g>
<g>
</g>
<g>
</g>
<g>
</g>
<g>
</g>
<g>
</g>
<g>
</g>
<g>
</g>
<g>
</g>
<g>
</g>
<g>
</g>
</svg>
