<?xml version="1.0" encoding="iso-8859-1"?>
<!-- Generator: Adobe Illustrator 19.0.0, SVG Export Plug-In . SVG Version: 6.00 Build 0)  -->
<svg version="1.1" id="Layer_1" xmlns="http://www.w3.org/2000/svg" xmlns:xlink="http://www.w3.org/1999/xlink" x="0px" y="0px"
	 viewBox="0 0 512 512" style="enable-background:new 0 0 512 512;" xml:space="preserve">
<circle style="fill:#FABC3D;" cx="256" cy="256" r="256"/>
<path style="fill:#FFFFFF;" d="M218.764,256c0-5.143-4.166-9.309-9.309-9.309h-60.425c-2.979,0-5.776,1.424-7.526,3.835
	l-32.666,55.855c-1.159,1.587-1.783,3.505-1.783,5.474v37.236c0,5.143,4.166,9.309,9.309,9.309h102.4V256z"/>
<path style="fill:#E2E4E5;" d="M404.945,349.091c0,5.143-4.166,9.309-9.309,9.309H218.764v-46.545h186.182V349.091z"/>
<circle style="fill:#3E3E3F;" cx="162.909" cy="356.073" r="30.255"/>
<circle style="fill:#CFD3D4;" cx="162.909" cy="356.073" r="11.636"/>
<circle style="fill:#3E3E3F;" cx="337.455" cy="356.073" r="30.255"/>
<circle style="fill:#CFD3D4;" cx="337.455" cy="356.073" r="11.636"/>
<path style="fill:#FFFFFF;" d="M238.099,144.291H107.055v23.273c0,7.713,6.251,13.964,13.964,13.964h88.436l121.018,130.327h55.855
	v-14.843L238.099,144.291z"/>
<path style="fill:#21B2D1;" d="M404.945,311.855h-18.618v-14.843l-148.229-152.72H107.055v-9.309c0-5.143,4.166-9.309,9.309-9.309
	h125.673c2.518,0,4.929,1.019,6.679,2.825l153.6,158.255c1.685,1.741,2.63,4.063,2.63,6.484V311.855z"/>
<path style="fill:#40C9E7;" d="M200.145,265.309v37.236h-69.818l14.76-29.519c2.365-4.729,7.201-7.717,12.488-7.717H200.145z"/>
<path style="fill:#FA5655;" d="M158.255,232.727c0-5.143,4.166-9.309,9.309-9.309h9.309c5.143,0,9.309,4.166,9.309,9.309v13.964
	h-27.927V232.727z"/>
<path style="fill:#9CE5F4;" d="M157.575,265.309c-5.288,0-10.124,2.988-12.488,7.717l-14.76,29.519h19.046l37.236-37.236H157.575z"
	/>
<g>
</g>
<g>
</g>
<g>
</g>
<g>
</g>
<g>
</g>
<g>
</g>
<g>
</g>
<g>
</g>
<g>
</g>
<g>
</g>
<g>
</g>
<g>
</g>
<g>
</g>
<g>
</g>
<g>
</g>
</svg>
