<?xml version="1.0" encoding="iso-8859-1"?>
<!-- Generator: Adobe Illustrator 19.0.0, SVG Export Plug-In . SVG Version: 6.00 Build 0)  -->
<svg version="1.1" id="Layer_1" xmlns="http://www.w3.org/2000/svg" xmlns:xlink="http://www.w3.org/1999/xlink" x="0px" y="0px"
	 viewBox="0 0 512 512" style="enable-background:new 0 0 512 512;" xml:space="preserve">
<circle style="fill:#25B7D3;" cx="256" cy="256" r="256"/>
<circle style="fill:#F37A10;" cx="254.869" cy="256" r="93.091"/>
<path style="fill:#F0F1F1;" d="M347.373,244.68c-14.15,18.013-30.627,36.585-48.966,54.877
	c-18.292,18.292-36.817,34.769-54.784,48.919c-59.02,46.499-111.942,68.282-130.141,50.036
	c-18.153-18.106,3.351-70.563,49.338-129.257c0.977,6.796,2.653,13.405,5.027,19.642c-17.129,26.112-24.111,46.778-16.431,54.458
	c7.075,7.075,25.041,1.722,48.175-12.474c21.132-12.94,46.499-33.327,71.68-58.508s45.568-50.548,58.508-71.68
	c14.196-23.087,19.549-41.1,12.474-48.175c-7.68-7.68-28.346-0.698-54.412,16.431c-6.237-2.327-12.847-4.049-19.642-5.027
	c58.647-45.987,111.057-67.444,129.21-49.338C415.609,132.831,393.826,185.707,347.373,244.68z"/>
<g>
	<path style="fill:#FFFFFF;" d="M268.2,163.924c6.796,0.977,13.405,2.7,19.642,5.027c26.065-17.129,46.732-24.111,54.412-16.431
		c0.87,0.87,1.55,1.908,2.048,3.1l45.615-45.615C367.262,101.72,320.209,123.141,268.2,163.924z"/>
	<path style="fill:#FFFFFF;" d="M151.417,343.356c-7.68-7.68-0.698-28.346,16.431-54.458c-2.374-6.237-4.049-12.847-5.027-19.642
		c-40.783,52.052-62.245,99.146-53.932,121.777l45.629-45.629C153.325,344.906,152.287,344.227,151.417,343.356z"/>
</g>
<path style="fill:#F99134;" d="M254.869,162.909c-51.414,0-93.091,41.677-93.091,93.091c0,22.919,8.318,43.869,22.053,60.09
	l131.128-131.128C298.743,171.227,277.788,162.909,254.869,162.909z"/>
<g>
</g>
<g>
</g>
<g>
</g>
<g>
</g>
<g>
</g>
<g>
</g>
<g>
</g>
<g>
</g>
<g>
</g>
<g>
</g>
<g>
</g>
<g>
</g>
<g>
</g>
<g>
</g>
<g>
</g>
</svg>
