<?xml version="1.0" encoding="iso-8859-1"?>
<!-- Generator: Adobe Illustrator 19.0.0, SVG Export Plug-In . SVG Version: 6.00 Build 0)  -->
<svg version="1.1" id="Layer_1" xmlns="http://www.w3.org/2000/svg" xmlns:xlink="http://www.w3.org/1999/xlink" x="0px" y="0px"
	 viewBox="0 0 512 512" style="enable-background:new 0 0 512 512;" xml:space="preserve">
<circle style="fill:#FABC3D;" cx="256" cy="256" r="256"/>
<path style="fill:#FCF1E2;" d="M223.483,316.844c-4.785-5.399-5.288-14.867-9.374-18.953c-3.551-3.551-11.152-4.399-16.631-7.699
	l-45.191,43.343c-10.012-12.083-27.08-12.079-37.348-2.23c-10.203,9.789-10.543,25.991-0.754,36.198
	c5.823,6.07,13.917,8.564,21.667,7.596c-1.294,7.703,0.861,15.895,6.684,21.965c9.789,10.203,25.991,10.543,36.198,0.754
	c10.245-9.83,11.013-26.885-0.67-37.409L223.483,316.844z"/>
<path style="fill:#9C6144;" d="M404.945,200.145c0,83.782-83.838,67.863-125.673,97.745c-65.164,46.545-55.855,9.309-65.164,0
	s-46.545,0,0-65.164c29.882-41.835,13.964-125.673,97.745-125.673C363.269,107.055,404.945,148.731,404.945,200.145z"/>
<path style="fill:#FFFFFF;" d="M152.283,333.535c-10.012-12.083-27.08-12.079-37.348-2.23c-10.203,9.789-10.543,25.991-0.754,36.198
	c5.823,6.07,13.917,8.564,21.667,7.596c-0.014,0.074-0.014,0.154-0.023,0.228l77.815-77.819c-3.705-3.216-10.896-4.147-16.161-7.317
	L152.283,333.535z"/>
<path style="fill:#AF7653;" d="M311.855,107.055c-83.782,0-67.863,83.838-97.745,125.673c-45.847,64.186-10.426,56.129-0.456,64.768
	l163.584-163.584C360.425,117.318,337.343,107.055,311.855,107.055z"/>
<g>
</g>
<g>
</g>
<g>
</g>
<g>
</g>
<g>
</g>
<g>
</g>
<g>
</g>
<g>
</g>
<g>
</g>
<g>
</g>
<g>
</g>
<g>
</g>
<g>
</g>
<g>
</g>
<g>
</g>
</svg>
