<?xml version="1.0" encoding="iso-8859-1"?>
<!-- Generator: Adobe Illustrator 19.0.0, SVG Export Plug-In . SVG Version: 6.00 Build 0)  -->
<svg version="1.1" id="Layer_1" xmlns="http://www.w3.org/2000/svg" xmlns:xlink="http://www.w3.org/1999/xlink" x="0px" y="0px"
	 viewBox="0 0 512 512" style="enable-background:new 0 0 512 512;" xml:space="preserve">
<circle style="fill:#FABC3D;" cx="256" cy="256" r="256"/>
<path style="fill:#FFFFFF;" d="M256,349.091c-34.667,0-68.682-16.784-101.562-49.906c3.672,21.793,22.049,96.451,101.562,96.451
	c79.765,0,101.418-78.541,105.989-101.046C327.736,330.743,292.226,349.091,256,349.091z"/>
<path style="fill:#84462D;" d="M107.055,283.927v80.165c0,2.29,1.666,4.24,3.928,4.599c2.262,0.358,4.45-0.982,5.157-3.16
	c14.28-43.981,44.479-124.5,84.005-160.731l-13.964-13.964C186.182,190.836,139.636,223.418,107.055,283.927z"/>
<path style="fill:#099686;" d="M125.673,218.764c24.823-15.514,43.441-18.618,55.855-9.309c7.182,2.788,15.104,17.976,23.273,37.236
	c4.813-11.469,7.629-23.971,0-41.891c20.238-0.442,34.634,9.258,46.545,23.273c2.109-17.282-2.593-33.35-23.273-46.545
	c3.105-12.414,12.414-24.823,27.927-37.236c-13.847-0.81-28.104,0.112-46.545,18.618c-3.105-15.514-12.414-24.823-27.927-27.927
	c4.655,9.309,4.655,18.618,0,23.273c-30.194-17.664-51.2-13.964-74.473-4.655c19.54,1.443,37.72,7.196,51.2,27.927
	C144.291,186.182,125.673,204.8,125.673,218.764z"/>
<path style="fill:#84462D;" d="M404.945,283.927v80.165c0,2.29-1.666,4.24-3.928,4.599s-4.45-0.982-5.157-3.16
	c-14.28-43.981-44.479-124.5-84.005-160.731l13.964-13.964C325.818,190.836,372.364,223.418,404.945,283.927z"/>
<path style="fill:#099686;" d="M386.327,218.764c-24.823-15.514-43.441-18.618-55.855-9.309
	c-7.182,2.788-15.104,17.976-23.273,37.236c-4.813-11.469-7.629-23.971,0-41.891c-20.238-0.442-34.634,9.258-46.545,23.273
	c-2.109-17.282,2.593-33.35,23.273-46.545c-3.105-12.414-12.414-24.823-27.927-37.236c13.847-0.81,28.104,0.112,46.545,18.618
	c3.105-15.514,12.414-24.823,27.927-27.927c-4.655,9.309-4.655,18.618,0,23.273c30.194-17.664,51.2-13.964,74.473-4.655
	c-19.54,1.443-37.72,7.196-51.2,27.927C367.709,186.182,386.327,204.8,386.327,218.764z"/>
<path style="fill:#F8E1C2;" d="M256,349.091c-46.955,0-92.719-30.692-136.076-91.238c-0.726-1.01-1.015-2.267-0.805-3.496
	c0.209-1.229,0.898-2.318,1.918-3.03c2.095-1.466,4.966-0.973,6.456,1.103c41.505,57.972,84.727,87.352,128.507,87.352
	s87.003-29.384,128.507-87.347c1.485-2.076,4.361-2.565,6.451-1.103c1.019,0.712,1.713,1.806,1.922,3.03
	c0.209,1.224-0.079,2.486-0.805,3.496C348.719,318.403,302.955,349.091,256,349.091z"/>
<path style="fill:#12B2A0;" d="M181.527,134.982c4.655,9.309,4.655,18.618,0,23.273c-30.194-17.664-51.2-13.964-74.473-4.655
	c19.54,1.443,37.72,7.196,51.2,27.927c-13.964,4.655-32.582,23.273-32.582,37.236c13.065-8.164,24.394-12.856,34.02-14.145
	l47.993-47.998C203.501,144.873,194.807,137.635,181.527,134.982z"/>
<g>
</g>
<g>
</g>
<g>
</g>
<g>
</g>
<g>
</g>
<g>
</g>
<g>
</g>
<g>
</g>
<g>
</g>
<g>
</g>
<g>
</g>
<g>
</g>
<g>
</g>
<g>
</g>
<g>
</g>
</svg>
