<?xml version="1.0" encoding="iso-8859-1"?>
<!-- Generator: Adobe Illustrator 19.0.0, SVG Export Plug-In . SVG Version: 6.00 Build 0)  -->
<svg version="1.1" id="Layer_1" xmlns="http://www.w3.org/2000/svg" xmlns:xlink="http://www.w3.org/1999/xlink" x="0px" y="0px"
	 viewBox="0 0 512 512" style="enable-background:new 0 0 512 512;" xml:space="preserve">
<circle style="fill:#E04F5F;" cx="256" cy="256" r="256"/>
<path style="fill:#FBEC9A;" d="M256,260.655c-7.489,0-14.843-0.317-22.039-0.889l-89.67,145.18H256h111.709l-89.67-145.18
	C270.843,260.338,263.489,260.655,256,260.655z"/>
<path style="fill:#CFD3D4;" d="M404.945,204.8c0,18.618-66.686,55.855-148.945,55.855S107.055,223.418,107.055,204.8
	S173.74,148.945,256,148.945S404.945,186.182,404.945,204.8z"/>
<path style="fill:#E2E4E5;" d="M107.055,204.8c0,18.618,66.686,55.855,148.945,55.855V148.945
	C173.74,148.945,107.055,186.182,107.055,204.8z"/>
<path style="fill:#3E3E3F;" d="M404.862,205.591c0.023-0.265,0.084-0.535,0.084-0.791c0-18.618-66.686-55.855-148.945-55.855
	S107.055,186.182,107.055,204.8c0,0.256,0.061,0.526,0.084,0.791C121.014,212.368,166.349,230.4,256,230.4
	S390.986,212.368,404.862,205.591z"/>
<path style="fill:#F37A10;" d="M287.916,332.73c-1.322-2.206-4.18-2.918-6.386-1.596l-16.221,9.737v-0.056
	c3.398-3.063,5.334-7.717,4.436-12.833c-0.991-5.641-5.604-10.277-11.245-11.259c-8.811-1.527-16.463,5.218-16.463,13.75
	c0,4.119,1.815,7.782,4.655,10.342v0.056l-16.226-9.733c-2.202-1.322-5.064-0.61-6.386,1.597c-1.322,2.206-0.61,5.064,1.596,6.386
	l21.015,12.604v14.057l-17.254,17.254c-1.82,1.82-1.82,4.762,0,6.582c1.815,1.82,4.766,1.82,6.582,0l15.346-15.346
	c1.224-1.224,2.881-1.908,4.608-1.908h0.056c1.727,0,3.388,0.689,4.608,1.908l15.346,15.346c1.815,1.82,4.766,1.82,6.582,0
	c1.82-1.82,1.82-4.762,0-6.582l-17.254-17.254v-14.057l21.011-12.604C288.526,337.794,289.243,334.936,287.916,332.73z"/>
<path style="fill:#5B5C5F;" d="M107.055,204.8c0,0.256,0.061,0.526,0.084,0.791C121.014,212.368,166.349,230.4,256,230.4v-81.455
	C173.74,148.945,107.055,186.182,107.055,204.8z"/>
<g>
	<circle style="fill:#FACB1B;" cx="158.255" cy="195.491" r="9.309"/>
	<circle style="fill:#FACB1B;" cx="204.8" cy="204.8" r="9.309"/>
</g>
<g>
	<circle style="fill:#F3B607;" cx="353.745" cy="195.491" r="9.309"/>
	<circle style="fill:#F3B607;" cx="307.2" cy="204.8" r="9.309"/>
</g>
<path style="fill:#40C9E7;" d="M256,107.055c-31.246,0-56.948,23.687-60.16,54.081c16.282,15.486,35.919,20.392,60.16,20.392
	c22.09,0,44.651-3.249,60.388-16.37C315.117,132.864,288.605,107.055,256,107.055z"/>
<path style="fill:#6FDAF1;" d="M195.84,161.136c16.282,15.486,35.919,20.392,60.16,20.392v-74.473
	C224.754,107.055,199.052,130.742,195.84,161.136z"/>
<g>
</g>
<g>
</g>
<g>
</g>
<g>
</g>
<g>
</g>
<g>
</g>
<g>
</g>
<g>
</g>
<g>
</g>
<g>
</g>
<g>
</g>
<g>
</g>
<g>
</g>
<g>
</g>
<g>
</g>
</svg>
