<?xml version="1.0" encoding="iso-8859-1"?>
<!-- Generator: Adobe Illustrator 19.0.0, SVG Export Plug-In . SVG Version: 6.00 Build 0)  -->
<svg version="1.1" id="Layer_1" xmlns="http://www.w3.org/2000/svg" xmlns:xlink="http://www.w3.org/1999/xlink" x="0px" y="0px"
	 viewBox="0 0 512 512" style="enable-background:new 0 0 512 512;" xml:space="preserve">
<circle style="fill:#FABC3D;" cx="256" cy="256" r="256"/>
<path style="fill:#DF2C2C;" d="M343.636,251.778c-1.783-0.493-3.123-1.983-3.379-3.826c-5.008-36.054-28.598-46.145-62.897-41.263
	c-1.834,0.261-3.649-0.591-4.617-2.169c-0.019-0.033-0.028-0.074-0.047-0.107c-41.151,23.761-70.763,96.084-94.078,126.059
	c-26.764,34.411-53.527,34.276-67.393,35.71c-1.671,0.172-3.114,1.233-3.784,2.769s-0.461,3.319,0.549,4.655
	c7.903,10.505,33.503,31.339,75.283,31.339C242.618,404.945,330.766,313.307,343.636,251.778z"/>
<path style="fill:#099686;" d="M400.091,114.497c-4.049-7.08-12.991-9.407-20.145-5.497c-28.751,15.704-52.252,49.766-61.556,68.022
	c-15.495-2.039-32.689,3.994-45.503,22.402c-1.057,1.522-1.112,3.523-0.144,5.101c0.968,1.578,2.783,2.425,4.617,2.164
	c34.304-4.883,57.893,5.208,62.897,41.263c0.265,1.899,1.662,3.44,3.528,3.887c1.862,0.447,3.812-0.293,4.906-1.866
	c16.668-23.948,9.304-50.679-9.072-64.303c11.259-15.639,34.462-39.308,54.975-51.028
	C401.678,130.593,404.14,121.577,400.091,114.497z"/>
<path style="fill:#12B2A0;" d="M339.619,185.67c11.259-15.639,34.462-39.308,54.975-51.028c7.08-4.049,9.542-13.065,5.497-20.145
	c-4.049-7.08-12.991-9.407-20.145-5.497c-28.751,15.704-52.252,49.766-61.556,68.022c-15.495-2.039-32.689,3.994-45.503,22.402
	c-1.057,1.522-1.112,3.523-0.144,5.101c0.968,1.578,2.783,2.425,4.617,2.164c20.503-2.918,37.129-0.424,48.3,9.695l22.467-22.467
	C345.665,190.836,342.821,188.044,339.619,185.67z"/>
<path style="fill:#FA5655;" d="M277.36,206.69c-1.834,0.261-3.649-0.586-4.617-2.164c-0.019-0.033-0.028-0.074-0.047-0.107
	c-41.151,23.757-70.763,96.079-94.078,126.054c-26.764,34.411-53.527,34.271-67.393,35.705c-1.671,0.172-3.114,1.233-3.784,2.774
	c-0.67,1.536-0.461,3.314,0.549,4.655c5.008,6.651,17.147,17.445,35.98,24.464L325.66,216.39
	C314.494,206.262,297.863,203.771,277.36,206.69z"/>
<g>
</g>
<g>
</g>
<g>
</g>
<g>
</g>
<g>
</g>
<g>
</g>
<g>
</g>
<g>
</g>
<g>
</g>
<g>
</g>
<g>
</g>
<g>
</g>
<g>
</g>
<g>
</g>
<g>
</g>
</svg>
