<?xml version="1.0" encoding="iso-8859-1"?>
<!-- Generator: Adobe Illustrator 19.0.0, SVG Export Plug-In . SVG Version: 6.00 Build 0)  -->
<svg version="1.1" id="Layer_1" xmlns="http://www.w3.org/2000/svg" xmlns:xlink="http://www.w3.org/1999/xlink" x="0px" y="0px"
	 viewBox="0 0 512 512" style="enable-background:new 0 0 512 512;" xml:space="preserve">
<circle style="fill:#32BEA6;" cx="256" cy="256" r="256"/>
<path style="fill:#FFFFFF;" d="M330.473,232.401c0,3.114-1.555,6.018-4.147,7.745l-51.707,53.09h-37.236l-51.707-53.09
	c-2.593-1.727-4.147-4.636-4.147-7.745V125.673c0-10.282,8.336-18.618,18.618-18.618h111.709c10.282,0,18.618,8.336,18.618,18.618
	V232.401z"/>
<polygon style="fill:#DF2C2C;" points="293.236,107.055 218.764,107.055 218.764,274.12 237.382,293.236 274.618,293.236 
	293.236,274.12 "/>
<polygon style="fill:#FA5655;" points="256,107.055 218.764,107.055 218.764,274.12 237.382,293.236 256,293.236 "/>
<path style="fill:#FACB1B;" d="M251.825,232.797c0.782-1.587,2.402-2.593,4.175-2.593c1.773,0,3.389,1.005,4.175,2.593
	l24.711,50.069c0.68,1.373,1.987,2.327,3.505,2.546l55.254,8.029c1.755,0.256,3.212,1.485,3.756,3.17s0.093,3.533-1.178,4.771
	l-39.983,38.973c-1.098,1.071-1.597,2.611-1.341,4.119l9.439,55.031c0.298,1.745-0.419,3.51-1.853,4.552
	c-1.434,1.043-3.333,1.178-4.901,0.354l-49.422-25.982c-1.354-0.712-2.974-0.712-4.333,0l-49.422,25.982
	c-1.569,0.824-3.468,0.689-4.901-0.354c-1.434-1.043-2.15-2.807-1.852-4.552l9.439-55.031c0.261-1.508-0.242-3.049-1.34-4.119
	l-39.983-38.973c-1.271-1.238-1.727-3.086-1.178-4.771c0.549-1.685,2.006-2.914,3.756-3.17l55.254-8.029
	c1.517-0.219,2.825-1.173,3.505-2.546L251.825,232.797z"/>
<path style="fill:#FBE158;" d="M200.918,380.5l94.12-94.12l-6.651-0.968c-1.517-0.219-2.825-1.173-3.505-2.546l-24.711-50.069
	c-0.782-1.587-2.402-2.593-4.175-2.593c-1.769,0-3.389,1.005-4.17,2.593l-24.711,50.069c-0.68,1.373-1.987,2.327-3.505,2.546
	l-55.254,8.029c-1.755,0.256-3.212,1.485-3.761,3.165c-0.549,1.685-0.093,3.537,1.178,4.771l39.983,38.973
	c1.094,1.071,1.597,2.611,1.34,4.119L200.918,380.5z"/>
<g>
</g>
<g>
</g>
<g>
</g>
<g>
</g>
<g>
</g>
<g>
</g>
<g>
</g>
<g>
</g>
<g>
</g>
<g>
</g>
<g>
</g>
<g>
</g>
<g>
</g>
<g>
</g>
<g>
</g>
</svg>
