<?xml version="1.0" encoding="iso-8859-1"?>
<!-- Generator: Adobe Illustrator 19.0.0, SVG Export Plug-In . SVG Version: 6.00 Build 0)  -->
<svg version="1.1" id="Layer_1" xmlns="http://www.w3.org/2000/svg" xmlns:xlink="http://www.w3.org/1999/xlink" x="0px" y="0px"
	 viewBox="0 0 512 512" style="enable-background:new 0 0 512 512;" xml:space="preserve">
<circle style="fill:#32BEA6;" cx="256" cy="256" r="256"/>
<path style="fill:#F0F1F1;" d="M279.273,293.395h-18.618c0-5.153,4.157-9.309,9.309-9.309
	C275.116,284.086,279.273,288.242,279.273,293.395z"/>
<path style="fill:#3E3E3F;" d="M316.509,293.395c5.143,0,9.309,4.166,9.309,9.309v4.655H214.109v-4.655
	c0-5.143,4.166-9.309,9.309-9.309H316.509z"/>
<path style="fill:#FACB1B;" d="M144.291,121.488v180.168c158.711-104.401,228.468-54.505,228.785-17.631
	c0.256,29.747-16.268,38.814-28.639,41.318v28.127c29.566-3.975,56.916-28.388,56.562-69.688
	C400.165,185.856,309.9,232.415,144.291,121.488z"/>
<path style="fill:#84462D;" d="M344.436,316.667c0-5.143-4.166-9.309-9.309-9.309H204.8c-5.143,0-9.309,4.166-9.309,9.309v65.164
	h148.945V316.667z"/>
<path style="fill:#692E19;" d="M378.941,405.104c-5.53-13.642-18.883-23.273-34.504-23.273H195.491
	c-15.621,0-28.979,9.63-34.504,23.273H378.941z"/>
<rect x="125.673" y="107.213" style="fill:#F3B607;" width="18.618" height="204.8"/>
<rect x="125.673" y="107.213" style="fill:#FBEC9A;" width="18.618" height="102.4"/>
<path style="fill:#FBE158;" d="M340.564,209.613c-43.371-15.099-109.447-29.966-196.273-88.125v88.125H340.564z"/>
<g>
</g>
<g>
</g>
<g>
</g>
<g>
</g>
<g>
</g>
<g>
</g>
<g>
</g>
<g>
</g>
<g>
</g>
<g>
</g>
<g>
</g>
<g>
</g>
<g>
</g>
<g>
</g>
<g>
</g>
</svg>
