<?xml version="1.0" encoding="iso-8859-1"?>
<!-- Generator: Adobe Illustrator 19.0.0, SVG Export Plug-In . SVG Version: 6.00 Build 0)  -->
<svg version="1.1" id="Layer_1" xmlns="http://www.w3.org/2000/svg" xmlns:xlink="http://www.w3.org/1999/xlink" x="0px" y="0px"
	 viewBox="0 0 512 512" style="enable-background:new 0 0 512 512;" xml:space="preserve">
<circle style="fill:#E04F5F;" cx="256" cy="256" r="256"/>
<path style="fill:#FACB1B;" d="M303.835,391.042c-0.712,7.647-7.573,13.903-15.253,13.903h-93.091
	c-7.68,0-14.541-6.256-15.253-13.903L158.255,153.6h167.564L303.835,391.042z"/>
<path style="fill:#FBE158;" d="M195.491,404.945h46.545V153.6h-83.782l21.988,237.442
	C180.945,398.69,187.811,404.945,195.491,404.945z"/>
<path style="fill:#FFFFFF;" d="M344.436,144.291c0,10.287-8.332,18.618-18.618,18.618c-107.055,0-60.509,41.798-97.745,41.798
	c0,0.047,0,0.047,0,0.093c0,12.847-10.426,23.273-23.273,23.273c-7.708,0-13.745-3.779-15.407-5.865
	c-3.305,8.844-11.823,15.174-21.83,15.174c-14.611,0-23.087-12.954-23.087-20.62c-2.565,1.173-6.018,2.001-9.495,2.001
	c-12.414,0-22.807-7.68-22.807-27.974c4.701-47.057,44.358-83.735,92.625-83.735c51.2,0,48.151,18.618,121.018,18.618
	C336.105,125.673,344.436,134.004,344.436,144.291z"/>
<g>
</g>
<g>
</g>
<g>
</g>
<g>
</g>
<g>
</g>
<g>
</g>
<g>
</g>
<g>
</g>
<g>
</g>
<g>
</g>
<g>
</g>
<g>
</g>
<g>
</g>
<g>
</g>
<g>
</g>
</svg>
