<?xml version="1.0" encoding="iso-8859-1"?>
<!-- Generator: Adobe Illustrator 19.0.0, SVG Export Plug-In . SVG Version: 6.00 Build 0)  -->
<svg version="1.1" id="Layer_1" xmlns="http://www.w3.org/2000/svg" xmlns:xlink="http://www.w3.org/1999/xlink" x="0px" y="0px"
	 viewBox="0 0 512 512" style="enable-background:new 0 0 512 512;" xml:space="preserve">
<circle style="fill:#E04F5F;" cx="256" cy="256" r="256"/>
<path style="fill:#F0F1F1;" d="M216.879,114.143c-0.847-1.438-0.884-3.24-0.093-4.71c0.791-1.471,2.281-2.378,3.896-2.378h70.637
	c1.615,0,3.105,0.912,3.891,2.383c0.787,1.471,0.754,3.272-0.088,4.71c-5.246,8.895-12.358,27.462-12.358,62.729
	c0,65.159,80.291,65.159,80.291,139.632c0,51.2-40.145,88.436-107.055,88.436s-107.055-41.891-107.055-88.436
	c0-74.473,80.291-74.473,80.291-139.636C229.236,141.605,222.124,123.038,216.879,114.143z"/>
<path style="fill:#FFFFFF;" d="M220.681,107.055c-1.615,0-3.105,0.908-3.896,2.378c-0.787,1.471-0.754,3.272,0.093,4.71
	c5.246,8.899,12.358,27.462,12.358,62.729c0,65.164-80.291,65.164-80.291,139.636c0,46.545,40.145,88.436,107.055,88.436V107.055
	H220.681z"/>
<rect x="107.055" y="144.291" style="fill:#3E3E3F;" width="37.236" height="74.473"/>
<rect x="144.291" y="144.291" style="fill:#FFFFFF;" width="18.618" height="74.473"/>
<circle style="fill:#F3B607;" cx="153.6" cy="204.8" r="4.655"/>
<g>
	<path style="fill:#F7B4B4;" d="M260.655,134.982c0,5.12-4.189,9.309-9.309,9.309h-24.73c1.536,8.797,2.621,19.549,2.621,32.582
		c0,17.743-6.544,31.274-14.057,40.681l-52.271-8.099v-51.2l31.325-23.18c6.796-6.051,15.593-9.402,24.716-9.402h32.396
		C256.465,125.673,260.655,129.862,260.655,134.982z"/>
	<path style="fill:#F7B4B4;" d="M260.655,139.636h-13.964c-5.139,0-9.309,4.17-9.309,9.309s4.17,9.309,9.309,9.309
		c-5.139,0-9.309,4.17-9.309,9.309c0,5.139,4.17,9.309,9.309,9.309c-5.139,0-9.309,4.17-9.309,9.309c0,5.139,4.17,9.309,9.309,9.309
		c-5.139,0-9.309,4.17-9.309,9.309c0,5.139,4.17,9.309,9.309,9.309h37.236c5.143,0,9.309-4.166,9.309-9.309v-55.855
		c0-5.143-4.166-9.309-9.309-9.309H260.655z"/>
</g>
<path style="fill:#3E3E3F;" d="M256.177,263.135c2.998,0,5.371,2.374,5.371,5.371v2.746c7.368,0.875,13.61,3.244,19.354,6.87
	c1.997,1.122,3.747,2.998,3.747,5.99c0,3.873-3.119,6.87-6.991,6.87c-1.252,0-2.499-0.372-3.747-1.122
	c-4.371-2.621-8.616-4.496-12.861-5.497v23.971c18.981,4.748,27.094,12.362,27.094,25.721c0,13.736-10.738,22.849-26.591,24.343
	v7.494c0,2.997-2.374,5.367-5.371,5.367c-2.998,0-5.492-2.374-5.492-5.367v-7.745c-9.365-0.996-17.981-4.366-25.595-9.737
	c-2.122-1.373-3.37-3.375-3.37-5.995c0-3.868,2.998-6.865,6.865-6.865c1.499,0,2.998,0.498,4.119,1.373
	c5.869,4.245,11.613,7.117,18.479,8.364v-24.595c-18.232-4.748-26.722-11.613-26.722-25.721c0-13.359,10.612-22.598,26.219-23.85
	v-2.621C250.685,265.505,253.179,263.135,256.177,263.135z M251.183,305.711v-22.1c-7.992,0.749-11.985,4.994-11.985,10.487
	C239.197,299.343,241.571,302.592,251.183,305.711z M261.046,323.067v22.724c7.992-0.875,12.362-4.869,12.362-10.864
	C273.408,329.435,270.662,326.065,261.046,323.067z"/>
<path style="fill:#FBC8C8;" d="M253.412,125.924c-0.67-0.154-1.354-0.251-2.067-0.251H218.95c-9.123,0-17.92,3.351-24.716,9.402
	l-31.325,23.18v51.2l6.037,0.936l58.838-58.391c-0.349-2.937-0.712-5.12-1.164-7.708h8.425L253.412,125.924z"/>
<g>
</g>
<g>
</g>
<g>
</g>
<g>
</g>
<g>
</g>
<g>
</g>
<g>
</g>
<g>
</g>
<g>
</g>
<g>
</g>
<g>
</g>
<g>
</g>
<g>
</g>
<g>
</g>
<g>
</g>
</svg>
