<?xml version="1.0" encoding="iso-8859-1"?>
<!-- Generator: Adobe Illustrator 19.0.0, SVG Export Plug-In . SVG Version: 6.00 Build 0)  -->
<svg version="1.1" id="Layer_1" xmlns="http://www.w3.org/2000/svg" xmlns:xlink="http://www.w3.org/1999/xlink" x="0px" y="0px"
	 viewBox="0 0 512 512" style="enable-background:new 0 0 512 512;" xml:space="preserve">
<circle style="fill:#FABC3D;" cx="256" cy="256" r="256"/>
<polygon style="fill:#FBE158;" points="134.982,349.091 256,404.945 377.018,349.091 377.018,186.182 134.982,186.182 "/>
<polygon style="fill:#DF2C2C;" points="162.909,186.182 162.909,325.818 256,367.709 349.091,325.818 349.091,186.182 "/>
<path style="fill:#3E3E3F;" d="M210.944,158.255L256,124.621l45.056,33.634h23.194l-64.521-47.798c-2.276-1.438-5.176-1.438-7.457,0
	l-64.521,47.798H210.944z"/>
<path style="fill:#9C6144;" d="M390.982,172.218c0,7.68-6.284,13.964-13.964,13.964H134.982c-7.68,0-13.964-6.284-13.964-13.964
	s6.284-13.964,13.964-13.964h242.036C384.698,158.255,390.982,164.538,390.982,172.218z"/>
<polygon style="fill:#FA5655;" points="162.909,186.182 162.909,325.818 256,367.709 256,186.182 "/>
<path style="fill:#FBEC9A;" d="M317.547,248.273h-41.034c-2.662,0-5.516-2.071-6.335-4.603l-12.684-39.024
	c-0.614-1.899-1.527-2.374-2.295-1.424c-0.088,0.107-0.154,0.34-0.237,0.484c-0.158,0.279-0.321,0.521-0.461,0.936l-12.679,39.024
	c-0.41,1.257-1.317,2.392-2.453,3.226c-1.154,0.847-2.541,1.378-3.882,1.378h-41.034c-1.331,0-2.099,0.321-2.267,0.833
	c-0.168,0.517,0.265,1.229,1.345,2.011l18.595,13.512l14.601,10.608c0.256,0.186,0.447,0.47,0.67,0.703
	c1.662,1.722,2.476,4.515,1.75,6.744l-12.679,39.028c-0.619,1.899-0.158,2.816,1.015,2.5c0.13-0.037,0.321-0.182,0.47-0.247
	c0.293-0.135,0.577-0.233,0.936-0.493l33.196-24.12c2.155-1.564,5.679-1.564,7.834,0l33.196,24.12c2.15,1.564,3.24,0.773,2.42-1.759
	l-12.684-39.028c-0.824-2.532,0.265-5.883,2.42-7.447l33.196-24.12C320.624,249.553,320.209,248.273,317.547,248.273z"/>
<g>
</g>
<g>
</g>
<g>
</g>
<g>
</g>
<g>
</g>
<g>
</g>
<g>
</g>
<g>
</g>
<g>
</g>
<g>
</g>
<g>
</g>
<g>
</g>
<g>
</g>
<g>
</g>
<g>
</g>
</svg>
