<?xml version="1.0" encoding="iso-8859-1"?>
<!-- Generator: Adobe Illustrator 19.0.0, SVG Export Plug-In . SVG Version: 6.00 Build 0)  -->
<svg version="1.1" id="Layer_1" xmlns="http://www.w3.org/2000/svg" xmlns:xlink="http://www.w3.org/1999/xlink" x="0px" y="0px"
	 viewBox="0 0 512 512" style="enable-background:new 0 0 512 512;" xml:space="preserve">
<circle style="fill:#32BEA6;" cx="256" cy="256" r="256"/>
<path style="fill:#F4D0A1;" d="M343.231,125.561c-24.678-24.678-64.689-24.678-89.367,0L128.382,251.043
	c-24.678,24.678-24.678,64.689,0,89.367l37.018,37.018c24.678,24.678,64.689,24.678,89.367,0l125.482-125.477
	c24.678-24.678,24.678-64.689,0-89.367L343.231,125.561z"/>
<path style="fill:#F8E1C2;" d="M343.231,125.566c-24.678-24.678-64.689-24.678-89.367,0L128.382,251.043
	c-24.678,24.678-24.678,64.689,0,89.367l21.518,21.523l214.849-214.849L343.231,125.566z"/>
<g>
	<path style="fill:#D4A263;" d="M187.937,232.476c1.285,4.035-0.945,8.346-4.98,9.63s-8.346-0.945-9.63-4.98
		c-1.285-4.035,2.658-16.933,2.658-16.933S186.652,228.44,187.937,232.476z"/>
	<path style="fill:#D4A263;" d="M156.57,264.899c0.88,4.143-1.764,8.211-5.902,9.095c-4.143,0.88-8.211-1.764-9.095-5.902
		c-0.88-4.143,4.31-16.593,4.31-16.593S155.69,260.757,156.57,264.899z"/>
	<path style="fill:#D4A263;" d="M217.474,199.298c3.258,2.704,3.71,7.536,1.005,10.794c-2.704,3.258-7.536,3.71-10.794,1.005
		s-6.907-15.69-6.907-15.69S214.216,196.594,217.474,199.298z"/>
	<path style="fill:#D4A263;" d="M244.159,167.326c3.947,1.536,5.897,5.981,4.361,9.923c-1.536,3.942-5.981,5.897-9.923,4.361
		s-11.506-12.707-11.506-12.707S240.216,165.79,244.159,167.326z"/>
	<path style="fill:#D4A263;" d="M274.05,134.139c4.236-0.061,7.713,3.323,7.773,7.559c0.061,4.236-3.323,7.713-7.559,7.773
		c-4.236,0.061-15.439-7.452-15.439-7.452S269.819,134.195,274.05,134.139z"/>
</g>
<path style="fill:#DF2C2C;" d="M390.423,120.515l-23.152,23.152c5.097-0.936,9.668-2.579,15.025-7.936
	c2.644-2.644,6.931-2.644,9.574,0c2.644,2.644,2.644,6.931,0,9.574c-18.669,18.669-32.121,6.591-46.639,21.104
	c-14.531,14.531-2.406,27.941-21.104,46.639c-18.683,18.683-32.088,6.554-46.615,21.08c-14.541,14.541-2.397,27.937-21.094,46.625
	c-18.683,18.683-32.088,6.554-46.615,21.08c-14.504,14.504-2.397,27.937-21.071,46.601c-10.063,10.063-19.139,11.334-27.15,12.456
	c-7.038,0.987-12.595,1.759-19.451,8.616c-0.619,0.619-1.34,1.061-2.099,1.392l-22.696,22.696c0.265,0.284,0.512,0.577,0.787,0.852
	c12.614,12.614,30.925,14.76,40.899,4.79L396.06,162.197c9.97-9.97,7.829-28.281-4.79-40.899
	C391,121.027,390.707,120.785,390.423,120.515z"/>
<path style="fill:#FA5655;" d="M350.38,116.517L113.343,353.555c-9.751,9.751-7.889,27.466,3.998,40.043l22.696-22.691
	c-0.861,0.377-1.769,0.591-2.69,0.591c-1.731,0-3.463-0.661-4.79-1.983c-2.644-2.644-2.644-6.931,0-9.574
	c18.716-18.721,32.037-6.507,46.601-21.071c14.564-14.564,2.351-27.89,21.071-46.606c18.967-18.977,31.851-6.312,46.615-21.08
	c14.615-14.611,2.388-27.927,21.09-46.625c18.762-18.767,32.009-6.479,46.615-21.08c14.583-14.587,2.365-27.899,21.104-46.639
	c10.072-10.072,19.153-11.348,27.169-12.47c1.545-0.219,3.012-0.433,4.45-0.698l23.152-23.152
	C377.847,108.628,360.132,106.766,350.38,116.517z"/>
<path style="fill:#F3B607;" d="M391.871,135.731c-2.644-2.644-6.931-2.644-9.574,0c-14.587,14.587-27.899,2.365-46.639,21.104
	c-18.795,18.795-6.47,32.005-21.104,46.639c-14.569,14.569-27.895,2.355-46.615,21.08c-18.693,18.688-6.484,32.014-21.09,46.625
	c-14.643,14.643-27.788,2.253-46.615,21.08c-18.716,18.711-6.507,32.037-21.071,46.601c-14.583,14.583-27.853,2.318-46.601,21.071
	c-2.644,2.644-2.644,6.931,0,9.574c2.807,2.807,7.098,2.481,9.574,0c14.499-14.499,27.932-2.402,46.601-21.071
	c18.665-18.66,6.572-32.102,21.071-46.601c14.508-14.513,27.937-2.406,46.615-21.08c18.655-18.651,6.591-32.121,21.094-46.625
	c14.504-14.504,27.937-2.406,46.615-21.08c18.683-18.688,6.582-32.116,21.104-46.639c14.545-14.541,27.941-2.406,46.639-21.104
	C394.515,142.666,394.515,138.375,391.871,135.731z"/>
<g>
</g>
<g>
</g>
<g>
</g>
<g>
</g>
<g>
</g>
<g>
</g>
<g>
</g>
<g>
</g>
<g>
</g>
<g>
</g>
<g>
</g>
<g>
</g>
<g>
</g>
<g>
</g>
<g>
</g>
</svg>
