<?xml version="1.0" encoding="iso-8859-1"?>
<!-- Generator: Adobe Illustrator 19.0.0, SVG Export Plug-In . SVG Version: 6.00 Build 0)  -->
<svg version="1.1" id="Layer_1" xmlns="http://www.w3.org/2000/svg" xmlns:xlink="http://www.w3.org/1999/xlink" x="0px" y="0px"
	 viewBox="0 0 512 512" style="enable-background:new 0 0 512 512;" xml:space="preserve">
<circle style="fill:#FABC3D;" cx="256" cy="256" r="256"/>
<g>
	<path style="fill:#692E19;" d="M399.514,363.878c-0.754-0.759-110.299-111.751-110.932-110.885
		c11.599-15.621,19.475-34.462,24.05-57.13l8.974-8.941l7.019,7.052c3.631,3.645,9.523,3.654,13.163,0.023l3.295-3.286
		c3.64-3.631,3.654-9.523,0.023-13.168l-65.713-65.992c-3.631-3.64-9.523-3.654-13.163-0.023l-3.295,3.286
		c-3.64,3.631-3.654,9.523-0.023,13.168l6.149,6.172l-8.993,8.96c-58.531,11.599-93.701,46.643-105.509,105.132l-8.471,8.443
		l-5.897-5.925c-3.631-3.64-9.523-3.654-13.168-0.023l-3.295,3.286c-3.64,3.626-3.654,9.523-0.023,13.163l65.713,65.997
		c3.631,3.64,9.523,3.654,13.163,0.023l3.295-3.286c3.64-3.626,3.654-9.523,0.023-13.163l-27.373-27.494l20.108,20.191l8.49-8.462
		c21.481-4.259,39.787-11.702,54.975-22.277l111.043,111.439c7.256,7.284,19.046,7.303,26.331,0.047
		c0.251-0.247,0.424-0.54,0.656-0.796l0,0C406.677,382.11,406.523,370.911,399.514,363.878z"/>
	<path style="fill:#692E19;" d="M107.055,404.945c0-10.282,8.336-18.618,18.618-18.618h111.709c10.282,0,18.618,8.336,18.618,18.618
		H107.055z"/>
</g>
<path style="fill:#F0F1F1;" d="M237.382,381.673c0-10.282-8.336-18.618-18.618-18.618h-74.473c-10.282,0-18.618,8.336-18.618,18.618
	v4.655h111.709V381.673z"/>
<g>
	
		<rect x="253.669" y="158.496" transform="matrix(-0.7058 -0.7084 0.7084 -0.7058 379.3897 487.4178)" style="fill:#9C6144;" width="74.472" height="12.87"/>
	
		<rect x="170.615" y="241.625" transform="matrix(-0.7084 0.7058 -0.7058 -0.7084 498.5184 351.765)" style="fill:#9C6144;" width="11.962" height="74.472"/>
</g>
<path style="fill:#FFFFFF;" d="M181.527,363.055h-37.236c-10.282,0-18.618,8.336-18.618,18.618v4.655h55.855V363.055z"/>
<g>
	<polygon style="fill:#84462D;" points="181.281,275.06 181.281,275.06 154.559,248.241 	"/>
	<path style="fill:#84462D;" d="M260.063,143.109c-58.531,11.599-93.701,46.643-105.509,105.132l26.722,26.82l105.318-105.318
		L260.063,143.109z"/>
</g>
<g>
	<polygon style="fill:#AF7653;" points="146.083,256.684 172.814,283.527 181.281,275.06 154.559,248.241 	"/>
	
		<rect x="259.083" y="145.401" transform="matrix(0.7059 0.7084 -0.7084 0.7059 189.2934 -152.1818)" style="fill:#AF7653;" width="37.611" height="12.871"/>
</g>
<g>
	<path style="fill:#84462D;" d="M266.231,111.528l-3.295,3.286c-3.64,3.631-3.654,9.523-0.023,13.163l32.656,32.796l16.458-16.458
		l-32.628-32.768C275.768,107.906,269.871,107.897,266.231,111.528z"/>
	<path style="fill:#84462D;" d="M140.186,250.759c-3.631-3.64-9.523-3.654-13.168-0.023l-3.295,3.286
		c-3.64,3.631-3.654,9.523-0.023,13.163l32.656,32.796l16.458-16.458L140.186,250.759z"/>
	<path style="fill:#84462D;" d="M181.527,386.327h-55.855c-10.282,0-18.618,8.336-18.618,18.618h74.473V386.327z"/>
</g>
<g>
</g>
<g>
</g>
<g>
</g>
<g>
</g>
<g>
</g>
<g>
</g>
<g>
</g>
<g>
</g>
<g>
</g>
<g>
</g>
<g>
</g>
<g>
</g>
<g>
</g>
<g>
</g>
<g>
</g>
</svg>
