<?xml version="1.0" encoding="iso-8859-1"?>
<!-- Generator: Adobe Illustrator 19.0.0, SVG Export Plug-In . SVG Version: 6.00 Build 0)  -->
<svg version="1.1" id="Layer_1" xmlns="http://www.w3.org/2000/svg" xmlns:xlink="http://www.w3.org/1999/xlink" x="0px" y="0px"
	 viewBox="0 0 512 512" style="enable-background:new 0 0 512 512;" xml:space="preserve">
<circle style="fill:#E04F5F;" cx="256" cy="256" r="256"/>
<path style="fill:#FACB1B;" d="M322.909,167.852c40.797,4.366,50.032,110.536-66.323,110.536
	c-117.867,0-102.335-96.861-71.852-116.066c0,22.109,33.164,33.164,33.164,55.268c22.109-33.164-49.743-44.214,0-110.541
	c5.525,38.689,33.164,27.634,44.214,66.323c5.525-33.164-16.579-33.164-11.055-55.268c11.055,16.579,66.323,0,66.323,82.902
	C328.434,189.957,322.909,167.852,322.909,167.852z"/>
<path style="fill:#DF2C2C;" d="M234.477,261.809c0,0-27.634-33.164,22.109-71.852c5.525,27.634,38.689,21.56,38.689,49.743
	c0,16.579-5.525,22.109-5.525,22.109H234.477z"/>
<path style="fill:#FA5655;" d="M256.586,189.961c-31.735,24.678-31.967,47.095-27.983,60.104l40.913-40.913
	C263.601,204.87,258.472,199.396,256.586,189.961z"/>
<path style="fill:#CFD3D4;" d="M198.828,293.236l44.037,102.605c1.327,5.311,6.8,9.104,13.135,9.104
	c6.335,0,11.809-3.793,13.135-9.104l44.037-102.605H198.828z"/>
<path style="fill:#F0F1F1;" d="M335.127,283.927c0,5.143-4.166,9.309-9.309,9.309H186.182c-5.143,0-9.309-4.166-9.309-9.309v-18.618
	c0-5.143,4.166-9.309,9.309-9.309h139.636c5.143,0,9.309,4.166,9.309,9.309V283.927z"/>
<path style="fill:#E2E4E5;" d="M198.828,293.236l44.037,102.605c1.327,5.311,6.8,9.104,13.135,9.104V293.236H198.828z"/>
<path style="fill:#FFFFFF;" d="M186.182,256c-5.139,0-9.309,4.17-9.309,9.309v18.618c0,5.139,4.17,9.309,9.309,9.309h12.646H256
	v-18.618V256H186.182z"/>
<g>
</g>
<g>
</g>
<g>
</g>
<g>
</g>
<g>
</g>
<g>
</g>
<g>
</g>
<g>
</g>
<g>
</g>
<g>
</g>
<g>
</g>
<g>
</g>
<g>
</g>
<g>
</g>
<g>
</g>
</svg>
