<?xml version="1.0" encoding="iso-8859-1"?>
<!-- Generator: Adobe Illustrator 19.0.0, SVG Export Plug-In . SVG Version: 6.00 Build 0)  -->
<svg version="1.1" id="Layer_1" xmlns="http://www.w3.org/2000/svg" xmlns:xlink="http://www.w3.org/1999/xlink" x="0px" y="0px"
	 viewBox="0 0 512 512" style="enable-background:new 0 0 512 512;" xml:space="preserve">
<circle style="fill:#FFD600;" cx="256" cy="256" r="256"/>
<path style="fill:#4C2720;" d="M404.945,181.527c0-10.282-8.336-18.618-18.618-18.618H125.673c-10.282,0-18.618,8.336-18.618,18.618
	v172.218c0,10.282,8.336,18.618,18.618,18.618h260.655c10.282,0,18.618-8.336,18.618-18.618V181.527z"/>
<rect x="125.673" y="256" style="fill:#FF8000;" width="260.655" height="74.473"/>
<path style="fill:#FFEBB8;" d="M386.327,256H125.673v-65.164l9.309-9.309h242.036l9.309,9.309V256z"/>
<polygon style="fill:#FFF4D1;" points="330.473,330.473 181.527,330.473 162.909,372.364 349.091,372.364 "/>
<path style="fill:#FFAA00;" d="M162.909,256.247c0-0.084,0.009-0.163,0.014-0.247h-37.25v74.473h27.164l38.018-38.018
	C174.783,288.228,162.909,273.645,162.909,256.247z"/>
<path style="fill:#FFF4D1;" d="M125.673,190.836V256h37.25c0.13-20.587,16.849-37.236,37.469-37.236h64.154l37.236-37.236h-166.8
	L125.673,190.836z"/>
<path style="fill:#4C2720;" d="M311.608,218.764H200.392c-20.703,0-37.483,16.78-37.483,37.483c0,20.703,16.78,37.483,37.483,37.483
	h111.22c20.699,0,37.483-16.78,37.483-37.483C349.096,235.543,332.311,218.764,311.608,218.764z"/>
<path style="fill:#FFFFFF;" d="M329.546,250.889c-1.82-5.59-6.339-9.928-12.055-11.455v7.745h-10.71v-7.201
	c-4.897,1.88-8.681,5.902-10.31,10.91h5.828v10.71h-5.828c1.727,5.302,5.883,9.453,11.18,11.18v-5.827h10.71v5.827
	c5.302-1.727,9.453-5.883,11.18-11.18h-5.827v-10.71L329.546,250.889L329.546,250.889z"/>
<path style="fill:#AB6C24;" d="M313.009,229.474c-14.788,0-26.773,11.985-26.773,26.773c0,14.787,11.985,26.773,26.773,26.773
	c14.787,0,26.773-11.99,26.773-26.773C339.782,241.464,327.796,229.474,313.009,229.474z M318.362,272.78v-5.827h-10.71v5.827
	c-5.302-1.727-9.453-5.883-11.18-11.18h5.827v-10.71h-5.827c1.629-5.008,5.413-9.025,10.31-10.91v7.201h10.71v-7.745
	c5.716,1.527,10.235,5.865,12.055,11.455h-5.827v10.71h5.827C327.82,266.901,323.663,271.053,318.362,272.78z"/>
<path style="fill:#FFFFFF;" d="M216.683,250.889c-1.82-5.59-6.339-9.928-12.055-11.455v7.745h-10.71v-7.201
	c-4.897,1.88-8.681,5.902-10.31,10.91h5.827v10.71h-5.827c1.727,5.302,5.883,9.453,11.18,11.18v-5.827h10.71v5.827
	c5.302-1.727,9.453-5.883,11.18-11.18h-5.827v-10.71L216.683,250.889L216.683,250.889z"/>
<path style="fill:#AB6C24;" d="M200.145,229.474c-14.787,0-26.773,11.985-26.773,26.773c0,14.787,11.985,26.773,26.773,26.773
	s26.773-11.985,26.773-26.773C226.918,241.459,214.933,229.474,200.145,229.474z M205.498,272.78v-5.827h-10.705v5.827
	c-5.302-1.727-9.453-5.883-11.18-11.18h5.827v-10.71h-5.827c1.629-5.008,5.413-9.025,10.31-10.91v7.201h10.71v-7.745
	c5.716,1.527,10.235,5.865,12.055,11.455h-5.827v10.71h5.827C214.956,266.901,210.8,271.053,205.498,272.78z"/>
<g>
	<path style="fill:#804B1C;" d="M125.673,330.473V256v-65.164l9.309-9.309h166.8l18.618-18.618H125.673
		c-10.282,0-18.618,8.336-18.618,18.618v172.218c0,6.135,3.007,11.534,7.582,14.922l38.2-38.195H125.673z"/>
	<path style="fill:#804B1C;" d="M200.392,218.764c-20.62,0-37.334,16.649-37.469,37.236c-0.005,0.084-0.014,0.163-0.014,0.247
		c0,17.399,11.874,31.981,27.946,36.208l9.435-9.439c-14.736-0.051-26.671-12.013-26.671-26.768c0-0.084,0.009-0.163,0.014-0.247
		c0.13-14.671,12.055-26.526,26.759-26.526c14.704,0,26.629,11.855,26.759,26.526h0.158l37.236-37.236H200.392z"/>
</g>
<g>
	<circle style="fill:#4C2720;" cx="235.055" cy="347.322" r="6.4"/>
	<circle style="fill:#4C2720;" cx="207.127" cy="356.631" r="6.4"/>
	<circle style="fill:#4C2720;" cx="276.945" cy="347.322" r="6.4"/>
	<circle style="fill:#4C2720;" cx="304.873" cy="356.631" r="6.4"/>
</g>
<g>
</g>
<g>
</g>
<g>
</g>
<g>
</g>
<g>
</g>
<g>
</g>
<g>
</g>
<g>
</g>
<g>
</g>
<g>
</g>
<g>
</g>
<g>
</g>
<g>
</g>
<g>
</g>
<g>
</g>
</svg>
