<?xml version="1.0" encoding="iso-8859-1"?>
<!-- Generator: Adobe Illustrator 19.0.0, SVG Export Plug-In . SVG Version: 6.00 Build 0)  -->
<svg version="1.1" id="Layer_1" xmlns="http://www.w3.org/2000/svg" xmlns:xlink="http://www.w3.org/1999/xlink" x="0px" y="0px"
	 viewBox="0 0 512 512" style="enable-background:new 0 0 512 512;" xml:space="preserve">
<circle style="fill:#E04F5F;" cx="256" cy="256" r="256"/>
<path style="fill:#FACB1B;" d="M345.763,237.382c18.06-28.719,7.596-67.03-24.399-88.436c0,0-0.195,9.309-14.159,18.618
	c-27.927-18.618-27.732-46.545-23.077-60.509c-32.587,18.618-51.4,41.891-46.746,69.818c-27.927-18.618-13.768-51.2-13.768-51.2
	c-59.048,30.864-75.669,78.625-55.128,111.709H345.763z"/>
<path style="fill:#F37A10;" d="M310.77,237.382c3.919-13.768-3.37-27.927-3.37-27.927c-9.309,9.309-23.273,9.309-23.273,9.309
	c-9.309-9.309-9.309-37.236-9.309-37.236c-23.273,9.309-32.582,27.927-32.582,37.236c-23.273-4.655-27.927-27.927-27.927-27.927
	c-11.25,15.616-14.359,32.824-8.988,46.545H310.77z"/>
<path style="fill:#8CE3D4;" d="M404.945,395.636c0,5.143-4.166,9.309-9.309,9.309H116.364c-5.143,0-9.309-4.166-9.309-9.309V246.691
	c0-5.143,4.166-9.309,9.309-9.309h279.273c5.143,0,9.309,4.166,9.309,9.309V395.636z"/>
<path style="fill:#17B198;" d="M386.327,288.582v65.164c-18.013,0-32.582,14.569-32.582,32.582H158.255
	c0-18.013-14.569-32.582-32.582-32.582v-65.164c18.013,0,32.582-14.569,32.582-32.582h195.491
	C353.745,274.013,368.314,288.582,386.327,288.582z"/>
<g>
	<circle style="fill:#0D9681;" cx="349.091" cy="321.164" r="13.964"/>
	<circle style="fill:#0D9681;" cx="162.909" cy="321.164" r="13.964"/>
</g>
<path style="fill:#C2F8F0;" d="M158.255,386.327c0-18.013-14.569-32.582-32.582-32.582v-65.164
	c18.013,0,32.582-14.569,32.582-32.582h164.757l18.618-18.618H116.364c-5.139,0-9.309,4.17-9.309,9.309v148.945
	c0,5.139,4.17,9.309,9.309,9.309h57.702l18.618-18.618H158.255z"/>
<path style="fill:#4AC3AF;" d="M125.673,288.582v65.164c18.013,0,32.582,14.569,32.582,32.582h34.43l31.372-31.372
	c-8.974-8.485-14.601-20.466-14.601-33.792c0-25.707,20.838-46.545,46.545-46.545c13.321,0,25.307,5.627,33.792,14.601L323.012,256
	H158.255C158.255,274.013,143.686,288.582,125.673,288.582z M176.873,321.164c0,7.713-6.251,13.964-13.964,13.964
	s-13.964-6.251-13.964-13.964c0-7.713,6.251-13.964,13.964-13.964S176.873,313.451,176.873,321.164z"/>
<circle style="fill:#17B198;" cx="162.909" cy="321.164" r="13.964"/>
<g>
	<circle style="fill:#C2F8F0;" cx="256" cy="321.164" r="46.545"/>
	<path style="fill:#C2F8F0;" d="M256,274.618c-25.707,0-46.545,20.838-46.545,46.545c0,13.414,5.706,25.47,14.787,33.96
		l65.722-65.722C281.465,280.325,269.414,274.618,256,274.618z"/>
</g>
<path style="fill:#17B198;" d="M257.834,297.891c1.62,0,2.904,1.285,2.904,2.904v0.782c3.012,0.447,5.693,1.341,8.094,2.676
	c1.061,0.614,2.011,1.676,2.011,3.351c0,2.122-1.676,3.742-3.793,3.742c-0.67,0-1.341-0.168-1.955-0.503
	c-1.564-0.838-3.128-1.508-4.636-1.899v8.485c8.485,2.29,12.116,5.748,12.116,12.004s-4.799,10.273-11.832,11.055v2.956
	c0,1.62-1.285,2.904-2.904,2.904s-2.904-1.28-2.904-2.904v-3.012c-3.966-0.503-7.703-1.899-10.999-3.905
	c-1.173-0.731-1.899-1.848-1.899-3.356c0-2.178,1.671-3.793,3.849-3.793c0.726,0,1.508,0.279,2.178,0.726
	c2.346,1.508,4.575,2.565,7.145,3.123v-8.876c-8.038-2.178-12.004-5.246-12.004-11.892c0-6.139,4.692-10.273,11.725-10.999v-0.67
	C254.934,299.176,256.214,297.891,257.834,297.891z M255.209,315.978v-7.536c-2.681,0.391-3.849,1.732-3.849,3.519
	C251.359,313.693,252.137,314.861,255.209,315.978z M260.459,325.748v7.759c2.625-0.391,3.966-1.62,3.966-3.631
	C264.42,328.038,263.471,326.81,260.459,325.748z"/>
<g>
</g>
<g>
</g>
<g>
</g>
<g>
</g>
<g>
</g>
<g>
</g>
<g>
</g>
<g>
</g>
<g>
</g>
<g>
</g>
<g>
</g>
<g>
</g>
<g>
</g>
<g>
</g>
<g>
</g>
</svg>
