<?xml version="1.0" encoding="iso-8859-1"?>
<!-- Generator: Adobe Illustrator 19.0.0, SVG Export Plug-In . SVG Version: 6.00 Build 0)  -->
<svg version="1.1" id="Layer_1" xmlns="http://www.w3.org/2000/svg" xmlns:xlink="http://www.w3.org/1999/xlink" x="0px" y="0px"
	 viewBox="0 0 512 512" style="enable-background:new 0 0 512 512;" xml:space="preserve">
<circle style="fill:#00B0FF;" cx="256" cy="256" r="256"/>
<path style="fill:#0D57A1;" d="M139.636,162.909c-5.092,0-9.854-1.387-13.964-3.77v245.807H153.6V159.139
	C149.49,161.522,144.728,162.909,139.636,162.909z"/>
<path style="fill:#2962FF;" d="M337.455,186.182c-61.165,0-59.811-46.127-120.227-46.499c-26.419,0.386-47.816,9.942-63.628,25.214
	v181.495c16.901-16.305,39.038-24.869,63.628-25.228c60.416,0.372,59.062,46.499,120.227,46.499c17.98,0,34.756-5.255,48.873-14.289
	V171.892C372.21,180.931,355.435,186.182,337.455,186.182z"/>
<path style="fill:#2979FF;" d="M312.12,182.919c-36.99-10.51-44.274-42.924-94.892-43.236c-26.419,0.386-47.816,9.942-63.628,25.214
	v176.542L312.12,182.919z"/>
<g>
	<polygon style="fill:#FFFFFF;" points="264.536,190.632 277.844,231.601 320.926,231.601 286.073,256.922 299.38,297.891 
		264.536,272.575 229.683,297.891 242.991,256.922 208.147,231.601 251.224,231.601 	"/>
	<circle style="fill:#FFFFFF;" cx="139.636" cy="134.982" r="27.927"/>
</g>
<g>
</g>
<g>
</g>
<g>
</g>
<g>
</g>
<g>
</g>
<g>
</g>
<g>
</g>
<g>
</g>
<g>
</g>
<g>
</g>
<g>
</g>
<g>
</g>
<g>
</g>
<g>
</g>
<g>
</g>
</svg>
