<?xml version="1.0" encoding="iso-8859-1"?>
<!-- Generator: Adobe Illustrator 19.0.0, SVG Export Plug-In . SVG Version: 6.00 Build 0)  -->
<svg version="1.1" id="Layer_1" xmlns="http://www.w3.org/2000/svg" xmlns:xlink="http://www.w3.org/1999/xlink" x="0px" y="0px"
	 viewBox="0 0 512 512" style="enable-background:new 0 0 512 512;" xml:space="preserve">
<circle style="fill:#FFD600;" cx="256" cy="256" r="256"/>
<path style="fill:#FF8000;" d="M322.909,167.852c40.797,4.366,50.027,110.541-66.327,110.541
	c-117.862,0-102.33-96.866-71.848-116.07c0,22.109,33.159,33.164,33.159,55.268c22.109-33.159-49.743-44.214,0-110.536
	c5.53,38.689,33.164,27.639,44.218,66.323c5.525-33.159-16.584-33.159-11.055-55.268c11.055,16.584,66.323,0,66.323,82.907
	C328.439,189.961,322.909,167.852,322.909,167.852z"/>
<path style="fill:#FFF4D1;" d="M234.473,261.809c0,0-27.634-33.159,22.109-71.852c5.53,27.634,38.693,21.56,38.693,49.743
	c0,16.584-5.53,22.109-5.53,22.109H234.473z"/>
<path style="fill:#FFFFFF;" d="M256.582,189.961c-31.725,24.678-31.963,47.095-27.983,60.104l40.913-40.909
	C263.601,204.874,258.472,199.396,256.582,189.961z"/>
<path style="fill:#4C2720;" d="M198.828,293.236l44.037,102.609c1.327,5.311,6.8,9.1,13.135,9.1c6.335,0,11.809-3.789,13.135-9.1
	l44.037-102.609H198.828z"/>
<path style="fill:#FFEBB8;" d="M335.127,283.927c0,5.139-4.17,9.309-9.309,9.309H186.182c-5.139,0-9.309-4.17-9.309-9.309v-18.618
	c0-5.139,4.17-9.309,9.309-9.309h139.636c5.139,0,9.309,4.17,9.309,9.309V283.927z"/>
<path style="fill:#804B1C;" d="M198.828,293.236l44.037,102.609c1.327,5.311,6.8,9.1,13.135,9.1V293.236H198.828z"/>
<path style="fill:#FFF4D1;" d="M186.182,256c-5.139,0-9.309,4.17-9.309,9.309v18.618c0,5.139,4.17,9.309,9.309,9.309h12.646H256
	v-18.618V256H186.182z"/>
<g>
</g>
<g>
</g>
<g>
</g>
<g>
</g>
<g>
</g>
<g>
</g>
<g>
</g>
<g>
</g>
<g>
</g>
<g>
</g>
<g>
</g>
<g>
</g>
<g>
</g>
<g>
</g>
<g>
</g>
</svg>
