<?xml version="1.0" encoding="iso-8859-1"?>
<!-- Generator: Adobe Illustrator 19.0.0, SVG Export Plug-In . SVG Version: 6.00 Build 0)  -->
<svg version="1.1" id="Layer_1" xmlns="http://www.w3.org/2000/svg" xmlns:xlink="http://www.w3.org/1999/xlink" x="0px" y="0px"
	 viewBox="0 0 512 512" style="enable-background:new 0 0 512 512;" xml:space="preserve">
<circle style="fill:#64DD17;" cx="256" cy="256" r="256"/>
<polygon style="fill:#ECF5E1;" points="134.982,349.091 256,404.945 377.018,349.091 377.018,186.182 134.982,186.182 "/>
<polygon style="fill:#00C250;" points="162.909,186.182 162.909,325.818 256,367.709 349.091,325.818 349.091,186.182 "/>
<path style="fill:#003B15;" d="M210.944,158.255L256,124.621l45.056,33.634h23.189l-64.517-47.798c-2.276-1.438-5.176-1.438-7.457,0
	l-64.517,47.798H210.944z"/>
<path style="fill:#00A344;" d="M390.982,172.218c0,7.68-6.284,13.964-13.964,13.964H134.982c-7.68,0-13.964-6.284-13.964-13.964
	s6.284-13.964,13.964-13.964h242.036C384.698,158.255,390.982,164.538,390.982,172.218z"/>
<polygon style="fill:#00E676;" points="162.909,186.182 162.909,325.818 256,367.709 256,186.182 "/>
<path style="fill:#FFFFFF;" d="M317.547,248.273h-41.034c-2.658,0-5.511-2.071-6.33-4.599l-12.684-39.028
	c-0.614-1.899-1.527-2.374-2.295-1.424c-0.084,0.102-0.154,0.34-0.237,0.484c-0.158,0.279-0.326,0.517-0.461,0.936l-12.679,39.028
	c-0.41,1.257-1.317,2.392-2.453,3.221c-1.154,0.852-2.541,1.378-3.882,1.378h-41.034c-1.331,0-2.099,0.321-2.267,0.838
	c-0.168,0.517,0.27,1.229,1.34,2.011l18.6,13.507l14.601,10.608c0.256,0.191,0.447,0.475,0.675,0.703
	c1.657,1.718,2.472,4.515,1.745,6.744l-12.679,39.028c-0.624,1.899-0.158,2.816,1.015,2.495c0.135-0.033,0.321-0.177,0.475-0.247
	c0.293-0.13,0.573-0.233,0.931-0.489l33.196-24.125c2.155-1.564,5.683-1.564,7.838,0l33.196,24.125
	c2.15,1.564,3.24,0.773,2.425-1.759l-12.688-39.028c-0.824-2.532,0.27-5.883,2.425-7.452l33.201-24.12
	C320.624,249.553,320.209,248.273,317.547,248.273z"/>
<g>
</g>
<g>
</g>
<g>
</g>
<g>
</g>
<g>
</g>
<g>
</g>
<g>
</g>
<g>
</g>
<g>
</g>
<g>
</g>
<g>
</g>
<g>
</g>
<g>
</g>
<g>
</g>
<g>
</g>
</svg>
