<?xml version="1.0" encoding="iso-8859-1"?>
<!-- Generator: Adobe Illustrator 19.0.0, SVG Export Plug-In . SVG Version: 6.00 Build 0)  -->
<svg version="1.1" id="Layer_1" xmlns="http://www.w3.org/2000/svg" xmlns:xlink="http://www.w3.org/1999/xlink" x="0px" y="0px"
	 viewBox="0 0 512 512" style="enable-background:new 0 0 512 512;" xml:space="preserve">
<circle style="fill:#00C853;" cx="256" cy="256" r="256"/>
<path style="fill:#FFFFFF;" d="M330.473,232.401c0,3.114-1.555,6.018-4.147,7.745l-51.707,53.09h-37.236l-51.707-53.09
	c-2.597-1.727-4.147-4.631-4.147-7.745V125.673c0-10.282,8.336-18.618,18.618-18.618h111.709c10.277,0,18.618,8.336,18.618,18.618
	V232.401z"/>
<polygon style="fill:#D32F2F;" points="293.236,107.055 218.764,107.055 218.764,274.125 237.382,293.236 274.618,293.236 
	293.236,274.125 "/>
<polygon style="fill:#EF5350;" points="256,107.055 218.764,107.055 218.764,274.125 237.382,293.236 256,293.236 "/>
<path style="fill:#FDD835;" d="M251.83,232.802c0.782-1.592,2.402-2.597,4.17-2.597c1.773,0,3.393,1.005,4.17,2.597l24.711,50.069
	c0.68,1.373,1.987,2.327,3.505,2.546l55.254,8.029c1.75,0.256,3.207,1.48,3.756,3.17c0.549,1.685,0.093,3.537-1.178,4.771
	l-39.983,38.973c-1.098,1.066-1.597,2.611-1.341,4.119l9.439,55.031c0.298,1.745-0.419,3.51-1.853,4.552
	c-1.434,1.047-3.333,1.182-4.906,0.358l-49.417-25.982c-1.354-0.712-2.974-0.712-4.333,0l-49.422,25.982
	c-1.564,0.824-3.468,0.684-4.901-0.358c-1.434-1.043-2.15-2.807-1.848-4.552l9.439-55.031c0.256-1.508-0.242-3.049-1.34-4.119
	l-39.983-38.973c-1.266-1.238-1.727-3.086-1.178-4.771c0.545-1.685,2.006-2.914,3.756-3.17l55.254-8.029
	c1.517-0.219,2.825-1.173,3.505-2.546L251.83,232.802z"/>
<path style="fill:#FFEE58;" d="M200.923,380.504l94.12-94.129l-6.651-0.963c-1.517-0.219-2.825-1.173-3.505-2.546l-24.711-50.069
	c-0.782-1.592-2.402-2.597-4.17-2.597s-3.393,1.005-4.17,2.597l-24.711,50.069c-0.68,1.373-1.987,2.327-3.505,2.546l-55.254,8.029
	c-1.755,0.256-3.212,1.48-3.761,3.17c-0.549,1.685-0.093,3.537,1.178,4.771l39.983,38.973c1.094,1.066,1.596,2.611,1.34,4.119
	L200.923,380.504z"/>
<g>
</g>
<g>
</g>
<g>
</g>
<g>
</g>
<g>
</g>
<g>
</g>
<g>
</g>
<g>
</g>
<g>
</g>
<g>
</g>
<g>
</g>
<g>
</g>
<g>
</g>
<g>
</g>
<g>
</g>
</svg>
