<?xml version="1.0" encoding="iso-8859-1"?>
<!-- Generator: Adobe Illustrator 19.0.0, SVG Export Plug-In . SVG Version: 6.00 Build 0)  -->
<svg version="1.1" id="Layer_1" xmlns="http://www.w3.org/2000/svg" xmlns:xlink="http://www.w3.org/1999/xlink" x="0px" y="0px"
	 viewBox="0 0 512 512" style="enable-background:new 0 0 512 512;" xml:space="preserve">
<circle style="fill:#64DD17;" cx="256" cy="256" r="256"/>
<path style="fill:#C5EB98;" d="M330.473,232.401c0,3.114-1.555,6.018-4.147,7.745l-51.707,53.09h-37.236l-51.707-53.09
	c-2.593-1.727-4.147-4.631-4.147-7.745V125.673c0-10.282,8.336-18.618,18.618-18.618h111.709c10.282,0,18.618,8.336,18.618,18.618
	V232.401z"/>
<polygon style="fill:#00A344;" points="293.236,107.055 218.764,107.055 218.764,274.125 237.382,293.236 274.618,293.236 
	293.236,274.125 "/>
<polygon style="fill:#00C250;" points="256,107.055 218.764,107.055 218.764,274.125 237.382,293.236 256,293.236 "/>
<path style="fill:#ECF5E1;" d="M251.83,232.802c0.782-1.592,2.402-2.597,4.17-2.597c1.769,0,3.393,1.005,4.17,2.597l24.711,50.069
	c0.68,1.373,1.992,2.323,3.51,2.546l55.254,8.029c1.75,0.256,3.202,1.485,3.756,3.17c0.545,1.685,0.093,3.537-1.178,4.771
	l-39.983,38.973c-1.094,1.066-1.597,2.611-1.341,4.119l9.439,55.031c0.298,1.745-0.419,3.514-1.848,4.552
	c-1.438,1.047-3.337,1.182-4.911,0.354l-49.417-25.982c-1.354-0.707-2.974-0.707-4.329,0l-49.427,25.982
	c-1.564,0.829-3.463,0.689-4.901-0.354c-1.434-1.038-2.146-2.807-1.843-4.552l9.435-55.031c0.256-1.508-0.247-3.049-1.336-4.119
	l-39.987-38.973c-1.266-1.238-1.722-3.086-1.178-4.771c0.545-1.68,2.006-2.914,3.756-3.17l55.254-8.029
	c1.517-0.223,2.825-1.173,3.51-2.546L251.83,232.802z"/>
<path style="fill:#FFFFFF;" d="M200.918,380.5l94.124-94.12l-6.651-0.968c-1.517-0.223-2.825-1.173-3.51-2.551l-24.711-50.064
	c-0.782-1.592-2.402-2.597-4.17-2.597c-1.769,0-3.393,1.005-4.17,2.597l-24.711,50.064c-0.68,1.378-1.992,2.327-3.51,2.551
	l-55.249,8.029c-1.755,0.256-3.212,1.485-3.761,3.17c-0.545,1.685-0.093,3.537,1.182,4.771l39.983,38.973
	c1.089,1.066,1.596,2.611,1.336,4.119L200.918,380.5z"/>
<g>
</g>
<g>
</g>
<g>
</g>
<g>
</g>
<g>
</g>
<g>
</g>
<g>
</g>
<g>
</g>
<g>
</g>
<g>
</g>
<g>
</g>
<g>
</g>
<g>
</g>
<g>
</g>
<g>
</g>
</svg>
