<?xml version="1.0" encoding="iso-8859-1"?>
<!-- Generator: Adobe Illustrator 19.0.0, SVG Export Plug-In . SVG Version: 6.00 Build 0)  -->
<svg version="1.1" id="Layer_1" xmlns="http://www.w3.org/2000/svg" xmlns:xlink="http://www.w3.org/1999/xlink" x="0px" y="0px"
	 viewBox="0 0 512 512" style="enable-background:new 0 0 512 512;" xml:space="preserve">
<circle style="fill:#00B0FF;" cx="256" cy="256" r="256"/>
<path style="fill:#E8EAF6;" d="M404.88,140.982c0.377-3.919-0.917-7.82-3.565-10.733s-6.395-4.575-10.333-4.575h-41.891v-18.618H256
	h-93.091v18.618h-41.891c-3.938,0-7.689,1.662-10.338,4.575s-3.942,6.814-3.565,10.733c7.056,72.946,53.518,93.226,124.407,111.946
	c16.263,33.061,2.15,70.814-24.115,76.744c-4.254,0.959-7.261,4.715-7.261,9.072v10.347H256h55.855v-10.347
	c0-4.361-3.012-8.113-7.266-9.072c-26.266-5.93-40.378-43.688-24.115-76.744C351.362,234.207,397.829,213.928,404.88,140.982z
	 M349.091,163.84V153.6h24.883c-1.731,6.344-4.352,13.978-8.243,21.518c-6.67,12.898-15.044,22.081-25.302,27.69
	C345.963,190.967,349.091,177.771,349.091,163.84z M146.274,175.118c-3.896-7.54-6.512-15.174-8.243-21.518h24.879v10.24
	c0,13.931,3.128,27.127,8.662,38.968C161.317,197.199,152.939,188.016,146.274,175.118z"/>
<path style="fill:#1A3B7E;" d="M349.091,395.636c0,5.139-4.171,9.309-9.309,9.309H172.218c-5.139,0-9.309-4.17-9.309-9.309V358.4
	c0-5.139,4.17-9.309,9.309-9.309h167.564c5.139,0,9.309,4.17,9.309,9.309V395.636z"/>
<rect x="214.109" y="367.709" style="fill:#E8EAF6;" width="83.782" height="18.618"/>
<path style="fill:#0D57A1;" d="M214.109,386.327v-18.618H256v-18.618h-83.782c-5.139,0-9.309,4.17-9.309,9.309v37.236
	c0,5.139,4.17,9.309,9.309,9.309H256v-18.618H214.109z"/>
<g>
	<path style="fill:#FFFFFF;" d="M231.522,252.928c16.263,33.061,2.15,70.814-24.115,76.744c-4.254,0.959-7.261,4.715-7.261,9.072
		v10.347H256V107.055h-93.091v18.618h-41.891c-3.938,0-7.689,1.662-10.338,4.575s-3.942,6.814-3.565,10.733
		C114.171,213.928,160.638,234.207,231.522,252.928z M171.571,202.808c-10.254-5.609-18.632-14.797-25.302-27.69
		c-3.896-7.54-6.512-15.174-8.243-21.518h24.883v10.24C162.909,177.771,166.037,190.967,171.571,202.808z"/>
	<path style="fill:#FFFFFF;" d="M371.963,293.753c0.233-0.033,0.4-0.223,0.4-0.456v-0.116c0-0.233-0.168-0.428-0.4-0.461
		c-12.954-1.946-20.41-9.402-22.356-22.36c-0.033-0.228-0.223-0.396-0.456-0.396h-0.116c-0.233,0-0.428,0.168-0.461,0.396
		c-1.946,12.958-9.398,20.415-22.365,22.36c-0.223,0.033-0.391,0.228-0.391,0.456v0.116c0,0.233,0.168,0.428,0.4,0.461
		c12.958,1.946,20.41,9.402,22.356,22.36c0.033,0.228,0.228,0.396,0.465,0.396h0.163c0.2,0,0.372-0.144,0.405-0.344
		C351.535,303.174,358.991,295.703,371.963,293.753z"/>
	<path style="fill:#FFFFFF;" d="M185.544,280.106c0.363-0.056,0.638-0.368,0.638-0.735v-0.191c0-0.368-0.275-0.68-0.638-0.731
		c-20.736-3.119-32.661-15.039-35.775-35.775c-0.051-0.368-0.358-0.638-0.731-0.638h-0.186c-0.368,0-0.68,0.27-0.731,0.638
		c-3.119,20.731-15.034,32.661-35.775,35.775c-0.368,0.051-0.638,0.358-0.638,0.731v0.186c0,0.368,0.275,0.68,0.638,0.735
		c20.736,3.109,32.661,15.034,35.775,35.775c0.051,0.363,0.358,0.633,0.731,0.633h0.265c0.321,0,0.6-0.237,0.647-0.554
		C152.855,295.173,164.78,283.22,185.544,280.106z"/>
</g>
<g>
</g>
<g>
</g>
<g>
</g>
<g>
</g>
<g>
</g>
<g>
</g>
<g>
</g>
<g>
</g>
<g>
</g>
<g>
</g>
<g>
</g>
<g>
</g>
<g>
</g>
<g>
</g>
<g>
</g>
</svg>
