<?xml version="1.0" encoding="iso-8859-1"?>
<!-- Generator: Adobe Illustrator 19.0.0, SVG Export Plug-In . SVG Version: 6.00 Build 0)  -->
<svg version="1.1" id="Layer_1" xmlns="http://www.w3.org/2000/svg" xmlns:xlink="http://www.w3.org/1999/xlink" x="0px" y="0px"
	 viewBox="0 0 512 512" style="enable-background:new 0 0 512 512;" xml:space="preserve">
<circle style="fill:#00B0FF;" cx="256" cy="256" r="256"/>
<g>
	<path style="fill:#1A3B7E;" d="M389.576,355.146l-39.778-59.276c-1.601,0.703-2.891,1.578-3.654,2.723
		c-4.347,6.484,5.329,24.539-0.172,30.04c-5.502,5.497-23.557-4.175-30.045,0.168c-6.433,4.305-4.371,24.702-11.613,27.704
		c-4.924,2.039-12.642-4.906-19.489-8.876l35.998,53.653c1.778,2.639,4.911,4.031,8.052,3.584c3.156-0.456,5.762-2.672,6.717-5.711
		l8.765-27.82c1.159-3.691,4.729-6.088,8.588-5.762l29.058,2.434c3.174,0.27,6.218-1.308,7.829-4.049
		C391.457,361.211,391.35,357.79,389.576,355.146z"/>
	<path style="fill:#1A3B7E;" d="M205.954,356.506c-7.238-3.007-5.181-23.398-11.618-27.713c-6.484-4.343-24.539,5.334-30.04-0.168
		c-5.497-5.497,4.175-23.557-0.168-30.04c-0.735-1.098-1.964-1.936-3.472-2.625l-39.722,59.192c-1.773,2.644-1.876,6.07-0.261,8.816
		c1.61,2.742,4.655,4.319,7.829,4.049l29.058-2.434c3.859-0.321,7.429,2.071,8.588,5.762l8.765,27.82
		c0.954,3.035,3.565,5.255,6.712,5.711c3.151,0.452,6.284-0.94,8.048-3.584l36.147-53.858
		C218.875,351.353,210.972,358.582,205.954,356.506z"/>
</g>
<path style="fill:#2962FF;" d="M383.6,237.791c0,7.941-19.628,13.861-21.108,21.364c-1.531,7.74,14.308,20.699,11.357,27.816
	c-3.007,7.247-23.394,5.18-27.704,11.622c-4.347,6.484,5.329,24.539-0.172,30.04c-5.502,5.497-23.557-4.175-30.045,0.168
	c-6.433,4.305-4.371,24.702-11.613,27.704c-7.112,2.951-20.075-12.898-27.811-11.362c-7.503,1.485-13.424,21.113-21.369,21.113
	c-7.945,0-13.857-19.628-21.364-21.113c-7.74-1.531-20.699,14.313-27.82,11.362c-7.238-3.007-5.18-23.398-11.618-27.709
	c-6.484-4.343-24.539,5.334-30.036-0.172c-5.502-5.497,4.17-23.557-0.172-30.04c-4.31-6.437-24.702-4.371-27.704-11.618
	c-2.951-7.112,12.898-20.075,11.357-27.811c-1.48-7.508-21.108-13.424-21.108-21.364c0-7.945,19.628-13.861,21.118-21.369
	c1.527-7.736-14.317-20.694-11.362-27.816c3.002-7.242,23.398-5.18,27.704-11.618c4.343-6.488-5.334-24.543,0.168-30.045
	c5.502-5.497,23.561,4.175,30.045-0.163c6.437-4.31,4.371-24.706,11.618-27.709c7.117-2.951,20.075,12.898,27.811,11.366
	c7.508-1.485,13.424-21.118,21.364-21.118c7.945,0,13.866,19.633,21.369,21.118c7.736,1.527,20.694-14.313,27.816-11.362
	c7.242,3.007,5.181,23.398,11.618,27.709c6.488,4.343,24.543-5.334,30.045,0.168c5.497,5.502-4.175,23.557,0.163,30.04
	c4.31,6.437,24.706,4.375,27.709,11.618c2.951,7.117-12.898,20.075-11.362,27.811C363.971,223.93,383.6,229.846,383.6,237.791z"/>
<g>
	<path style="fill:#2979FF;" d="M345.982,146.953c-5.502-5.502-23.561,4.17-30.045-0.172c-6.437-4.305-4.375-24.706-11.618-27.704
		c-7.117-2.951-20.075,12.893-27.816,11.362c-7.503-1.485-13.424-21.118-21.369-21.118c-7.941,0-13.857,19.633-21.364,21.118
		c-7.736,1.527-20.689-14.317-27.811-11.366c-7.247,3.007-5.181,23.398-11.618,27.709c-6.488,4.343-24.543-5.334-30.045,0.163
		c-5.502,5.502,4.17,23.561-0.163,30.045c-4.315,6.437-24.711,4.375-27.709,11.618c-2.956,7.117,12.893,20.075,11.362,27.816
		c-1.489,7.508-21.118,13.424-21.118,21.369c0,7.941,19.628,13.857,21.108,21.364c1.536,7.736-14.308,20.694-11.357,27.811
		c3.007,7.247,23.394,5.181,27.704,11.618c4.347,6.488-5.329,24.543,0.168,30.04c0.168,0.168,0.377,0.279,0.568,0.419
		l181.527-181.527C346.256,147.326,346.145,147.116,345.982,146.953z"/>
	<circle style="fill:#2979FF;" cx="255.139" cy="237.801" r="86.812"/>
</g>
<path style="fill:#448AFF;" d="M255.134,150.979c-47.946,0-86.807,38.87-86.807,86.812c0,23.859,9.635,45.466,25.218,61.156
	l122.75-122.75C300.6,160.614,278.998,150.979,255.134,150.979z"/>
<circle style="fill:#FFFFFF;" cx="255.139" cy="237.801" r="56.632"/>
<g>
</g>
<g>
</g>
<g>
</g>
<g>
</g>
<g>
</g>
<g>
</g>
<g>
</g>
<g>
</g>
<g>
</g>
<g>
</g>
<g>
</g>
<g>
</g>
<g>
</g>
<g>
</g>
<g>
</g>
</svg>
