<?xml version="1.0" encoding="iso-8859-1"?>
<!-- Generator: Adobe Illustrator 19.0.0, SVG Export Plug-In . SVG Version: 6.00 Build 0)  -->
<svg version="1.1" id="Layer_1" xmlns="http://www.w3.org/2000/svg" xmlns:xlink="http://www.w3.org/1999/xlink" x="0px" y="0px"
	 viewBox="0 0 512 512" style="enable-background:new 0 0 512 512;" xml:space="preserve">
<circle style="fill:#FF5722;" cx="256" cy="256" r="256"/>
<path style="fill:#AC2200;" d="M255.409,404.945c-65.164,0-111.709-37.236-111.709-102.4c0-97.745,116.364-107.055,93.091-195.491
	c46.545,37.236,74.473,65.164,74.473,130.327c23.273-13.964,23.273-60.509,13.964-97.745
	C381.082,204.8,423.564,404.945,255.409,404.945z"/>
<path style="fill:#D22600;" d="M189.929,388.831l173.675-173.67c-8.513-28.16-21.108-53.555-34.793-71.112
	c-1.196-1.499-2.402-3.03-3.584-4.413c9.309,37.236,9.309,83.782-13.964,97.745c0-65.164-27.927-93.091-74.473-130.327
	C260.063,195.491,143.7,204.8,143.7,302.545C143.7,339.037,158.59,370.455,189.929,388.831z"/>
<path style="fill:#FFE4DE;" d="M301.954,320.233c0,26.377-20.685,47.476-46.545,47.476c-25.856,0-46.545-21.253-46.545-47.476
	c0-47.476,41.891-42.822,41.891-106.124C261.101,229.935,301.954,272.756,301.954,320.233z"/>
<path style="fill:#FFFFFF;" d="M250.754,214.109c0,63.302-41.891,58.647-41.891,106.124c0,13.759,5.73,26.112,14.881,34.788
	l70.945-70.954C282.475,252.062,258.374,225.759,250.754,214.109z"/>
<g>
</g>
<g>
</g>
<g>
</g>
<g>
</g>
<g>
</g>
<g>
</g>
<g>
</g>
<g>
</g>
<g>
</g>
<g>
</g>
<g>
</g>
<g>
</g>
<g>
</g>
<g>
</g>
<g>
</g>
</svg>
