<?xml version="1.0" encoding="iso-8859-1"?>
<!-- Generator: Adobe Illustrator 19.0.0, SVG Export Plug-In . SVG Version: 6.00 Build 0)  -->
<svg version="1.1" id="Layer_1" xmlns="http://www.w3.org/2000/svg" xmlns:xlink="http://www.w3.org/1999/xlink" x="0px" y="0px"
	 viewBox="0 0 512 512" style="enable-background:new 0 0 512 512;" xml:space="preserve">
<circle style="fill:#E04F5F;" cx="256" cy="256" r="256"/>
<path style="fill:#E2E4E5;" d="M397.722,112.822c-64.13-13.61-119.803,15.765-167.084,67.542
	c-74.985,0-123.583,65.964-123.583,93.091h41.891l9.477,12.637c-1.778,3.319-3.537,6.656-5.278,10.021
	c-3.025,5.73-5.99,11.585-8.853,17.478l52.959,52.955c5.925-2.83,11.846-5.725,17.641-8.685c3.011-1.531,5.995-3.091,8.969-4.655
	l13.135,9.849v41.891c26.461,0,93.091-47.421,93.091-123.741C382.203,233.602,411.406,177.301,397.722,112.822z"/>
<path style="fill:#F0F1F1;" d="M214.891,357.855c-5.795,2.96-11.715,5.855-17.641,8.69l-52.955-52.955
	c2.863-5.893,5.827-11.748,8.853-17.478c59.671-115.423,141.13-205.242,244.573-183.291
	C419.672,216.264,331.269,298.682,214.891,357.855z"/>
<path style="fill:#FFFFFF;" d="M230.67,180.331c-26.773,29.31-50.851,65.792-72.243,105.761l0,0
	c-0.186,0.344-4.38,8.28-5.278,10.021c-3.025,5.725-5.99,11.585-8.853,17.473l26.084,26.084l226.923-226.923
	C331.259,98.904,275.628,131.105,230.67,180.331z"/>
<circle style="fill:#40C9E7;" cx="341.783" cy="168.774" r="37.236"/>
<path style="fill:#3E3E3F;" d="M214.891,357.855c-5.795,2.96-11.715,5.855-17.641,8.69l-52.955-52.955
	c2.863-5.893,5.827-11.748,8.853-17.478L214.891,357.855z"/>
<path style="fill:#FACB1B;" d="M191.628,360.862c0,13.265-7.633,22.435-20.015,28.3c1.489-5.585,1.396-11.823,1.396-18.991
	c-20.992,26.475-39.196,28.113-55.971,27.927c0-24.199,10.743-42.226,27.927-55.855c-7.401,0-13.722-0.14-19.493,1.536
	c5.865-12.8,15.109-20.154,28.886-20.154L191.628,360.862z"/>
<path style="fill:#818184;" d="M183.808,326.609l-13.172,13.172l-26.345-26.345c2.886-5.865,5.818-11.729,8.844-17.455
	L183.808,326.609z"/>
<path style="fill:#6FDAF1;" d="M367.714,142.289v0.047l-52.457,52.643c-14.522-14.569-14.615-38.116-0.093-52.689
	C329.681,127.767,353.75,127.767,367.714,142.289z"/>
<g>
</g>
<g>
</g>
<g>
</g>
<g>
</g>
<g>
</g>
<g>
</g>
<g>
</g>
<g>
</g>
<g>
</g>
<g>
</g>
<g>
</g>
<g>
</g>
<g>
</g>
<g>
</g>
<g>
</g>
</svg>
