<?xml version="1.0" encoding="iso-8859-1"?>
<!-- Generator: Adobe Illustrator 19.0.0, SVG Export Plug-In . SVG Version: 6.00 Build 0)  -->
<svg version="1.1" id="Layer_1" xmlns="http://www.w3.org/2000/svg" xmlns:xlink="http://www.w3.org/1999/xlink" x="0px" y="0px"
	 viewBox="0 0 512 512" style="enable-background:new 0 0 512 512;" xml:space="preserve">
<circle style="fill:#FABC3D;" cx="256" cy="256" r="256"/>
<g>
	<path style="fill:#F37A10;" d="M218.764,395.636c-51.414,0-93.091-41.677-93.091-93.091c0-60.509,93.091-111.709,93.091-186.182
		c0,0,65.164,60.509,23.273,121.018c0,0,37.236-23.273,37.236-65.164C325.343,218.289,347.192,395.636,218.764,395.636z"/>
	<path style="fill:#F37A10;" d="M279.273,172.218c0,41.891-37.236,65.164-37.236,65.164
		c41.891-60.509-23.273-121.018-23.273-121.018c0,74.473-93.091,125.673-93.091,186.182c0,23.603,8.853,45.089,23.329,61.496
		l153.139-153.139C295.987,194.653,288.079,181.025,279.273,172.218z"/>
</g>
<path style="fill:#FBEC9A;" d="M265.309,316.509c0,28.276-22.924,51.2-51.2,51.2s-51.2-22.924-51.2-51.2
	c0-20.75,12.344-38.619,30.092-46.662c-16.71,18.348,1.112,35.365,3.845,34.639c-9.891-16.677,20.168-38.204,11.055-62.45
	C231.177,242.036,265.309,288.233,265.309,316.509z"/>
<polygon style="fill:#FCF1E2;" points="269.992,307.987 275.489,325.772 404.945,285.775 404.945,266.287 "/>
<path style="fill:#FCF6C2;" d="M207.905,242.036c9.114,24.241-20.945,45.768-11.055,62.45c-2.732,0.726-20.559-16.291-3.845-34.634
	c-17.752,8.038-30.096,25.907-30.096,46.657c0,9.63,2.709,18.604,7.331,26.298l74.673-74.673
	C233.542,253.314,219.401,242.036,207.905,242.036z"/>
<path style="fill:#DF2C2C;" d="M276.862,330.221l-8.243-26.685c0,0-14.718-0.326-41.398,7.917
	c-13.154,4.063-20.62,11.45-16.738,24.66c3.989,13.582,14.206,15.099,27.732,10.92C264.895,338.79,276.862,330.221,276.862,330.221z
	"/>
<g>
</g>
<g>
</g>
<g>
</g>
<g>
</g>
<g>
</g>
<g>
</g>
<g>
</g>
<g>
</g>
<g>
</g>
<g>
</g>
<g>
</g>
<g>
</g>
<g>
</g>
<g>
</g>
<g>
</g>
</svg>
