<?xml version="1.0" encoding="iso-8859-1"?>
<!-- Generator: Adobe Illustrator 19.0.0, SVG Export Plug-In . SVG Version: 6.00 Build 0)  -->
<svg version="1.1" id="Layer_1" xmlns="http://www.w3.org/2000/svg" xmlns:xlink="http://www.w3.org/1999/xlink" x="0px" y="0px"
	 viewBox="0 0 512 512" style="enable-background:new 0 0 512 512;" xml:space="preserve">
<circle style="fill:#FABC3D;" cx="256" cy="256" r="256"/>
<path style="fill:#DF2C2C;" d="M345.372,224.87c1.247,3.579-1.299,7.322-5.097,7.322h-59.662c-23.971,0-43.39,19.419-43.39,43.39
	c0,6.619-1.573,30.32,13.233,30.32c21.779,0,33.913,24.483,28.798,45.559c-4.175,17.138-19.526,32.54-50.437,32.54
	c-31.618,0-43.608-20.503-50.93-17.576c-7.322,2.928-18.441,1.68-27.443-4.389c-29.831-20.233-43.39-60.044-43.39-97.303
	c0-65.899,53.425-119.319,119.319-119.319c36.99,0,73.384,16.868,97.192,43.338c5.967,6.67,11.171,13.936,15.351,21.695
	c1.95,3.523,3.635,7.107,5.097,10.845C344.506,222.483,344.934,223.674,345.372,224.87z"/>
<path style="fill:#FFFFFF;" d="M338.916,210.441h-58.303v-21.695h42.957C329.532,195.421,334.741,202.687,338.916,210.441z"/>
<path style="fill:#3E3E3F;" d="M371.638,274.469c-1.787-1.173-4.045-1.559-6.125-1.038l-73.142,18.283l-22.7-68.096h70.484
	c1.587,0,3.063-0.81,3.919-2.146c0.856-1.336,0.973-3.016,0.307-4.459l-2.853-6.195c-0.759-1.652-2.411-2.709-4.226-2.709h-72.96
	c-37.278,0-56.781,36.822-56.781,56.562v81.357c0,4.273,3.477,7.754,7.75,7.754h81.413l9.081,27.243
	c1.057,3.17,4.008,5.302,7.35,5.302h70.507c3.184,0,6.009-1.908,7.191-4.859C413.859,324.18,409.372,299.18,371.638,274.469z
	 M365.936,289.303c18.693,12.8,26.703,24.539,22.305,48.98h-80.347l-10.608-31.818L365.936,289.303z M253.854,225.182l23.436,70.302
	l-16.673,4.166l-37.558-28.165v-6.805C223.06,254.092,233.523,231.284,253.854,225.182z M223.06,338.283v-47.416l31.204,23.403
	c1.843,1.382,4.301,1.88,6.53,1.322l21.411-5.353l9.351,28.048H223.06V338.283z M378.387,370.823h-59.648l-5.679-17.04h71.312
	C382.767,358.977,380.779,364.623,378.387,370.823z"/>
<circle style="fill:#FFFFFF;" cx="217.186" cy="343.98" r="21.695"/>
<path style="fill:#FA5655;" d="M226.374,145.413c-65.894,0-119.319,53.425-119.319,119.319c0,12.646,1.601,25.572,4.836,37.944
	l151.626-151.626C251.518,147.414,238.988,145.413,226.374,145.413z"/>
<g>
</g>
<g>
</g>
<g>
</g>
<g>
</g>
<g>
</g>
<g>
</g>
<g>
</g>
<g>
</g>
<g>
</g>
<g>
</g>
<g>
</g>
<g>
</g>
<g>
</g>
<g>
</g>
<g>
</g>
</svg>
