<?xml version="1.0" encoding="iso-8859-1"?>
<!-- Generator: Adobe Illustrator 19.0.0, SVG Export Plug-In . SVG Version: 6.00 Build 0)  -->
<svg version="1.1" id="Layer_1" xmlns="http://www.w3.org/2000/svg" xmlns:xlink="http://www.w3.org/1999/xlink" x="0px" y="0px"
	 viewBox="0 0 512 512" style="enable-background:new 0 0 512 512;" xml:space="preserve">
<circle style="fill:#FF5722;" cx="256" cy="256" r="256"/>
<path style="fill:#AC2200;" d="M345.372,224.87c1.247,3.584-1.303,7.322-5.101,7.322h-59.662c-23.966,0-43.385,19.419-43.385,43.385
	c0,6.619-1.573,30.324,13.233,30.324c21.779,0,33.913,24.483,28.802,45.559c-4.175,17.133-19.526,32.54-50.441,32.54
	c-31.623,0-43.608-20.503-50.93-17.571c-7.322,2.928-18.441,1.68-27.443-4.389c-29.831-20.233-43.39-60.044-43.39-97.308
	c0-65.894,53.425-119.319,119.319-119.319c36.99,0,73.388,16.868,97.196,43.338c5.962,6.67,11.171,13.936,15.351,21.69
	c1.95,3.528,3.631,7.107,5.097,10.85C344.506,222.483,344.934,223.679,345.372,224.87z"/>
<path style="fill:#FFFFFF;" d="M338.916,210.441h-58.307v-21.69h42.957C329.532,195.416,334.741,202.687,338.916,210.441z"/>
<path style="fill:#2C0900;" d="M371.638,274.469c-1.787-1.173-4.04-1.564-6.121-1.038l-73.142,18.283l-22.7-68.096h70.488
	c1.587,0,3.063-0.81,3.919-2.146c0.856-1.336,0.973-3.011,0.303-4.454l-2.849-6.195c-0.759-1.648-2.411-2.709-4.226-2.709h-72.969
	c-37.283,0-56.781,36.827-56.781,56.562v81.357c0,4.278,3.477,7.754,7.75,7.754h81.413l9.076,27.243
	c1.061,3.165,4.017,5.297,7.354,5.297h70.502c3.188,0,6.009-1.908,7.196-4.859C413.859,324.18,409.367,299.18,371.638,274.469z
	 M365.936,289.303c18.693,12.8,26.703,24.539,22.309,48.98h-80.356l-10.603-31.818L365.936,289.303z M253.854,225.187l23.431,70.302
	l-16.668,4.166L223.06,271.49v-6.81C223.06,254.096,233.528,231.284,253.854,225.187z M223.06,338.288v-47.421l31.204,23.398
	c1.843,1.382,4.301,1.88,6.53,1.317l21.411-5.353l9.351,28.053H223.06V338.288z M378.387,370.823h-59.648l-5.679-17.036h71.308
	C382.762,358.977,380.784,364.623,378.387,370.823z"/>
<circle style="fill:#FFFFFF;" cx="217.186" cy="343.976" r="21.695"/>
<path style="fill:#D22600;" d="M226.374,145.413c-65.894,0-119.319,53.425-119.319,119.319c0,12.646,1.606,25.572,4.836,37.939
	l151.622-151.622C251.518,147.414,238.988,145.413,226.374,145.413z"/>
<g>
</g>
<g>
</g>
<g>
</g>
<g>
</g>
<g>
</g>
<g>
</g>
<g>
</g>
<g>
</g>
<g>
</g>
<g>
</g>
<g>
</g>
<g>
</g>
<g>
</g>
<g>
</g>
<g>
</g>
</svg>
