<?xml version="1.0" encoding="iso-8859-1"?>
<!-- Generator: Adobe Illustrator 19.0.0, SVG Export Plug-In . SVG Version: 6.00 Build 0)  -->
<svg version="1.1" id="Layer_1" xmlns="http://www.w3.org/2000/svg" xmlns:xlink="http://www.w3.org/1999/xlink" x="0px" y="0px"
	 viewBox="0 0 512 512" style="enable-background:new 0 0 512 512;" xml:space="preserve">
<circle style="fill:#FABC3D;" cx="256" cy="256" r="256"/>
<path style="fill:#F0F1F1;" d="M277.229,296.118c0,0,3.025-8.746,3.025-27.834c37.888-12.474,82.665-57.67,94.906-95.418
	c14.378,3.053,23.124-2.83,27.788-2.467C416.582,216.469,325.809,309.602,277.229,296.118z"/>
<path style="fill:#84462D;" d="M262.27,226.704c-6.284-9.235-13.512-18.088-20.699-26.103
	c-65.019,71.322-159.544,147.973-128.47,179.084l28.677,20.378c5.976,5.976,17.594,5.125,19.977-2.988
	c21.425-72.909,61.268-106.598,109.726-155.057C268.805,236.856,265.691,231.731,262.27,226.704z"/>
<path style="fill:#9C6144;" d="M241.571,200.602C177.655,270.713,86.053,345.27,111.369,377.605l150.9-150.896
	C255.986,217.47,248.758,208.617,241.571,200.602z"/>
<path style="fill:#DF2C2C;" d="M293.455,115.675c-10.333-11.171-27.788-11.543-38.54-0.791l-30.348,30.348
	c-11.357,11.357-10.11,29.952,2.234,39.801c20.876,20.871,49.906,53.82,53.574,83.27c37.888-12.474,82.665-57.67,94.906-95.418
	C348.006,167.824,311.794,135.466,293.455,115.675z"/>
<path style="fill:#FA5655;" d="M293.455,115.679c-10.333-11.171-27.788-11.543-38.54-0.791l-30.348,30.348
	c-11.376,11.376-10.091,29.971,2.234,39.796c16.016,16.016,27.397,29.77,35.491,41.654l73.402-73.402
	C318.18,140.516,299.771,122.48,293.455,115.679z"/>
<g>
</g>
<g>
</g>
<g>
</g>
<g>
</g>
<g>
</g>
<g>
</g>
<g>
</g>
<g>
</g>
<g>
</g>
<g>
</g>
<g>
</g>
<g>
</g>
<g>
</g>
<g>
</g>
<g>
</g>
</svg>
