<?xml version="1.0" encoding="iso-8859-1"?>
<!-- Generator: Adobe Illustrator 19.0.0, SVG Export Plug-In . SVG Version: 6.00 Build 0)  -->
<svg version="1.1" id="Layer_1" xmlns="http://www.w3.org/2000/svg" xmlns:xlink="http://www.w3.org/1999/xlink" x="0px" y="0px"
	 viewBox="0 0 512 512" style="enable-background:new 0 0 512 512;" xml:space="preserve">
<circle style="fill:#E04F5F;" cx="256" cy="256" r="256"/>
<path style="fill:#FACB1B;" d="M378.428,307.526L339.782,256l38.647-51.526c11.767,2.071,21.862-7.01,21.862-18.292
	c0-10.282-8.336-18.618-18.618-18.618c-8.667,0-15.886,5.949-17.962,13.964h-70.474l-22.374-44.749
	c2.327-3.105,3.756-6.926,3.756-11.106c0-10.282-8.336-18.618-18.618-18.618c-10.282,0-18.618,8.336-18.618,18.618
	c0,4.18,1.429,8.001,3.756,11.106l-22.374,44.749h-70.474c-2.076-8.015-9.295-13.964-17.962-13.964
	c-10.282,0-18.618,8.336-18.618,18.618c0,11.264,10.077,20.368,21.862,18.292L172.218,256l-38.647,51.526
	c-11.767-2.071-21.862,7.01-21.862,18.292c0,10.282,8.336,18.618,18.618,18.618c8.667,0,15.886-5.948,17.962-13.964h70.474
	l22.374,44.749c-2.327,3.105-3.756,6.926-3.756,11.106c0,10.282,8.336,18.618,18.618,18.618c10.282,0,18.618-8.336,18.618-18.618
	c0-4.18-1.429-8.001-3.756-11.106l22.374-44.749h70.474c2.076,8.015,9.295,13.964,17.962,13.964
	c10.282,0,18.618-8.336,18.618-18.618C400.291,314.554,390.214,305.45,378.428,307.526z"/>
<g>
	<path style="fill:#FBE158;" d="M293.236,181.527l-22.374-44.749c2.327-3.105,3.756-6.926,3.756-11.106
		c0-10.282-8.336-18.618-18.618-18.618c-10.282,0-18.618,8.336-18.618,18.618c0,4.18,1.429,8.001,3.756,11.106l-22.374,44.749
		h-70.474c-2.076-8.015-9.295-13.964-17.962-13.964c-10.282,0-18.618,8.336-18.618,18.618c0,11.264,10.077,20.364,21.862,18.292
		L172.218,256l-38.647,51.526c-11.767-2.071-21.862,7.01-21.862,18.292c0,10.282,8.336,18.618,18.618,18.618
		c8.667,0,15.886-5.948,17.962-13.964h33.136L330.37,181.527H293.236z"/>
	<circle style="fill:#FBE158;" cx="256" cy="256" r="65.164"/>
</g>
<path style="fill:#FBEC9A;" d="M256,190.836c-35.989,0-65.164,29.175-65.164,65.164c0,17.967,7.275,34.234,19.037,46.024
	l92.151-92.151C290.234,198.111,273.967,190.836,256,190.836z"/>
<circle style="fill:#F3B607;" cx="256" cy="256" r="51.2"/>
<path style="fill:#FACB1B;" d="M256,204.8c-28.276,0-51.2,22.924-51.2,51.2c0,14.113,5.711,26.889,14.946,36.152l72.401-72.401
	C282.889,210.511,270.113,204.8,256,204.8z"/>
<g>
</g>
<g>
</g>
<g>
</g>
<g>
</g>
<g>
</g>
<g>
</g>
<g>
</g>
<g>
</g>
<g>
</g>
<g>
</g>
<g>
</g>
<g>
</g>
<g>
</g>
<g>
</g>
<g>
</g>
</svg>
