<?xml version="1.0" encoding="iso-8859-1"?>
<!-- Generator: Adobe Illustrator 19.0.0, SVG Export Plug-In . SVG Version: 6.00 Build 0)  -->
<svg version="1.1" id="Layer_1" xmlns="http://www.w3.org/2000/svg" xmlns:xlink="http://www.w3.org/1999/xlink" x="0px" y="0px"
	 viewBox="0 0 512 512" style="enable-background:new 0 0 512 512;" xml:space="preserve">
<circle style="fill:#25B7D3;" cx="256" cy="256" r="256"/>
<path style="fill:#F0F1F1;" d="M320.344,196.254c-14.406-42.342-39.931-61.272-82.674-61.272h-56.436
	c-40.904,0-74.179,33.275-74.179,74.184c0,5.139,4.17,9.309,9.309,9.309s9.309-4.17,9.309-9.309
	c0-30.641,24.925-55.566,55.561-55.566h56.436c34.467,0,53.369,14.168,65.103,48.798L320.344,196.254z"/>
<g>
	<path style="fill:#3E3E3F;" d="M359.894,256.102c0.591,1.196,0.642,2.588,0.14,3.821c-0.503,1.233-1.513,2.197-2.774,2.634
		l-42.775,14.969c-1.261,0.442-2.648,0.321-3.812-0.33c-1.164-0.652-1.992-1.773-2.276-3.077l-14.019-64.749
		c-0.498-2.295,0.796-4.603,3.011-5.376l27.383-9.584c2.216-0.777,4.664,0.223,5.706,2.327L359.894,256.102z"/>
	<path style="fill:#3E3E3F;" d="M199.326,163.556c2.839-0.382,5.716-0.647,8.657-0.647h1.303c2.942,0,5.818,0.265,8.657,0.647
		v-51.847c0-2.569-2.085-4.655-4.655-4.655h-88.436v9.309l74.473,9.309V163.556z"/>
</g>
<path style="fill:#DF2C2C;" d="M209.287,162.909h-1.303c-35.631,0-64.512,28.881-64.512,64.512v168.215
	c0,5.143,4.166,9.309,9.309,9.309H264.49c5.143,0,9.309-4.166,9.309-9.309V227.421C273.799,191.791,244.913,162.909,209.287,162.909
	z"/>
<path style="fill:#FA5655;" d="M208.635,162.909h-0.652c-35.631,0-64.512,28.881-64.512,64.512v168.215
	c0,5.139,4.166,9.309,9.309,9.309h55.855V162.909z"/>
<path style="fill:#FACB1B;" d="M361.216,384.121c0-6.139-4.613-12.325-8.918-19.214l-29.766,29.766
	c3.626,6.121,10.231,10.273,17.859,10.273C351.893,404.945,361.216,395.622,361.216,384.121z"/>
<path style="fill:#DF2C2C;" d="M378.694,338.511c-10.198-18.572-28.276-38.675-28.276-63.893c0,0-35.086,30.073-20.052,70.177
	c-5.013,0-15.039-15.039-15.039-25.065c0-0.321-20.052,10.026-20.052,40.099c0,16.822,9.225,31.465,22.872,39.219
	c6.572,3.738,14.15,5.897,22.244,5.897c-7.633,0-14.234-4.152-17.859-10.273c-1.839-3.105-2.96-6.684-2.96-10.552
	c0-13.88,9.253-18.655,9.253-18.506c0,4.627,4.627,11.567,6.94,11.567c-6.94-18.511,9.253-32.386,9.253-32.386
	c0,7.55,3.519,14.099,7.28,20.112c4.305,6.889,8.918,13.079,8.918,19.214c0,11.501-9.323,20.824-20.82,20.824
	c24.916,0,45.112-20.196,45.112-45.112C385.508,352.824,382.683,345.782,378.694,338.511z"/>
<path style="fill:#FA5655;" d="M319.572,384.121c0-13.88,9.253-18.655,9.253-18.506c0,4.627,4.627,11.567,6.94,11.567
	c-6.94-18.511,9.253-32.386,9.253-32.386c0,7.55,3.519,14.099,7.28,20.112l26.396-26.396
	c-10.198-18.572-28.276-38.675-28.276-63.893c0,0-35.086,30.073-20.052,70.177c-5.013,0-15.039-15.039-15.039-25.065
	c0-0.321-20.052,10.026-20.052,40.099c0,16.822,9.225,31.465,22.872,39.219l4.38-4.38
	C320.698,391.568,319.572,387.989,319.572,384.121z"/>
<path style="fill:#FBE158;" d="M335.765,377.186c-2.313,0-6.94-6.94-6.94-11.567c0-0.149-9.253,4.627-9.253,18.506
	c0,3.868,1.126,7.447,2.96,10.552l29.766-29.766c-3.756-6.014-7.28-12.563-7.28-20.112
	C345.018,344.795,328.825,358.675,335.765,377.186z"/>
<g>
</g>
<g>
</g>
<g>
</g>
<g>
</g>
<g>
</g>
<g>
</g>
<g>
</g>
<g>
</g>
<g>
</g>
<g>
</g>
<g>
</g>
<g>
</g>
<g>
</g>
<g>
</g>
<g>
</g>
</svg>
