<?xml version="1.0" encoding="iso-8859-1"?>
<!-- Generator: Adobe Illustrator 19.0.0, SVG Export Plug-In . SVG Version: 6.00 Build 0)  -->
<svg version="1.1" id="Layer_1" xmlns="http://www.w3.org/2000/svg" xmlns:xlink="http://www.w3.org/1999/xlink" x="0px" y="0px"
	 viewBox="0 0 512 512" style="enable-background:new 0 0 512 512;" xml:space="preserve">
<circle style="fill:#FABC3D;" cx="256" cy="256" r="256"/>
<path style="fill:#099686;" d="M255.59,282.736l25.335-25.335l-26.331-26.331l-25.335,25.335c-20.755-9.9-46.341-6.321-63.53,10.868
	l-55.948,55.957c-3.635,3.635-3.635,9.528,0,13.163l65.825,65.825c3.635,3.635,9.528,3.635,13.163,0l55.952-55.952
	C261.911,329.076,265.495,303.495,255.59,282.736z"/>
<path style="fill:#12B2A0;" d="M267.85,244.326l-13.251-13.256l-25.335,25.335c-20.755-9.9-46.341-6.321-63.53,10.868
	l-55.952,55.957c-3.635,3.635-3.635,9.528,0,13.163l33.001,33.001L267.85,244.326z"/>
<path style="fill:#FA5655;" d="M378.256,189.012c0,30.371-26.494,53.537-56.869,53.537c-30.371,0-51.773-21.43-55.617-51.554
	c-1.876-14.685-14.373-28.435-14.373-28.435s14.997-9.998,29.994,9.998c-4.999-19.996,14.997-64.991,64.991-64.991
	c-19.996,19.996-9.165,49.994-4.999,49.994c3.7,0,14.997-9.998,14.997-29.994c9.421,4.399,15.891,48.724,3.854,71.242
	c11.138-4.794,15.667-17.571,15.667-17.571S378.256,183.491,378.256,189.012z"/>
<path style="fill:#FBEC9A;" d="M334.08,208.589c-0.833,13.54-14.392,28.956-29.58,28.956c-15.188,0-24.981-11.455-24.981-25.828
	c0-18.749,28.104-27.913,29.98-47.7c2.499,0,12.707,21.872,6.456,33.327c2.686-3.202,15.206-12.288,15.206-12.288
	S334.913,195.049,334.08,208.589z"/>
<path style="fill:#12B2A0;" d="M261.18,211.326c1.82-1.82,4.766-1.82,6.582,0l32.912,32.912c1.82,1.82,1.82,4.766,0,6.582
	l-9.872,9.872c-1.82,1.82-4.766,1.82-6.582,0l-32.912-32.912c-1.82-1.82-1.82-4.766,0-6.582L261.18,211.326z"/>
<rect x="123.059" y="309.809" transform="matrix(-0.7071 -0.7071 0.7071 -0.7071 69.8993 695.116)" style="fill:#F0F1F1;" width="111.708" height="46.545"/>
<path style="fill:#47C4B7;" d="M267.762,211.326c-1.815-1.82-4.766-1.82-6.582,0l-9.872,9.872c-1.82,1.815-1.82,4.766,0,6.582
	l16.542,16.547l16.458-16.458L267.762,211.326z"/>
<rect x="135.924" y="285.421" transform="matrix(-0.7071 0.7071 -0.7071 -0.7071 493.3851 422.4678)" style="fill:#FFFFFF;" width="46.545" height="55.994"/>
<g>
</g>
<g>
</g>
<g>
</g>
<g>
</g>
<g>
</g>
<g>
</g>
<g>
</g>
<g>
</g>
<g>
</g>
<g>
</g>
<g>
</g>
<g>
</g>
<g>
</g>
<g>
</g>
<g>
</g>
</svg>
