<?xml version="1.0" encoding="iso-8859-1"?>
<!-- Generator: Adobe Illustrator 19.0.0, SVG Export Plug-In . SVG Version: 6.00 Build 0)  -->
<svg version="1.1" id="Layer_1" xmlns="http://www.w3.org/2000/svg" xmlns:xlink="http://www.w3.org/1999/xlink" x="0px" y="0px"
	 viewBox="0 0 512 512" style="enable-background:new 0 0 512 512;" xml:space="preserve">
<circle style="fill:#E04F5F;" cx="256" cy="256" r="256"/>
<path style="fill:#3E3E3F;" d="M366.154,179.284l-39.875-51.54c-0.368-0.475-0.67-0.977-0.931-1.494L136.215,238.694
	c-14.266,8.481-24.255,22.626-27.48,38.903c-3.226,16.282,0.619,33.164,10.57,46.443c10.226,13.642,25.898,21.685,41.332,23.133
	c18.185,1.429,33.843-4.669,45.424-15.514l161.373-151.031C366.974,180.238,366.541,179.786,366.154,179.284z"/>
<path style="fill:#FACB1B;" d="M158.888,211.819c-7.596-6.679-19.377-13.689-35.542-13.689c-2.569,0-4.655,2.085-4.655,4.655
	c0,2.569,2.085,4.655,4.655,4.655c11.781,0,20.764,4.543,27.043,9.402L158.888,211.819z"/>
<path style="fill:#3E3E3F;" d="M145.762,233.021l30.008-17.841l-1.108-1.871c-2.607-4.408-8.341-5.883-12.749-3.277l-14.024,8.29
	c-4.408,2.607-5.883,8.341-3.277,12.749L145.762,233.021z"/>
<g>
	<path style="fill:#5B5C5F;" d="M388.24,162.197l-39.875-51.54c-3.133-4.049-9.011-4.799-13.061-1.666l-7.363,5.697
		c-4.049,3.133-4.799,9.011-1.666,13.061l39.875,51.54c3.133,4.049,9.011,4.799,13.061,1.666l7.363-5.697
		C390.623,172.125,391.373,166.246,388.24,162.197z"/>
	<path style="fill:#5B5C5F;" d="M182.156,338.036l-67.3,43.892c-4.291,2.793-7.801,9.272-7.801,14.392s4.008,8.09,8.904,6.595
		l83.703-25.474C190.282,366.587,184.003,353.01,182.156,338.036z"/>
</g>
<circle style="fill:#F0F1F1;" cx="256" cy="328.844" r="74.473"/>
<circle style="fill:#9E9FA0;" cx="256" cy="328.844" r="51.2"/>
<circle style="fill:#3E3E3F;" cx="256" cy="328.844" r="18.618"/>
<path style="fill:#9E9FA0;" d="M348.365,110.657c-3.133-4.049-9.011-4.799-13.061-1.666l-7.363,5.697
	c-4.049,3.133-4.799,9.011-1.666,13.061l20.489,26.484l22.277-16.845L348.365,110.657z"/>
<path style="fill:#5B5C5F;" d="M326.279,127.744c-0.368-0.475-0.67-0.977-0.931-1.494L136.215,238.694
	c-14.266,8.481-24.255,22.626-27.48,38.903s0.619,33.164,10.57,46.443c0.349,0.47,0.759,0.875,1.122,1.331l226.341-171.148
	L326.279,127.744z"/>
<g>
</g>
<g>
</g>
<g>
</g>
<g>
</g>
<g>
</g>
<g>
</g>
<g>
</g>
<g>
</g>
<g>
</g>
<g>
</g>
<g>
</g>
<g>
</g>
<g>
</g>
<g>
</g>
<g>
</g>
</svg>
