<?xml version="1.0" encoding="iso-8859-1"?>
<!-- Generator: Adobe Illustrator 19.0.0, SVG Export Plug-In . SVG Version: 6.00 Build 0)  -->
<svg version="1.1" id="Layer_1" xmlns="http://www.w3.org/2000/svg" xmlns:xlink="http://www.w3.org/1999/xlink" x="0px" y="0px"
	 viewBox="0 0 512 512" style="enable-background:new 0 0 512 512;" xml:space="preserve">
<circle style="fill:#25B7D3;" cx="256" cy="256" r="256"/>
<polygon style="fill:#FACB1B;" points="353.918,258.742 298.431,275.247 382.785,129.215 236.753,213.569 253.258,158.082 
	181.648,211.866 119.743,298.906 107.055,351.251 122.778,389.222 160.749,404.945 213.094,392.257 300.134,330.352 "/>
<g>
	<polygon style="fill:#FBE158;" points="236.753,213.569 253.258,158.082 181.648,211.866 119.743,298.906 107.055,351.251 
		122.661,388.943 381.845,129.755 	"/>
	<polygon style="fill:#FBE158;" points="190.282,154.847 171.324,160.489 200.145,110.597 150.253,139.418 155.895,120.46 
		131.426,138.836 110.275,168.574 105.942,186.456 111.313,199.429 124.286,204.8 142.168,200.467 171.906,179.316 	"/>
</g>
<polygon style="fill:#F99134;" points="140.13,170.901 124.877,165.818 112.668,178.022 117.755,193.28 133.013,198.367 
	145.217,186.159 "/>
<polygon style="fill:#FBE158;" points="390.428,354.993 371.47,360.634 400.291,310.742 350.399,339.563 356.04,320.605 
	331.571,338.981 310.421,368.719 306.088,386.602 311.459,399.574 324.431,404.945 342.314,400.612 372.052,379.462 "/>
<polygon style="fill:#F99134;" points="340.275,371.046 325.022,365.964 312.813,378.168 317.901,393.425 333.158,398.513 
	345.363,386.304 "/>
<polygon style="fill:#F37A10;" points="207.127,305.729 162.472,290.844 126.743,326.572 141.633,371.228 186.289,386.113 
	222.013,350.385 "/>
<polygon style="fill:#F99134;" points="162.472,290.844 126.743,326.572 141.405,370.548 206.448,305.506 "/>
<g>
</g>
<g>
</g>
<g>
</g>
<g>
</g>
<g>
</g>
<g>
</g>
<g>
</g>
<g>
</g>
<g>
</g>
<g>
</g>
<g>
</g>
<g>
</g>
<g>
</g>
<g>
</g>
<g>
</g>
</svg>
