<?xml version="1.0" encoding="iso-8859-1"?>
<!-- Generator: Adobe Illustrator 19.0.0, SVG Export Plug-In . SVG Version: 6.00 Build 0)  -->
<svg version="1.1" id="Layer_1" xmlns="http://www.w3.org/2000/svg" xmlns:xlink="http://www.w3.org/1999/xlink" x="0px" y="0px"
	 viewBox="0 0 512 512" style="enable-background:new 0 0 512 512;" xml:space="preserve">
<circle style="fill:#32BEA6;" cx="256" cy="256" r="256"/>
<path style="fill:#3E3E3F;" d="M144.291,349.091c0,0,41.891-37.236,93.091-37.236c50.525,0,78.387,39.792,164.11,9.309
	c0.754-0.265,1.313-0.903,1.489-1.68s-0.061-1.592-0.624-2.16l-16.03-11.376l16.97-21.625c0.908-0.908,0.908-2.383,0-3.291
	l-16.97-12.321l16.97-21.625c0.908-0.908,0.908-2.383,0-3.291l-16.97-12.321l16.97-21.625c0.908-0.908,0.908-2.383,0-3.291
	l-16.97-12.321l16.719-21.374c0.475-0.475,0.721-1.136,0.675-1.811c-0.047-0.675-0.386-1.294-0.926-1.699l-16.468-7.699
	l11.581-19.13c0.68-0.852,0.68-2.062-0.005-2.909c-0.684-0.852-1.862-1.112-2.844-0.633
	c-68.617,33.704-108.777-13.312-157.677-13.312c-46.545,0-93.091,37.236-93.091,37.236V349.091z"/>
<path style="fill:#5B5C5F;" d="M330.515,149.965c-33.992-4.98-61.77-24.292-93.133-24.292c-46.545,0-93.091,37.236-93.091,37.236
	v173.279L330.515,149.965z"/>
<path style="fill:#692E19;" d="M144.291,144.291c0-10.282-8.336-18.618-18.618-18.618s-18.618,8.336-18.618,18.618v260.655h37.236
	V144.291z"/>
<path style="fill:#FFFFFF;" d="M335.737,208.714c1.266-2.043,1.801-4.538,1.457-6.921c-1.01-6.982-6.461-10.868-12.055-10.864
	c2.174-5.162,0.684-11.697-5.381-15.323c-2.067-1.233-4.571-1.699-6.949-1.317c-8.876,1.424-12.628,10.04-9.588,16.849l-11.32,7.531
	c-7.061-6.335-16.361-10.217-26.591-10.217c-10.231,0-19.53,3.882-26.591,10.217l-11.32-7.531
	c3.039-6.814-0.712-15.425-9.588-16.849c-2.374-0.382-4.883,0.084-6.949,1.317c-6.065,3.626-7.554,10.161-5.381,15.323
	c-5.599-0.005-11.045,3.887-12.055,10.873c-0.344,2.383,0.195,4.873,1.462,6.921c4.743,7.647,14.145,7.787,19.256,2.346
	l12.349,8.215c-0.68,2.914-1.071,5.935-1.071,9.058c0,4.585,0.815,8.969,2.243,13.061l-11.129,7.401
	c-4.506-4.794-12.344-5.255-17.385-0.061c-3.072,3.16-4.133,7.838-2.686,12.004c1.848,5.297,6.572,8.201,11.408,8.197
	c-2.174,5.162-0.684,11.697,5.376,15.323c2.062,1.233,4.571,1.699,6.945,1.322c8.881-1.42,12.637-10.04,9.598-16.849l11.585-7.708
	v7.205c0,4.408,3.57,7.978,7.978,7.978h31.912c4.408,0,7.978-3.57,7.978-7.978v-7.205l11.585,7.708
	c-3.044,6.814,0.712,15.43,9.598,16.849c2.374,0.382,4.883-0.088,6.945-1.322c6.06-3.626,7.545-10.161,5.376-15.323
	c5.595,0.009,11.041-3.882,12.055-10.864c0.344-2.383-0.191-4.878-1.462-6.926c-4.743-7.647-14.145-7.787-19.256-2.346
	l-11.129-7.401c1.429-4.091,2.243-8.476,2.243-13.061c0-3.119-0.396-6.144-1.071-9.058l12.353-8.215
	C321.587,216.506,330.994,216.371,335.737,208.714z"/>
<circle style="fill:#3E3E3F;" cx="281.274" cy="220.346" r="7.978"/>
<path style="fill:#84462D;" d="M125.673,125.673c-10.282,0-18.618,8.336-18.618,18.618v260.655h18.618V125.673z"/>
<circle style="fill:#3E3E3F;" cx="249.344" cy="220.346" r="7.978"/>
<g>
</g>
<g>
</g>
<g>
</g>
<g>
</g>
<g>
</g>
<g>
</g>
<g>
</g>
<g>
</g>
<g>
</g>
<g>
</g>
<g>
</g>
<g>
</g>
<g>
</g>
<g>
</g>
<g>
</g>
</svg>
