<?xml version="1.0" encoding="iso-8859-1"?>
<!-- Generator: Adobe Illustrator 19.0.0, SVG Export Plug-In . SVG Version: 6.00 Build 0)  -->
<svg version="1.1" id="Layer_1" xmlns="http://www.w3.org/2000/svg" xmlns:xlink="http://www.w3.org/1999/xlink" x="0px" y="0px"
	 viewBox="0 0 512 512" style="enable-background:new 0 0 512 512;" xml:space="preserve">
<circle style="fill:#32BEA6;" cx="256" cy="256" r="256"/>
<path style="fill:#9C6144;" d="M396.009,108.87c-18.246,3.305-33.42,11.078-46.313,21.737
	c-52.824,43.352-66.7,136.518-89.041,162.63c-1.429-4.292-0.866-19.07-8.904-27.159c-3.207-3.226-7.736-5.423-14.369-5.423H128.372
	c-11.776,0-21.318,9.542-21.318,21.318v27.648c0,58.931,30.734,95.279,89.693,95.279c146.143,0,107.985-174.704,175.29-257.862
	c7.727-9.681,17.036-18.385,28.393-25.647C407.273,117.015,404.015,107.427,396.009,108.87z"/>
<path style="fill:#AF7653;" d="M185.386,260.655h-57.014c-11.776,0-21.318,9.542-21.318,21.318v27.648
	c0,52.671,24.869,90.214,78.331,94.771L185.386,260.655L185.386,260.655z"/>
<path style="fill:#692E19;" d="M396.009,108.87c-18.246,3.305-33.42,11.078-46.313,21.737c-3.212,2.634-6.279,5.474-9.216,8.462
	l21.834,21.83c2.942-4.799,6.144-9.439,9.723-13.866c7.727-9.681,17.036-18.385,28.393-25.647
	C407.273,117.015,404.015,107.427,396.009,108.87z"/>
<g>
	<path style="fill:#FFFFFF;" d="M258.504,107.055c-7.363,0-13.503,4.966-15.425,11.715c-14.355-4.236-27.536,6.665-27.536,20.508
		c0,11.864,9.616,21.485,21.481,21.485c11.864,0,21.481-9.616,21.481-21.485c8.899,0,16.114-7.215,16.114-16.109
		S267.404,107.055,258.504,107.055z"/>
	<path style="fill:#FFFFFF;" d="M223.418,199.252c0-12.437-9.43-22.561-21.509-23.901c0-0.093,0.028-0.177,0.028-0.27
		c0-11.864-9.616-21.481-21.481-21.481c-10.124,0-18.553,7.024-20.829,16.449c-15.374-2.127-27.508,9.826-27.508,23.831
		c0,9.7,5.748,18.004,13.996,21.853c2.672,13.568,14.625,23.799,28.97,23.799c11.562,0,21.546-6.661,26.396-16.337
		C213.765,222.054,223.418,211.833,223.418,199.252z"/>
</g>
<path style="fill:#692E19;" d="M250.256,265.309c-0.559,5.111-21.904,9.309-61.747,9.309s-72.145-4.166-72.145-9.309
	s32.303-9.714,72.145-9.309C228.631,256.405,250.745,260.878,250.256,265.309z"/>
<g>
</g>
<g>
</g>
<g>
</g>
<g>
</g>
<g>
</g>
<g>
</g>
<g>
</g>
<g>
</g>
<g>
</g>
<g>
</g>
<g>
</g>
<g>
</g>
<g>
</g>
<g>
</g>
<g>
</g>
</svg>
