<?xml version="1.0" encoding="iso-8859-1"?>
<!-- Generator: Adobe Illustrator 19.0.0, SVG Export Plug-In . SVG Version: 6.00 Build 0)  -->
<svg version="1.1" id="Layer_1" xmlns="http://www.w3.org/2000/svg" xmlns:xlink="http://www.w3.org/1999/xlink" x="0px" y="0px"
	 viewBox="0 0 512 512" style="enable-background:new 0 0 512 512;" xml:space="preserve">
<circle style="fill:#25B7D3;" cx="256" cy="256" r="256"/>
<path style="fill:#84462D;" d="M144.291,302.545c0,20.564,16.673,37.236,37.236,37.236h148.945
	c20.564,0,37.236-16.673,37.236-37.236s-16.673-37.236-37.236-37.236H181.527C160.963,265.309,144.291,281.982,144.291,302.545z"/>
<path style="fill:#AF7653;" d="M204.8,265.309c0,0,0-46.545,55.855-74.473c0,41.891,55.855,37.236,55.855,74.473
	C288.582,265.309,204.8,265.309,204.8,265.309z"/>
<g>
	<path style="fill:#E2E4E5;" d="M312.785,148.945c0,0,7.68,5.12,7.68,15.36s-7.68,25.6-2.56,35.84c-7.68,0-15.36-10.24-15.36-20.48
		C302.545,169.425,312.785,161.745,312.785,148.945z"/>
	<path style="fill:#E2E4E5;" d="M183.156,148.945c0,0,7.68,5.12,7.68,15.36s-7.68,25.6-2.56,35.84c-7.68,0-15.36-10.24-15.36-20.48
		C172.916,169.425,183.156,161.745,183.156,148.945z"/>
	<path style="fill:#E2E4E5;" d="M252.975,111.709c0,0,7.68,5.12,7.68,15.36s-7.68,25.6-2.56,35.84c-7.68,0-15.36-10.24-15.36-20.48
		C242.735,132.189,252.975,124.509,252.975,111.709z"/>
</g>
<path style="fill:#692E19;" d="M204.8,265.309c0,0,0-46.545,55.855-74.473c0,41.891,55.855,37.236,55.855,74.473
	C288.582,265.309,204.8,265.309,204.8,265.309z"/>
<path style="fill:#9C6144;" d="M260.655,265.309h-79.127c-20.564,0-37.236,16.673-37.236,37.236s16.673,37.236,37.236,37.236h79.127
	V265.309z"/>
<path style="fill:#692E19;" d="M107.055,367.709c0,20.564,16.673,37.236,37.236,37.236h223.418
	c20.564,0,37.236-16.673,37.236-37.236s-16.673-37.236-37.236-37.236H144.291C123.727,330.473,107.055,347.145,107.055,367.709z"/>
<path style="fill:#84462D;" d="M260.655,330.473H144.291c-20.564,0-37.236,16.673-37.236,37.236s16.673,37.236,37.236,37.236
	h116.364V330.473z"/>
<g>
</g>
<g>
</g>
<g>
</g>
<g>
</g>
<g>
</g>
<g>
</g>
<g>
</g>
<g>
</g>
<g>
</g>
<g>
</g>
<g>
</g>
<g>
</g>
<g>
</g>
<g>
</g>
<g>
</g>
</svg>
