<?xml version="1.0" encoding="iso-8859-1"?>
<!-- Generator: Adobe Illustrator 19.0.0, SVG Export Plug-In . SVG Version: 6.00 Build 0)  -->
<svg version="1.1" id="Layer_1" xmlns="http://www.w3.org/2000/svg" xmlns:xlink="http://www.w3.org/1999/xlink" x="0px" y="0px"
	 viewBox="0 0 512 512" style="enable-background:new 0 0 512 512;" xml:space="preserve">
<circle style="fill:#FABC3D;" cx="256" cy="256" r="256"/>
<path style="fill:#099686;" d="M280.483,343.645c0,0,35.188,7.354,53.807,39.331c-20.708,5.376-46.527,1.927-68.98-13.172
	l4.655,35.142h-27.927l4.655-35.142c-22.435,15.127-48.268,18.525-68.98,13.172c10.287-17.641,29.417-33.187,54.086-39.331
	c-50.269,0.791-101.143-22.109-124.742-49.757c23.505-7.308,75.776-2.048,113.199,15.872
	c-40.913-25.786-93.044-90.531-94.58-128.233c36.352,5.818,88.436,51.2,111.709,107.055
	C218.764,232.727,217.553,138.519,256,107.055c0,0,0,0,0.047,0.047c38.4,31.511,37.19,125.626,18.572,181.481
	c24.404-58.014,76.805-101.455,111.709-107.055c-1.531,37.73-53.471,102.195-98.257,128.326
	c39.736-17.655,92.951-23.366,116.876-15.965C381.393,321.489,330.659,344.343,280.483,343.645z"/>
<path style="fill:#12B2A0;" d="M256,404.945V107.055c-38.447,31.465-37.236,125.673-18.618,181.527
	c-23.273-55.855-75.357-101.236-111.709-107.055c1.536,37.702,53.667,102.447,94.58,128.233
	c-37.423-17.92-89.693-23.18-113.199-15.872c23.599,27.648,74.473,50.548,124.742,49.757c-24.669,6.144-43.799,21.69-54.086,39.331
	c20.713,5.353,46.545,1.955,68.98-13.172l-4.655,35.142H256z"/>
<g>
</g>
<g>
</g>
<g>
</g>
<g>
</g>
<g>
</g>
<g>
</g>
<g>
</g>
<g>
</g>
<g>
</g>
<g>
</g>
<g>
</g>
<g>
</g>
<g>
</g>
<g>
</g>
<g>
</g>
</svg>
