<?xml version="1.0" encoding="iso-8859-1"?>
<!-- Generator: Adobe Illustrator 19.0.0, SVG Export Plug-In . SVG Version: 6.00 Build 0)  -->
<svg version="1.1" id="Layer_1" xmlns="http://www.w3.org/2000/svg" xmlns:xlink="http://www.w3.org/1999/xlink" x="0px" y="0px"
	 viewBox="0 0 512 512" style="enable-background:new 0 0 512 512;" xml:space="preserve">
<circle style="fill:#E04F5F;" cx="256" cy="256" r="256"/>
<path style="fill:#FACB1B;" d="M357.706,255.269c1.592-1.061,2.304-3.039,1.75-4.873c-0.554-1.834-2.243-3.086-4.156-3.086h-99.919
	l120.367-114.223c1.243-1.243,1.615-3.109,0.94-4.734c-0.675-1.624-2.258-2.681-4.012-2.681H257.503
	c-1.341,0-2.607,0.619-3.43,1.676L134.656,275.056c-1.019,1.308-1.201,3.086-0.475,4.575c0.731,1.489,2.243,2.434,3.9,2.434h82.544
	L117.439,396.497c-1.434,1.638-1.434,4.087,0.005,5.725c1.438,1.638,3.863,1.96,5.674,0.749L357.706,255.269z"/>
<path style="fill:#FBE158;" d="M257.503,125.673c-1.341,0-2.607,0.619-3.43,1.676L134.656,275.056
	c-1.019,1.308-1.201,3.086-0.475,4.575c0.726,1.489,2.243,2.434,3.905,2.434h31.921L326.4,125.673H257.503z"/>
<g>
</g>
<g>
</g>
<g>
</g>
<g>
</g>
<g>
</g>
<g>
</g>
<g>
</g>
<g>
</g>
<g>
</g>
<g>
</g>
<g>
</g>
<g>
</g>
<g>
</g>
<g>
</g>
<g>
</g>
</svg>
