<?xml version="1.0" encoding="iso-8859-1"?>
<!-- Generator: Adobe Illustrator 19.0.0, SVG Export Plug-In . SVG Version: 6.00 Build 0)  -->
<svg version="1.1" id="Layer_1" xmlns="http://www.w3.org/2000/svg" xmlns:xlink="http://www.w3.org/1999/xlink" x="0px" y="0px"
	 viewBox="0 0 512 512" style="enable-background:new 0 0 512 512;" xml:space="preserve">
<circle style="fill:#00B0FF;" cx="256" cy="256" r="256"/>
<path style="fill:#E8EAF6;" d="M357.706,255.269c1.597-1.061,2.304-3.035,1.75-4.873c-0.554-1.834-2.243-3.081-4.161-3.081h-99.914
	l120.362-114.227c1.243-1.243,1.615-3.109,0.94-4.734c-0.675-1.624-2.253-2.681-4.012-2.681H257.503
	c-1.341,0-2.607,0.619-3.43,1.676L134.656,275.056c-1.019,1.308-1.201,3.086-0.475,4.575c0.726,1.489,2.243,2.43,3.905,2.43h82.539
	L117.434,396.502c-1.434,1.643-1.434,4.087,0.005,5.72c1.438,1.643,3.863,1.96,5.679,0.754L357.706,255.269z"/>
<path style="fill:#FFFFFF;" d="M257.503,125.673c-1.341,0-2.607,0.619-3.43,1.676L134.656,275.056
	c-1.019,1.308-1.201,3.086-0.475,4.575c0.726,1.489,2.243,2.434,3.905,2.434h31.921L326.4,125.673H257.503z"/>
<g>
</g>
<g>
</g>
<g>
</g>
<g>
</g>
<g>
</g>
<g>
</g>
<g>
</g>
<g>
</g>
<g>
</g>
<g>
</g>
<g>
</g>
<g>
</g>
<g>
</g>
<g>
</g>
<g>
</g>
</svg>
