<?xml version="1.0" encoding="iso-8859-1"?>
<!-- Generator: Adobe Illustrator 19.0.0, SVG Export Plug-In . SVG Version: 6.00 Build 0)  -->
<svg version="1.1" id="Layer_1" xmlns="http://www.w3.org/2000/svg" xmlns:xlink="http://www.w3.org/1999/xlink" x="0px" y="0px"
	 viewBox="0 0 512 512" style="enable-background:new 0 0 512 512;" xml:space="preserve">
<circle style="fill:#E04F5F;" cx="256" cy="256" r="256"/>
<path style="fill:#FFFFFF;" d="M360.467,334.141l-37.032-37.032c10.263-19.181,16.347-40.276,16.347-57.19
	c0-12.581-3.412-23.659-9.351-33.052l30.04-30.04c10.017,9.761,26.028,9.705,35.947-0.209c9.998-9.998,9.998-26.205,0-36.203
	c-5.073-5.073-11.743-7.545-18.39-7.471c0.074-6.647-2.397-13.317-7.471-18.39c-9.998-9.998-26.205-9.998-36.203,0
	c-9.919,9.919-9.97,25.93-0.209,35.947l-31.814,31.814c-13.27-6.563-29.179-10.096-46.303-10.096
	c-17.436,0-33.624,3.649-47.034,10.445l-32.168-32.168c9.756-10.017,9.705-26.028-0.209-35.947c-9.998-9.998-26.205-9.998-36.203,0
	c-5.073,5.073-7.545,11.743-7.471,18.39c-6.647-0.074-13.317,2.402-18.39,7.471c-9.998,9.993-9.998,26.205,0,36.203
	c9.919,9.919,25.93,9.97,35.947,0.209l30.725,30.725c-5.679,9.253-8.951,20.084-8.951,32.368c0,16.705,5.953,37.478,15.979,56.469
	L150.5,334.131c-10.017-9.756-26.028-9.705-35.947,0.209c-9.998,9.998-9.998,26.205,0,36.203c5.073,5.069,11.743,7.545,18.39,7.471
	c-0.074,6.647,2.397,13.317,7.471,18.39c9.998,9.998,26.205,9.998,36.203,0c9.919-9.919,9.97-25.93,0.209-35.947l20.568-20.568
	v10.035c0,4.673,3.752,8.462,8.374,8.462h3.686c5.139,0,9.309-4.17,9.309-9.309v-13.964h9.309v13.964
	c0,5.139,4.17,9.309,9.309,9.309h4.655c5.139,0,9.309-4.17,9.309-9.309v-13.964h9.309v13.964c0,5.139,4.17,9.309,9.309,9.309h4.655
	c5.139,0,9.309-4.17,9.309-9.309v-13.964h9.309v13.964c0,5.139,4.17,9.309,9.309,9.309h3.733c4.627,0,8.378-3.789,8.378-8.462
	v-8.951l19.484,19.484c-9.756,10.017-9.705,26.028,0.209,35.947c9.998,9.998,26.205,9.998,36.203,0
	c5.073-5.073,7.545-11.739,7.471-18.39c6.647,0.074,13.317-2.402,18.39-7.471c9.998-9.998,9.998-26.205,0-36.203
	C386.495,324.436,370.483,324.38,360.467,334.141z"/>
<g>
	<path style="fill:#3E3E3F;" d="M267.557,287.786c0.712,1.443,0.633,3.151-0.219,4.52c-0.847,1.368-2.346,2.202-3.956,2.202h-18.511
		c-1.61,0-3.105-0.833-3.956-2.202c-0.847-1.368-0.931-3.077-0.219-4.52l9.253-18.702c0.787-1.587,2.402-2.588,4.17-2.588
		c1.769,0,3.389,1.005,4.17,2.588L267.557,287.786z"/>
	<circle style="fill:#3E3E3F;" cx="221.091" cy="235.055" r="20.945"/>
	<circle style="fill:#3E3E3F;" cx="290.909" cy="235.055" r="20.945"/>
</g>
<g>
</g>
<g>
</g>
<g>
</g>
<g>
</g>
<g>
</g>
<g>
</g>
<g>
</g>
<g>
</g>
<g>
</g>
<g>
</g>
<g>
</g>
<g>
</g>
<g>
</g>
<g>
</g>
<g>
</g>
</svg>
