<?xml version="1.0" encoding="iso-8859-1"?>
<!-- Generator: Adobe Illustrator 19.0.0, SVG Export Plug-In . SVG Version: 6.00 Build 0)  -->
<svg version="1.1" id="Layer_1" xmlns="http://www.w3.org/2000/svg" xmlns:xlink="http://www.w3.org/1999/xlink" x="0px" y="0px"
	 viewBox="0 0 512 512" style="enable-background:new 0 0 512 512;" xml:space="preserve">
<circle style="fill:#25B7D3;" cx="256" cy="256" r="256"/>
<path style="fill:#E2E4E5;" d="M402.991,109.94l-9.868,82.292l-171.66,133.492c-14.289-8.657-25.693-20.015-34.351-34.164
	l133.585-171.753L402.991,109.94z"/>
<path style="fill:#F3B607;" d="M162.863,369.804c4.841,18.013-8.844,35.142-26.95,35.142c-15.407,0-27.927-12.521-27.927-27.927
	c0-18.153,17.175-31.791,35.142-26.95l29.929-29.975c2.886,3.584,5.911,6.982,9.169,10.24c3.351,3.351,6.889,6.516,10.659,9.495
	L162.863,369.804z"/>
<path style="fill:#FACB1B;" d="M271.081,353.373l-9.868,9.868l-0.047-0.047c-3.444,3.398-8.471,4.98-13.498,3.584
	c-24.832-6.726-47.397-18.404-65.443-36.445c-18.088-18.092-29.715-40.578-36.492-65.489c-1.35-4.98,0.233-10.054,3.631-13.498
	h-0.047l9.868-9.914c5.446-5.446,14.289-5.446,19.735,0c5.446,5.492,5.446,14.336,0,19.782l-3.956,3.91
	c11.776,36.212,36.026,60.463,72.425,72.425l3.956-3.956c5.446-5.446,14.289-5.446,19.735,0
	C276.527,339.084,276.527,347.881,271.081,353.373z"/>
<path style="fill:#FFFFFF;" d="M320.698,119.808L187.113,291.561c4.301,7.028,9.281,13.368,14.955,19.028l200.611-200.611
	L320.698,119.808z"/>
<path style="fill:#FBE158;" d="M174.964,265.123l3.956-3.91c5.446-5.446,5.446-14.289,0-19.782c-5.446-5.446-14.289-5.446-19.735,0
	l-9.868,9.914h0.047c-3.398,3.444-4.98,8.518-3.631,13.498c6.777,24.911,18.404,47.397,36.492,65.489
	c0.019,0.014,0.033,0.028,0.051,0.047l19.814-19.814C189.933,298.459,180.876,283.299,174.964,265.123z"/>
<path style="fill:#FACB1B;" d="M182.225,330.333c-3.258-3.258-6.284-6.656-9.169-10.24l-29.929,29.975
	c-17.967-4.841-35.142,8.797-35.142,26.95c0,7.633,3.081,14.555,8.057,19.596l66.234-66.234
	C182.258,330.366,182.239,330.352,182.225,330.333z"/>
<g>
</g>
<g>
</g>
<g>
</g>
<g>
</g>
<g>
</g>
<g>
</g>
<g>
</g>
<g>
</g>
<g>
</g>
<g>
</g>
<g>
</g>
<g>
</g>
<g>
</g>
<g>
</g>
<g>
</g>
</svg>
