<?xml version="1.0" encoding="iso-8859-1"?>
<!-- Generator: Adobe Illustrator 19.0.0, SVG Export Plug-In . SVG Version: 6.00 Build 0)  -->
<svg version="1.1" id="Layer_1" xmlns="http://www.w3.org/2000/svg" xmlns:xlink="http://www.w3.org/1999/xlink" x="0px" y="0px"
	 viewBox="0 0 512 512" style="enable-background:new 0 0 512 512;" xml:space="preserve">
<circle style="fill:#FABC3D;" cx="256" cy="256" r="256"/>
<path style="fill:#FA5655;" d="M323.454,176.109l5.283,5.283l7.959,7.955c13.75-17.143,30.822-37.469,55.026-32.27l3.91-18.204
	C361.374,131.519,338.776,157.114,323.454,176.109z"/>
<g>
	<path style="fill:#DF2C2C;" d="M378.903,137.872c5.241-0.512,10.803-0.233,16.742,1.061l-3.924,18.148
		c-6.204-1.303-11.939-0.954-17.268,0.586L378.903,137.872z"/>
	<path style="fill:#DF2C2C;" d="M341.434,156.281c-0.042,0.056-5.646,32.084-5.655,32.149l0.917,0.917
		c5.711-7.117,11.934-14.764,19.06-20.945c0.047-0.056,6.302-26.061,6.316-26.131C354.337,145.683,347.536,150.672,341.434,156.281z
		"/>
</g>
<path style="fill:#E2E4E5;" d="M312.711,197.427c8.751,8.536,15.891,18.185,21.518,28.495l19.517-19.521l-25.009-25.009
	l-24.362-24.362l-19.852,19.856C294.582,182.202,304.095,189.012,312.711,197.427z"/>
<path style="fill:#FFFFFF;" d="M312.711,197.423l16.03-16.026l-24.362-24.362l-19.852,19.856
	C294.582,182.202,304.095,189.012,312.711,197.423z"/>
<path style="fill:#3E3E3F;" d="M312.711,197.423c-51.461-50.241-134.53-44.786-179.088,10.854
	c-38.689,48.305-34.304,117.16,7.973,160.265c51.33,52.317,135.885,47.295,180.945-8.965
	C361.788,310.565,356.724,240.384,312.711,197.423z"/>
<path style="fill:#5B5C5F;" d="M133.618,208.277c-38.689,48.305-34.304,117.16,7.973,160.265l171.12-171.12
	C261.25,147.181,178.176,152.641,133.618,208.277z"/>
<g>
</g>
<g>
</g>
<g>
</g>
<g>
</g>
<g>
</g>
<g>
</g>
<g>
</g>
<g>
</g>
<g>
</g>
<g>
</g>
<g>
</g>
<g>
</g>
<g>
</g>
<g>
</g>
<g>
</g>
</svg>
