<?xml version="1.0" encoding="iso-8859-1"?>
<!-- Generator: Adobe Illustrator 19.0.0, SVG Export Plug-In . SVG Version: 6.00 Build 0)  -->
<svg version="1.1" id="Layer_1" xmlns="http://www.w3.org/2000/svg" xmlns:xlink="http://www.w3.org/1999/xlink" x="0px" y="0px"
	 viewBox="0 0 512 512" style="enable-background:new 0 0 512 512;" xml:space="preserve">
<circle style="fill:#64DD17;" cx="256" cy="256" r="256"/>
<path style="fill:#FFFFFF;" d="M353.745,386.327c0,10.282-8.336,18.618-18.618,18.618H176.873c-10.282,0-18.618-8.336-18.618-18.618
	V125.673c0-10.282,8.336-18.618,18.618-18.618h158.255c10.282,0,18.618,8.336,18.618,18.618V386.327z"/>
<rect x="176.873" y="134.982" style="fill:#00C250;" width="158.255" height="214.109"/>
<g>
	<path style="fill:#C5EB98;" d="M274.618,123.345c0,1.28-1.047,2.327-2.327,2.327h-32.582c-1.28,0-2.327-1.047-2.327-2.327l0,0
		c0-1.28,1.047-2.327,2.327-2.327h32.582C273.571,121.018,274.618,122.061,274.618,123.345L274.618,123.345z"/>
	<circle style="fill:#C5EB98;" cx="256" cy="377.018" r="9.309"/>
</g>
<polygon style="fill:#00E676;" points="326.6,134.982 176.873,134.982 176.873,284.709 "/>
<path style="fill:#FFFFFF;" d="M257.266,187.15c3.039,0,5.451,2.406,5.451,5.45v2.788c7.48,0.884,13.819,3.295,19.651,6.973
	c2.029,1.14,3.803,3.039,3.803,6.088c0,3.928-3.174,6.968-7.098,6.968c-1.266,0-2.537-0.377-3.803-1.14
	c-4.436-2.662-8.751-4.557-13.061-5.576v24.339c19.274,4.817,27.508,12.549,27.508,26.112c0,13.945-10.901,23.198-27.001,24.725
	v7.601c0,3.044-2.411,5.455-5.451,5.455c-3.039,0-5.576-2.411-5.576-5.455v-7.857c-9.509-1.015-18.255-4.436-25.991-9.886
	c-2.155-1.392-3.416-3.416-3.416-6.083c0-3.928,3.039-6.973,6.973-6.973c1.517,0,3.039,0.503,4.18,1.392
	c5.953,4.31,11.79,7.229,18.758,8.495v-24.972c-18.506-4.813-27.127-11.785-27.127-26.112c0-13.563,10.775-22.947,26.624-24.213
	v-2.658C251.69,189.552,254.227,187.15,257.266,187.15z M252.197,230.372v-22.435c-8.113,0.759-12.167,5.073-12.167,10.65
	C240.026,223.907,242.437,227.202,252.197,230.372z M262.209,247.994v23.068c8.118-0.884,12.553-4.943,12.553-11.027
	C274.762,254.459,271.974,251.034,262.209,247.994z"/>
<g>
</g>
<g>
</g>
<g>
</g>
<g>
</g>
<g>
</g>
<g>
</g>
<g>
</g>
<g>
</g>
<g>
</g>
<g>
</g>
<g>
</g>
<g>
</g>
<g>
</g>
<g>
</g>
<g>
</g>
</svg>
