<?xml version="1.0" encoding="iso-8859-1"?>
<!-- Generator: Adobe Illustrator 19.0.0, SVG Export Plug-In . SVG Version: 6.00 Build 0)  -->
<svg version="1.1" id="Layer_1" xmlns="http://www.w3.org/2000/svg" xmlns:xlink="http://www.w3.org/1999/xlink" x="0px" y="0px"
	 viewBox="0 0 512 512" style="enable-background:new 0 0 512 512;" xml:space="preserve">
<circle style="fill:#25B7D3;" cx="256" cy="256" r="256"/>
<path style="fill:#FBEC9A;" d="M256,125.673c71.862,0,130.327,58.466,130.327,130.327S327.862,386.327,256,386.327
	S125.673,327.862,125.673,256S184.138,125.673,256,125.673 M256,107.055c-82.26,0-148.945,66.686-148.945,148.945
	S173.74,404.945,256,404.945S404.945,338.26,404.945,256S338.26,107.055,256,107.055L256,107.055z"/>
<path style="fill:#FACB1B;" d="M256,386.327c-71.862,0-130.327-58.466-130.327-130.327S184.138,125.673,256,125.673
	S386.327,184.138,386.327,256S327.862,386.327,256,386.327z"/>
<path style="fill:#FBE158;" d="M256,125.673c-71.862,0-130.327,58.466-130.327,130.327c0,36.985,15.514,70.395,40.341,94.138
	l184.124-184.124C326.395,141.182,292.985,125.673,256,125.673z"/>
<path style="fill:#FCF6C2;" d="M125.673,256c0-71.862,58.466-130.327,130.327-130.327c36.887,0,70.218,15.43,93.952,40.145
	l13.21-13.21c-27.089-28.067-65.075-45.554-107.162-45.554c-82.26,0-148.945,66.686-148.945,148.945
	c0,42.086,17.487,80.072,45.554,107.157l13.21-13.21C141.103,326.218,125.673,292.887,125.673,256z"/>
<path style="fill:#8E6134;" d="M259.309,163.072c5.362,0,9.607,4.245,9.607,9.607v4.915c13.182,1.564,24.353,5.809,34.63,12.288
	c3.579,2.011,6.703,5.362,6.703,10.724c0,6.926-5.585,12.288-12.511,12.288c-2.23,0-4.468-0.67-6.703-2.011
	c-7.82-4.692-15.416-8.043-23.012-9.83v42.901c33.96,8.495,48.486,22.123,48.486,46.029c0,24.576-19.214,40.89-47.593,43.571v4.655
	c0,5.362-4.245,9.607-9.607,9.607c-5.362,0-9.83-4.245-9.83-9.607v-5.101c-16.756-1.787-32.177-7.82-45.805-17.427
	c-3.798-2.458-6.032-6.032-6.032-10.724c0-6.926,5.362-12.288,12.293-12.288c2.681,0,5.362,0.894,7.373,2.458
	c10.501,7.596,20.778,12.735,33.066,14.969v-44.018c-32.624-8.49-47.811-20.778-47.811-46.029c0-23.906,18.991-40.439,46.922-42.673
	v-4.692C249.479,167.317,253.947,163.072,259.309,163.072z M250.373,239.262v-39.55c-14.299,1.34-21.448,8.937-21.448,18.767
	C228.92,227.868,233.165,233.677,250.373,239.262z M268.023,270.322v40.662c14.299-1.564,22.118-8.713,22.118-19.437
	C290.141,281.716,285.226,275.684,268.023,270.322z"/>
<g>
</g>
<g>
</g>
<g>
</g>
<g>
</g>
<g>
</g>
<g>
</g>
<g>
</g>
<g>
</g>
<g>
</g>
<g>
</g>
<g>
</g>
<g>
</g>
<g>
</g>
<g>
</g>
<g>
</g>
</svg>
