<?xml version="1.0" encoding="iso-8859-1"?>
<!-- Generator: Adobe Illustrator 19.0.0, SVG Export Plug-In . SVG Version: 6.00 Build 0)  -->
<svg version="1.1" id="Layer_1" xmlns="http://www.w3.org/2000/svg" xmlns:xlink="http://www.w3.org/1999/xlink" x="0px" y="0px"
	 viewBox="0 0 512 512" style="enable-background:new 0 0 512 512;" xml:space="preserve">
<circle style="fill:#32BEA6;" cx="256" cy="256" r="256"/>
<g>
	<path style="fill:#0D9681;" d="M200.145,386.327h-37.236V358.4c0-5.143,4.166-9.309,9.309-9.309h18.618
		c5.143,0,9.309,4.166,9.309,9.309V386.327z"/>
	<path style="fill:#0D9681;" d="M256,386.327h-37.236v-65.164c0-5.143,4.166-9.309,9.309-9.309h18.618
		c5.143,0,9.309,4.166,9.309,9.309V386.327z"/>
	<path style="fill:#0D9681;" d="M311.855,386.327h-37.236v-102.4c0-5.143,4.166-9.309,9.309-9.309h18.618
		c5.143,0,9.309,4.166,9.309,9.309V386.327z"/>
	<path style="fill:#0D9681;" d="M367.709,386.327h-37.236V246.691c0-5.143,4.166-9.309,9.309-9.309H358.4
		c5.143,0,9.309,4.166,9.309,9.309V386.327z"/>
</g>
<path style="fill:#F0F1F1;" d="M395.636,386.327H125.673V116.364c0-5.139-4.17-9.309-9.309-9.309s-9.309,4.17-9.309,9.309v288.582
	h288.582c5.139,0,9.309-4.17,9.309-9.309S400.775,386.327,395.636,386.327z"/>
<polygon style="fill:#FBE158;" points="314.284,205.568 324.552,124.57 243.554,134.838 266.543,157.826 167.564,272.426 
	174.41,279.273 290.281,181.564 "/>
<g>
</g>
<g>
</g>
<g>
</g>
<g>
</g>
<g>
</g>
<g>
</g>
<g>
</g>
<g>
</g>
<g>
</g>
<g>
</g>
<g>
</g>
<g>
</g>
<g>
</g>
<g>
</g>
<g>
</g>
</svg>
