<?xml version="1.0" encoding="iso-8859-1"?>
<!-- Generator: Adobe Illustrator 19.0.0, SVG Export Plug-In . SVG Version: 6.00 Build 0)  -->
<svg version="1.1" id="Layer_1" xmlns="http://www.w3.org/2000/svg" xmlns:xlink="http://www.w3.org/1999/xlink" x="0px" y="0px"
	 viewBox="0 0 512 512" style="enable-background:new 0 0 512 512;" xml:space="preserve">
<circle style="fill:#E04F5F;" cx="256" cy="256" r="256"/>
<path style="fill:#F3B607;" d="M404.945,180.783c0-40.718-33.01-73.728-73.728-73.728H180.783c-40.718,0-73.728,33.01-73.728,73.728
	v0.745h297.891V180.783z"/>
<path style="fill:#FBE158;" d="M180.783,107.055c-40.718,0-73.728,33.01-73.728,73.728v0.745h57.293l74.473-74.473H180.783z"/>
<path style="fill:#F3B607;" d="M404.945,386.327c0,10.282-8.336,18.618-18.618,18.618H125.673c-10.282,0-18.618-8.336-18.618-18.618
	v-93.091c0-10.282,8.336-18.618,18.618-18.618h260.655c10.282,0,18.618,8.336,18.618,18.618V386.327z"/>
<g>
	<path style="fill:#84462D;" d="M293.236,293.236V358.4c0,5.139-4.166,9.309-9.309,9.309h-55.855c-5.139,0-9.309-4.171-9.309-9.309
		v-65.164h-93.091v93.091h260.655v-93.091H293.236z"/>
	<polygon style="fill:#84462D;" points="404.945,181.527 107.055,181.527 144.291,274.618 367.709,274.618 	"/>
</g>
<g>
	<polygon style="fill:#FBE158;" points="200.145,237.382 162.909,237.382 144.291,274.618 218.764,274.618 	"/>
	<polygon style="fill:#FBE158;" points="274.618,237.382 237.382,237.382 218.764,274.618 293.236,274.618 	"/>
	<polygon style="fill:#FBE158;" points="237.382,200.145 200.145,200.145 181.527,237.382 256,237.382 	"/>
	<polygon style="fill:#FBE158;" points="311.855,200.145 274.618,200.145 256,237.382 330.473,237.382 	"/>
	<polygon style="fill:#FBE158;" points="349.091,237.382 311.855,237.382 293.236,274.618 367.709,274.618 	"/>
</g>
<g>
	<path style="fill:#84462D;" d="M218.764,153.6c0-5.139,4.17-9.309,9.309-9.309h55.855c5.143,0,9.309,4.17,9.309,9.309v9.309h74.473
		c0-30.846-25.009-55.855-55.855-55.855H200.145c-30.846,0-55.855,25.009-55.855,55.855h74.473V153.6z"/>
	<path style="fill:#84462D;" d="M269.964,316.509c0-7.713-6.251-13.964-13.964-13.964c-7.713,0-13.964,6.251-13.964,13.964
		c0,6.07,3.896,11.185,9.309,13.107V358.4h9.309v-28.784C266.068,327.694,269.964,322.579,269.964,316.509z"/>
</g>
<path style="fill:#9C6144;" d="M200.145,107.055c-30.846,0-55.855,25.009-55.855,55.855h38.675l55.855-55.855H200.145z"/>
<g>
	<path style="fill:#FFFFFF;" d="M158.632,232.667c0.554,0.079,0.554,0.842,0,0.922c-13.326,1.876-20.922,9.472-22.793,22.793
		c-0.079,0.554-0.842,0.554-0.922,0c-1.871-13.321-9.472-20.922-22.793-22.793c-0.554-0.079-0.554-0.842,0-0.922
		c13.326-1.876,20.922-9.472,22.793-22.793c0.079-0.554,0.842-0.554,0.922,0C137.714,223.19,145.31,230.791,158.632,232.667z"/>
	<path style="fill:#FFFFFF;" d="M400.668,209.515c-13.326,1.876-20.922,9.472-22.793,22.793c-0.079,0.554-0.842,0.554-0.922,0
		c-1.871-13.321-9.472-20.922-22.793-22.793c-0.554-0.079-0.554-0.842,0-0.922c13.326-1.876,20.922-9.472,22.793-22.793
		c0.079-0.554,0.842-0.554,0.922,0c1.871,13.321,9.472,20.922,22.793,22.793C401.226,208.677,401.226,209.441,400.668,209.515z"/>
</g>
<g>
</g>
<g>
</g>
<g>
</g>
<g>
</g>
<g>
</g>
<g>
</g>
<g>
</g>
<g>
</g>
<g>
</g>
<g>
</g>
<g>
</g>
<g>
</g>
<g>
</g>
<g>
</g>
<g>
</g>
</svg>
