<?xml version="1.0" encoding="iso-8859-1"?>
<!-- Generator: Adobe Illustrator 19.0.0, SVG Export Plug-In . SVG Version: 6.00 Build 0)  -->
<svg version="1.1" id="Layer_1" xmlns="http://www.w3.org/2000/svg" xmlns:xlink="http://www.w3.org/1999/xlink" x="0px" y="0px"
	 viewBox="0 0 512 512" style="enable-background:new 0 0 512 512;" xml:space="preserve">
<circle style="fill:#E04F5F;" cx="256" cy="256" r="256"/>
<path style="fill:#F0F1F1;" d="M395.636,386.327H125.673V116.364c0-5.139-4.17-9.309-9.309-9.309s-9.309,4.17-9.309,9.309v288.582
	h288.582c5.139,0,9.309-4.17,9.309-9.309S400.775,386.327,395.636,386.327z"/>
<rect x="125.668" y="134.977" style="fill:#FBEC9A;" width="139.636" height="55.855"/>
<rect x="125.673" y="134.982" style="fill:#F37A10;" width="37.236" height="55.855"/>
<rect x="162.909" y="134.982" style="fill:#FACB1B;" width="37.236" height="55.855"/>
<g>
	<rect x="125.673" y="218.759" style="fill:#FBEC9A;" width="204.8" height="55.855"/>
	<rect x="125.673" y="302.545" style="fill:#FBEC9A;" width="251.345" height="55.855"/>
</g>
<rect x="125.673" y="302.545" style="fill:#F37A10;" width="79.127" height="55.855"/>
<g>
	<rect x="204.8" y="218.759" style="fill:#FACB1B;" width="79.127" height="55.855"/>
	<rect x="204.795" y="302.536" style="fill:#FACB1B;" width="107.055" height="55.855"/>
</g>
<rect x="125.673" y="218.764" style="fill:#F37A10;" width="79.127" height="55.855"/>
<rect x="311.855" y="302.545" style="fill:#FCF6C2;" width="65.164" height="27.927"/>
<rect x="204.795" y="302.536" style="fill:#FBE158;" width="107.055" height="27.927"/>
<rect x="125.673" y="302.545" style="fill:#F99134;" width="79.127" height="27.927"/>
<rect x="283.927" y="218.764" style="fill:#FCF6C2;" width="46.545" height="27.927"/>
<rect x="204.795" y="218.754" style="fill:#FBE158;" width="79.127" height="27.927"/>
<rect x="125.673" y="218.764" style="fill:#F99134;" width="79.127" height="27.927"/>
<rect x="200.145" y="134.982" style="fill:#FCF6C2;" width="65.164" height="27.927"/>
<rect x="162.909" y="134.982" style="fill:#FBE158;" width="37.236" height="27.927"/>
<rect x="125.673" y="134.982" style="fill:#F99134;" width="37.236" height="27.927"/>
<g>
</g>
<g>
</g>
<g>
</g>
<g>
</g>
<g>
</g>
<g>
</g>
<g>
</g>
<g>
</g>
<g>
</g>
<g>
</g>
<g>
</g>
<g>
</g>
<g>
</g>
<g>
</g>
<g>
</g>
</svg>
