<?xml version="1.0" encoding="iso-8859-1"?>
<!-- Generator: Adobe Illustrator 19.0.0, SVG Export Plug-In . SVG Version: 6.00 Build 0)  -->
<svg version="1.1" id="Layer_1" xmlns="http://www.w3.org/2000/svg" xmlns:xlink="http://www.w3.org/1999/xlink" x="0px" y="0px"
	 viewBox="0 0 512 512" style="enable-background:new 0 0 512 512;" xml:space="preserve">
<circle style="fill:#E04F5F;" cx="256" cy="256" r="256"/>
<path style="fill:#FACB1B;" d="M349.091,107.055L231.759,224.386c-9.886-3.575-20.499-5.623-31.614-5.623
	c-51.414,0-93.091,41.677-93.091,93.091s41.677,93.091,93.091,93.091s93.091-41.677,93.091-93.091
	c0-11.115-2.048-21.727-5.623-31.614l5.623-5.623v-37.236h37.236v-37.236h37.236v-37.236h37.236v-55.855H349.091z M221.533,354.695
	c-0.931,4.445-4.045,8.118-8.271,9.775c-16.901,6.619-36.855,3.1-50.516-10.561c-13.661-13.656-17.18-33.62-10.557-50.525
	c1.657-4.231,5.334-7.34,9.784-8.266s9.058,0.456,12.269,3.668l43.636,43.636C221.091,345.633,222.464,350.25,221.533,354.695z"/>
<path style="fill:#FBE158;" d="M404.945,107.055h-55.855L231.759,224.386c-9.886-3.575-20.499-5.623-31.614-5.623
	c-51.414,0-93.091,41.677-93.091,93.091c0,26.536,11.157,50.418,28.97,67.375l26.075-26.075
	c-13.075-13.633-16.412-33.159-9.905-49.771c1.657-4.231,5.334-7.34,9.784-8.266s9.058,0.456,12.269,3.668l21.113,21.113
	l209.585-209.594V107.055z"/>
<path style="fill:#F3B607;" d="M256,228.073c-2.569-2.569-2.569-6.74,0-9.309l102.4-102.4h18.618L265.309,228.073
	C262.74,230.642,258.569,230.642,256,228.073z"/>
<g>
</g>
<g>
</g>
<g>
</g>
<g>
</g>
<g>
</g>
<g>
</g>
<g>
</g>
<g>
</g>
<g>
</g>
<g>
</g>
<g>
</g>
<g>
</g>
<g>
</g>
<g>
</g>
<g>
</g>
</svg>
