<?xml version="1.0" encoding="iso-8859-1"?>
<!-- Generator: Adobe Illustrator 19.0.0, SVG Export Plug-In . SVG Version: 6.00 Build 0)  -->
<svg version="1.1" id="Layer_1" xmlns="http://www.w3.org/2000/svg" xmlns:xlink="http://www.w3.org/1999/xlink" x="0px" y="0px"
	 viewBox="0 0 512 512" style="enable-background:new 0 0 512 512;" xml:space="preserve">
<circle style="fill:#FF5722;" cx="256" cy="256" r="256"/>
<circle style="fill:#FFE4DE;" cx="256" cy="256" r="111.709"/>
<path style="fill:#AC2200;" d="M256,107.055c-82.26,0-148.945,66.686-148.945,148.945S173.74,404.945,256,404.945
	S404.945,338.26,404.945,256S338.26,107.055,256,107.055z M144.291,256c0-25.321,8.439-48.663,22.635-67.398l156.472,156.472
	c-18.735,14.201-42.082,22.635-67.398,22.635C194.304,367.709,144.291,317.696,144.291,256z M348.947,317.966L194.039,163.053
	c17.729-11.846,39.033-18.762,61.961-18.762c61.696,0,111.709,50.013,111.709,111.709
	C367.709,278.924,360.792,300.232,348.947,317.966z"/>
<path style="fill:#FFFFFF;" d="M256,144.291c-61.696,0-111.709,50.013-111.709,111.709c0,30.776,12.451,58.647,32.582,78.848
	l157.975-157.975C314.647,156.742,286.776,144.291,256,144.291z"/>
<path style="fill:#D22600;" d="M107.055,256c0,41.058,16.617,78.238,43.492,105.179l26.326-26.331
	c-20.131-20.201-32.582-48.072-32.582-78.848c0-25.321,8.439-48.663,22.635-67.398l78.099,78.099l26.326-26.331l-77.312-77.317
	c17.729-11.846,39.033-18.762,61.961-18.762c30.776,0,58.647,12.451,78.848,32.582l26.331-26.331
	c-26.941-26.871-64.116-43.487-105.179-43.487C173.74,107.055,107.055,173.74,107.055,256z"/>
<g>
</g>
<g>
</g>
<g>
</g>
<g>
</g>
<g>
</g>
<g>
</g>
<g>
</g>
<g>
</g>
<g>
</g>
<g>
</g>
<g>
</g>
<g>
</g>
<g>
</g>
<g>
</g>
<g>
</g>
</svg>
