<?xml version="1.0" encoding="iso-8859-1"?>
<!-- Generator: Adobe Illustrator 19.0.0, SVG Export Plug-In . SVG Version: 6.00 Build 0)  -->
<svg version="1.1" id="Layer_1" xmlns="http://www.w3.org/2000/svg" xmlns:xlink="http://www.w3.org/1999/xlink" x="0px" y="0px"
	 viewBox="0 0 512 512" style="enable-background:new 0 0 512 512;" xml:space="preserve">
<circle style="fill:#E04F5F;" cx="256" cy="256" r="256"/>
<path style="fill:#F0F1F1;" d="M386.327,236.079c0-69.357-55.361-129.024-130.327-129.024c-74.957,0-130.327,59.657-130.327,129.024
	v66.467c0,15.407,12.521,27.927,27.927,27.927h18.618c5.12,0,9.309,4.189,9.309,9.309c0,64.787,0-36.785,0,39.564
	c0,14.141,11.459,25.6,25.6,25.6c11.427,0,21.243-7.596,24.464-18.129c0.205-0.666,1.55-0.698,1.718,0.047
	c2.365,10.356,11.622,18.083,22.691,18.083s20.326-7.727,22.691-18.083c0.172-0.745,1.61-0.721,1.778-0.168
	c3.305,10.98,13.377,18.25,24.404,18.25c14.141,0,25.6-11.459,25.6-25.6c0-25.451,0-14.606,0-39.564c0-5.12,4.189-9.309,9.309-9.309
	H358.4c15.407,0,27.927-12.521,27.927-27.927V236.079z"/>
<path style="fill:#FFFFFF;" d="M125.673,236.079v66.467c0,15.407,12.521,27.927,27.927,27.927h18.618
	c5.12,0,9.309,4.189,9.309,9.309c0,3.756,0,32.582,0,39.564c0,14.141,11.459,25.6,25.6,25.6c11.432,0,21.243-7.596,24.464-18.134
	c0.2-0.656,1.545-0.703,1.718,0.051c2.365,10.356,11.622,18.083,22.691,18.083V107.055
	C181.043,107.055,125.673,166.712,125.673,236.079z"/>
<g>
	<path style="fill:#3E3E3F;" d="M246.691,279.273v37.236h-17.631C208.002,316.509,222.627,288.219,246.691,279.273z"/>
	<path style="fill:#3E3E3F;" d="M265.309,279.273v37.236h17.631C303.998,316.509,289.373,288.219,265.309,279.273z"/>
	<path style="fill:#3E3E3F;" d="M226.076,256h-43.953c-13.587,0-25.223-9.602-28.053-22.896
		c-16.803-78.964,69.129-68.752,83.13,9.472C238.448,249.549,233.155,256,226.076,256z"/>
	<path style="fill:#3E3E3F;" d="M285.924,256h43.953c13.587,0,25.223-9.602,28.053-22.896c16.803-78.964-69.129-68.752-83.13,9.472
		C273.552,249.549,278.845,256,285.924,256z"/>
</g>
<g>
</g>
<g>
</g>
<g>
</g>
<g>
</g>
<g>
</g>
<g>
</g>
<g>
</g>
<g>
</g>
<g>
</g>
<g>
</g>
<g>
</g>
<g>
</g>
<g>
</g>
<g>
</g>
<g>
</g>
</svg>
