<?xml version="1.0" encoding="iso-8859-1"?>
<!-- Generator: Adobe Illustrator 19.0.0, SVG Export Plug-In . SVG Version: 6.00 Build 0)  -->
<svg version="1.1" id="Layer_1" xmlns="http://www.w3.org/2000/svg" xmlns:xlink="http://www.w3.org/1999/xlink" x="0px" y="0px"
	 viewBox="0 0 512 512" style="enable-background:new 0 0 512 512;" xml:space="preserve">
<circle style="fill:#E04F5F;" cx="256" cy="256" r="256"/>
<path style="fill:#FACB1B;" d="M372.364,339.782c0-18.618-23.273-27.927-23.273-27.927c-9.384,6.693-30.627,12.521-35.281,12.521
	c-59.536,11.441-111.057,0-115.712,0c-15.081-2.886-27.555-7.075-35.188-12.521c0,0-23.273,9.309-23.273,27.927
	c0,18.618,0,46.545-18.618,46.545c0,4.655,0,18.618,18.618,18.618c24.823,0,38.786-37.236,32.582-37.236
	c13.964,0,21.886-3.724,27.927-13.964c9.737,10.552,20.797,12.358,32.582,9.309c0,0,9.309,13.964,23.273,13.964
	c13.964,0,23.273-13.964,23.273-13.964c11.785,3.049,22.845,1.243,32.582-9.309c6.042,10.24,13.964,13.964,27.927,13.964
	c-6.204,0,7.759,37.236,32.582,37.236c18.618,0,18.618-13.964,18.618-18.618C372.364,386.327,372.364,358.4,372.364,339.782z
	 M218.764,353.745c-5.139,0-9.309-4.171-9.309-9.309c0-5.139,4.17-9.309,9.309-9.309c5.139,0,9.309,4.171,9.309,9.309
	C228.073,349.575,223.902,353.745,218.764,353.745z M256,358.4c-5.139,0-9.309-4.171-9.309-9.309c0-5.139,4.17-9.309,9.309-9.309
	c5.139,0,9.309,4.171,9.309,9.309C265.309,354.229,261.139,358.4,256,358.4z M293.236,353.745c-5.139,0-9.309-4.171-9.309-9.309
	c0-5.139,4.17-9.309,9.309-9.309c5.139,0,9.309,4.171,9.309,9.309C302.545,349.575,298.375,353.745,293.236,353.745z"/>
<path style="fill:#40C9E7;" d="M372.364,223.418c0,26.159-8.657,50.362-23.273,69.818c-32.582,23.273-153.6,23.273-186.182,0
	c-14.615-19.456-23.273-43.66-23.273-69.818c0-64.279,52.084-116.364,116.364-116.364S372.364,159.139,372.364,223.418z"/>
<path style="fill:#F3B607;" d="M349.091,293.236v18.618c-9.384,6.693-30.627,12.521-35.281,12.521
	c-59.536,11.436-111.057,0-115.712,0c-15.081-2.886-27.555-7.075-35.188-12.521v-18.618
	C195.491,316.509,316.509,316.509,349.091,293.236z"/>
<path style="fill:#6FDAF1;" d="M139.636,223.418c0,26.159,8.657,50.362,23.273,69.818C179.2,304.873,217.6,310.691,256,310.691
	V107.055C191.721,107.055,139.636,159.139,139.636,223.418z"/>
<polygon style="fill:#FFFFFF;" points="209.482,148.945 216.683,163.537 232.788,165.874 221.133,177.231 223.884,193.271 
	209.482,185.698 195.081,193.271 197.832,177.231 186.182,165.874 202.282,163.537 "/>
<polygon style="fill:#C9F2F8;" points="305.711,186.182 311.003,196.906 322.839,198.628 314.275,206.974 316.3,218.764 
	305.711,213.197 295.126,218.764 297.146,206.974 288.582,198.628 300.418,196.906 "/>
<polygon style="fill:#FFFFFF;" points="229.562,223.418 234.854,234.142 246.691,235.864 238.127,244.21 240.147,256 
	229.562,250.433 218.973,256 220.998,244.21 212.433,235.864 224.27,234.142 "/>
<path style="fill:#FBE158;" d="M246.691,349.091c0-5.139,4.17-9.309,9.309-9.309v-10.338c-32-0.233-54.877-5.069-57.903-5.069
	c-15.081-2.886-27.555-7.075-35.188-12.521c0,0-23.273,9.309-23.273,27.927c0,18.618,0,46.545-18.618,46.545
	c0,4.655,0,18.618,18.618,18.618c24.823,0,38.786-37.236,32.582-37.236c13.964,0,21.886-3.724,27.927-13.964
	c9.737,10.552,20.797,12.358,32.582,9.309c0,0,9.309,13.964,23.273,13.964V358.4C250.861,358.4,246.691,354.229,246.691,349.091z
	 M218.764,353.745c-5.139,0-9.309-4.171-9.309-9.309c0-5.139,4.17-9.309,9.309-9.309c5.139,0,9.309,4.171,9.309,9.309
	C228.073,349.575,223.902,353.745,218.764,353.745z"/>
<path style="fill:#F3B607;" d="M162.909,311.855c7.633,5.446,20.108,9.635,35.188,12.521c3.025,0,25.898,4.836,57.903,5.069v-18.753
	c-38.4,0-76.8-5.818-93.091-17.455V311.855z"/>
<g>
</g>
<g>
</g>
<g>
</g>
<g>
</g>
<g>
</g>
<g>
</g>
<g>
</g>
<g>
</g>
<g>
</g>
<g>
</g>
<g>
</g>
<g>
</g>
<g>
</g>
<g>
</g>
<g>
</g>
</svg>
