<?xml version="1.0" encoding="iso-8859-1"?>
<!-- Generator: Adobe Illustrator 19.0.0, SVG Export Plug-In . SVG Version: 6.00 Build 0)  -->
<svg version="1.1" id="Layer_1" xmlns="http://www.w3.org/2000/svg" xmlns:xlink="http://www.w3.org/1999/xlink" x="0px" y="0px"
	 viewBox="0 0 512 512" style="enable-background:new 0 0 512 512;" xml:space="preserve">
<circle style="fill:#FF5722;" cx="256" cy="256" r="256"/>
<path style="fill:#2C0900;" d="M386.327,218.764c0,74.473-69.818,125.673-130.327,125.673s-130.327-51.2-130.327-125.673
	S190.836,107.055,256,107.055S386.327,144.291,386.327,218.764z"/>
<path style="fill:#7A1C05;" d="M125.673,218.764c0,74.473,69.818,125.673,130.327,125.673V107.055
	C190.836,107.055,125.673,144.291,125.673,218.764z"/>
<path style="fill:#2C0900;" d="M311.855,367.709c0,20.573-24.995,37.236-55.855,37.236s-55.855-16.663-55.855-37.236
	c0-6.796,2.7-13.172,7.494-18.618c9.63-11.124,27.695-18.618,48.361-18.618s38.726,7.494,48.365,18.618
	C309.155,354.537,311.855,360.913,311.855,367.709z"/>
<path style="fill:#FFE4DE;" d="M311.855,330.473v37.236c0-6.796-2.7-13.172-7.489-18.618c-9.635-11.124-27.699-18.618-48.365-18.618
	s-38.726,7.494-48.361,18.618c-4.794,5.446-7.494,11.823-7.494,18.618v-37.236c0-6.796,2.7-13.172,7.494-18.618
	c9.63-11.124,27.695-18.618,48.361-18.618s38.726,7.494,48.365,18.618C309.155,317.3,311.855,323.677,311.855,330.473z"/>
<g>
	<circle style="fill:#99412B;" cx="228.073" cy="358.4" r="9.309"/>
	<circle style="fill:#99412B;" cx="242.036" cy="381.673" r="9.309"/>
	<circle style="fill:#99412B;" cx="269.964" cy="381.673" r="9.309"/>
	<circle style="fill:#99412B;" cx="256" cy="358.4" r="9.309"/>
	<circle style="fill:#99412B;" cx="283.927" cy="358.4" r="9.309"/>
</g>
<circle style="fill:#FFEBE5;" cx="321.164" cy="200.145" r="46.545"/>
<circle style="fill:#D22600;" cx="321.164" cy="200.145" r="32.582"/>
<circle style="fill:#FFEBE5;" cx="190.836" cy="200.145" r="46.545"/>
<circle style="fill:#D22600;" cx="190.836" cy="200.145" r="32.582"/>
<path style="fill:#FFFFFF;" d="M207.639,311.855c-4.794,5.446-7.494,11.823-7.494,18.618v37.236c0-6.796,2.7-13.172,7.494-18.618
	c9.63-11.124,27.695-18.618,48.361-18.618v-37.236C235.338,293.236,217.274,300.73,207.639,311.855z"/>
<g>
	<path style="fill:#FF2F00;" d="M158.255,200.145c0,17.999,14.587,32.582,32.582,32.582v-65.164
		C172.842,167.564,158.255,182.151,158.255,200.145z"/>
	<path style="fill:#FF2F00;" d="M288.582,200.145c0,17.999,14.587,32.582,32.582,32.582v-65.164
		C303.169,167.564,288.582,182.151,288.582,200.145z"/>
</g>
<g>
</g>
<g>
</g>
<g>
</g>
<g>
</g>
<g>
</g>
<g>
</g>
<g>
</g>
<g>
</g>
<g>
</g>
<g>
</g>
<g>
</g>
<g>
</g>
<g>
</g>
<g>
</g>
<g>
</g>
</svg>
