<?xml version="1.0" encoding="iso-8859-1"?>
<!-- Generator: Adobe Illustrator 19.0.0, SVG Export Plug-In . SVG Version: 6.00 Build 0)  -->
<svg version="1.1" id="Layer_1" xmlns="http://www.w3.org/2000/svg" xmlns:xlink="http://www.w3.org/1999/xlink" x="0px" y="0px"
	 viewBox="0 0 481.882 481.882" style="enable-background:new 0 0 481.882 481.882;" xml:space="preserve">
<path style="fill:#FDD835;" d="M234.866,481.882c-105.412,0-180.706-60.235-180.706-165.647
	C54.16,158.118,242.395,143.059,204.748,0c75.294,60.235,120.471,105.412,120.471,210.824
	c37.647-22.588,37.647-97.882,22.588-158.118C438.16,158.118,506.874,481.882,234.866,481.882z"/>
<path style="fill:#FFEE58;" d="M128.935,455.816l280.937-280.937c-13.771-45.553-34.138-86.633-56.282-115.034
	c-1.928-2.424-3.878-4.902-5.798-7.138c15.059,60.235,15.059,135.529-22.588,158.118c0-105.412-45.176-150.588-120.471-210.824
	C242.38,143.059,54.145,158.118,54.145,316.235C54.153,375.266,78.239,426.089,128.935,455.816z"/>
<path style="fill:#D32F2F;" d="M310.16,344.847c0,42.669-33.461,76.8-75.294,76.8s-75.294-34.379-75.294-76.8
	c0-76.8,67.765-69.271,67.765-171.671C244.067,198.776,310.16,268.047,310.16,344.847z"/>
<path style="fill:#EF5350;" d="M227.337,173.176c0,102.415-67.765,94.886-67.765,171.671c0,22.257,9.269,42.24,24.072,56.275
	l114.763-114.778C278.642,234.579,239.647,192.023,227.337,173.176z"/>
<g>
</g>
<g>
</g>
<g>
</g>
<g>
</g>
<g>
</g>
<g>
</g>
<g>
</g>
<g>
</g>
<g>
</g>
<g>
</g>
<g>
</g>
<g>
</g>
<g>
</g>
<g>
</g>
<g>
</g>
</svg>
