<?xml version="1.0" encoding="iso-8859-1"?>
<!-- Generator: Adobe Illustrator 19.0.0, SVG Export Plug-In . SVG Version: 6.00 Build 0)  -->
<svg version="1.1" id="Layer_1" xmlns="http://www.w3.org/2000/svg" xmlns:xlink="http://www.w3.org/1999/xlink" x="0px" y="0px"
	 viewBox="0 0 481.882 481.882" style="enable-background:new 0 0 481.882 481.882;" xml:space="preserve">
<path style="fill:#FDD835;" d="M347.866,98.349c66.01,7.063,80.941,178.816-107.279,178.816
	c-190.667,0-165.542-156.695-116.232-187.761c0,35.765,53.64,53.647,53.64,89.412c35.765-53.647-80.467-71.529,0-178.816
	c8.945,62.584,53.647,44.71,71.529,107.287c8.945-53.64-26.827-53.64-17.882-89.404c17.882,26.827,107.294,0,107.294,134.114
	C356.818,134.114,347.866,98.349,347.866,98.349z"/>
<path style="fill:#D32F2F;" d="M204.822,250.338c0,0-44.71-53.64,35.765-116.232c8.945,44.71,62.584,34.876,62.584,80.467
	c0,26.827-8.937,35.765-8.937,35.765H204.822z"/>
<path style="fill:#EF5350;" d="M240.586,134.114c-51.336,39.928-51.712,76.19-45.267,97.227l66.168-66.176
	C251.941,158.238,243.636,149.376,240.586,134.114z"/>
<path style="fill:#CFD3D4;" d="M147.154,301.176l71.236,165.978c2.146,8.599,11.008,14.728,21.248,14.728
	c10.232,0,19.102-6.129,21.248-14.728l71.236-165.978H147.154z"/>
<path style="fill:#F0F0F0;" d="M367.638,286.118c0,8.312-6.746,15.059-15.059,15.059H126.697c-8.312,0-15.059-6.746-15.059-15.059
	V256c0-8.312,6.746-15.059,15.059-15.059h225.882c8.312,0,15.059,6.746,15.059,15.059V286.118z"/>
<path style="fill:#E2E4E5;" d="M147.154,301.176l71.236,165.978c2.146,8.599,11.008,14.728,21.248,14.728V301.176H147.154z"/>
<path style="fill:#FFFFFF;" d="M126.697,240.941c-8.312,0-15.059,6.746-15.059,15.059v30.118c0,8.312,6.746,15.059,15.059,15.059
	h20.457h92.484v-30.118v-30.118H126.697z"/>
<g>
</g>
<g>
</g>
<g>
</g>
<g>
</g>
<g>
</g>
<g>
</g>
<g>
</g>
<g>
</g>
<g>
</g>
<g>
</g>
<g>
</g>
<g>
</g>
<g>
</g>
<g>
</g>
<g>
</g>
</svg>
