<?xml version="1.0" encoding="iso-8859-1"?>
<!-- Generator: Adobe Illustrator 19.0.0, SVG Export Plug-In . SVG Version: 6.00 Build 0)  -->
<svg version="1.1" id="Layer_1" xmlns="http://www.w3.org/2000/svg" xmlns:xlink="http://www.w3.org/1999/xlink" x="0px" y="0px"
	 viewBox="0 0 478.123 478.123" style="enable-background:new 0 0 478.123 478.123;" xml:space="preserve">
<polygon style="fill:#FFEE58;" points="43.297,387.77 239.062,478.123 434.826,387.77 434.826,124.241 43.297,124.241 "/>
<polygon style="fill:#D32F2F;" points="88.473,124.241 88.473,350.123 239.062,417.888 389.65,350.123 389.65,124.241 "/>
<path style="fill:#212121;" d="M166.177,79.064l72.885-54.408l72.885,54.408h37.519L245.093,1.745
	c-3.682-2.327-8.373-2.327-12.062,0l-104.373,77.32H166.177z"/>
<path style="fill:#8F4D38;" d="M457.415,101.653c0,12.424-10.18,22.588-22.588,22.588H43.297c-12.416,0-22.588-10.165-22.588-22.588
	c0-12.416,10.172-22.588,22.588-22.588h391.529C447.235,79.064,457.415,89.237,457.415,101.653z"/>
<polygon style="fill:#EF5350;" points="88.473,124.241 88.473,350.123 239.062,417.888 239.062,124.241 "/>
<path style="fill:#FFF59D;" d="M338.623,224.683h-66.364c-4.307,0-8.93-3.351-10.248-7.439l-20.518-63.134
	c-1.001-3.072-2.47-3.84-3.704-2.304c-0.151,0.173-0.248,0.55-0.392,0.783c-0.256,0.452-0.52,0.836-0.745,1.513l-20.518,63.134
	c-0.663,2.025-2.131,3.87-3.96,5.21c-1.867,1.37-4.111,2.229-6.287,2.229h-66.372c-2.153,0-3.396,0.52-3.667,1.355
	s0.429,1.988,2.176,3.253l30.072,21.85l23.627,17.16c0.422,0.294,0.723,0.768,1.084,1.129c2.688,2.778,4.006,7.311,2.839,10.91
	l-20.518,63.134c-1.001,3.072-0.256,4.555,1.649,4.043c0.203-0.06,0.512-0.294,0.753-0.414c0.482-0.203,0.934-0.376,1.513-0.791
	l53.707-39.017c3.486-2.53,9.178-2.53,12.664,0l53.715,39.017c3.471,2.537,5.233,1.257,3.915-2.839l-20.518-63.134
	c-1.325-4.104,0.437-9.525,3.923-12.055l53.7-39.025C343.6,226.754,342.93,224.683,338.623,224.683z"/>
<g>
</g>
<g>
</g>
<g>
</g>
<g>
</g>
<g>
</g>
<g>
</g>
<g>
</g>
<g>
</g>
<g>
</g>
<g>
</g>
<g>
</g>
<g>
</g>
<g>
</g>
<g>
</g>
<g>
</g>
</svg>
