<?xml version="1.0" encoding="iso-8859-1"?>
<!-- Generator: Adobe Illustrator 19.0.0, SVG Export Plug-In . SVG Version: 6.00 Build 0)  -->
<svg version="1.1" id="Layer_1" xmlns="http://www.w3.org/2000/svg" xmlns:xlink="http://www.w3.org/1999/xlink" x="0px" y="0px"
	 viewBox="0 0 481.882 481.882" style="enable-background:new 0 0 481.882 481.882;" xml:space="preserve">
<path style="fill:#EDBC7C;" d="M458.383,428.265c-4.239-4.239-9.984-6.618-15.97-6.618H39.469c-5.986,0-11.738,2.379-15.97,6.618
	L0,451.765v30.118h481.882v-30.118L458.383,428.265z"/>
<path style="fill:#F8E1C2;" d="M0,451.765l23.499-23.499c4.239-4.239,9.984-6.618,15.97-6.618h402.944
	c5.986,0,11.738,2.379,15.97,6.618l23.499,23.499H0z"/>
<circle style="fill:#FDD835;" cx="60.235" cy="60.235" r="60.235"/>
<path style="fill:#00695C;" d="M399.059,90.353c-27.031,0-45.176,21.165-45.176,44.725v30.712c0,8.215-6.709,14.916-14.908,14.916
	h-0.301c-8.207,0-14.908-6.701-14.908-14.908V60.235C323.765,26.955,296.809,0,263.529,0s-60.235,26.955-60.235,60.235v165.798
	c0,8.207-6.709,14.908-14.908,14.908h-0.301c-8.207,0-14.908-6.701-14.908-14.908v-30.72c0-24.456-19.125-44.725-45.176-44.725
	c-25.803,0-45.176,20.013-45.176,44.725v76.875c0,90.503,120.471,57.826,120.471,149.459v30.118h120.471v-90.353
	c0-91.633,120.471-58.955,120.471-149.459v-76.875C444.235,110.381,423.748,90.353,399.059,90.353z"/>
<path style="fill:#00897B;" d="M203.294,60.235v165.798c0,8.207-6.709,14.908-14.908,14.908h-0.301
	c-8.207,0-14.908-6.701-14.908-14.908v-30.72c0-24.456-19.125-44.725-45.176-44.725c-25.803,0-45.176,20.013-45.176,44.725v76.875
	c0,90.503,120.471,57.826,120.471,149.459v30.118h60.235V0C230.249,0,203.294,26.955,203.294,60.235z"/>
<g>
</g>
<g>
</g>
<g>
</g>
<g>
</g>
<g>
</g>
<g>
</g>
<g>
</g>
<g>
</g>
<g>
</g>
<g>
</g>
<g>
</g>
<g>
</g>
<g>
</g>
<g>
</g>
<g>
</g>
</svg>
