<?xml version="1.0" encoding="iso-8859-1"?>
<!-- Generator: Adobe Illustrator 19.0.0, SVG Export Plug-In . SVG Version: 6.00 Build 0)  -->
<svg version="1.1" id="Layer_1" xmlns="http://www.w3.org/2000/svg" xmlns:xlink="http://www.w3.org/1999/xlink" x="0px" y="0px"
	 viewBox="0 0 451.765 451.765" style="enable-background:new 0 0 451.765 451.765;" xml:space="preserve">
<path style="fill:#FFFFFF;" d="M361.412,7.529H7.529C3.373,7.529,0,10.903,0,15.059v421.647c0,4.164,3.373,7.529,7.529,7.529
	h436.706c4.156,0,7.529-3.366,7.529-7.529V97.882L361.412,7.529z"/>
<rect x="30.118" y="203.294" style="fill:#64B5F6;" width="180.706" height="150.588"/>
<g>
	<path style="fill:#E2E4E5;" d="M421.647,210.824c0,4.164-3.373,7.529-7.529,7.529H248.471c-4.156,0-7.529-3.366-7.529-7.529
		c0-4.156,3.373-7.529,7.529-7.529h165.647C418.274,203.294,421.647,206.667,421.647,210.824z"/>
	<path style="fill:#E2E4E5;" d="M421.647,256c0,4.164-3.373,7.529-7.529,7.529H248.471c-4.156,0-7.529-3.366-7.529-7.529
		c0-4.156,3.373-7.529,7.529-7.529h165.647C418.274,248.471,421.647,251.844,421.647,256z"/>
	<path style="fill:#E2E4E5;" d="M421.647,301.176c0,4.164-3.373,7.529-7.529,7.529H248.471c-4.156,0-7.529-3.366-7.529-7.529
		c0-4.156,3.373-7.529,7.529-7.529h165.647C418.274,293.647,421.647,297.02,421.647,301.176z"/>
	<path style="fill:#E2E4E5;" d="M421.647,346.353c0,4.164-3.373,7.529-7.529,7.529H248.471c-4.156,0-7.529-3.366-7.529-7.529
		c0-4.156,3.373-7.529,7.529-7.529h165.647C418.274,338.824,421.647,342.197,421.647,346.353z"/>
	<path style="fill:#E2E4E5;" d="M421.647,391.529c0,4.164-3.373,7.529-7.529,7.529H248.471c-4.156,0-7.529-3.366-7.529-7.529
		c0-4.156,3.373-7.529,7.529-7.529h165.647C418.274,384,421.647,387.373,421.647,391.529z"/>
	<path style="fill:#E2E4E5;" d="M210.824,391.529c0,4.164-3.373,7.529-7.529,7.529H37.647c-4.156,0-7.529-3.366-7.529-7.529
		c0-4.156,3.373-7.529,7.529-7.529h165.647C207.45,384,210.824,387.373,210.824,391.529z"/>
</g>
<polygon style="fill:#90CAF9;" points="30.118,203.294 30.118,353.882 48.429,353.882 199.017,203.294 "/>
<path style="fill:#EF5350;" d="M421.647,158.118c0,4.164-3.373,7.529-7.529,7.529H37.647c-4.156,0-7.529-3.366-7.529-7.529
	c0-4.156,3.373-7.529,7.529-7.529h376.471C418.274,150.588,421.647,153.961,421.647,158.118z"/>
<polygon style="fill:#E2E4E5;" points="361.412,7.529 361.412,97.882 451.765,97.882 "/>
<g>
	<path style="fill:#212121;" d="M39.13,55.605h17.385l17.483,30.878L80.136,101l0.504-0.09c-0.105,0-1.943-12.476-2.048-12.476
		V55.605h18.206V128H78.291L61.929,99.471l-6.34-14.524l-0.512,0.105l2.357,14.005V128H39.13V55.605z"/>
	<path style="fill:#212121;" d="M126.788,84.036h29.335v15.842h-29.335v10.842h31.895V128h-50.409V55.605h50.409v17.175h-31.895
		L126.788,84.036L126.788,84.036z"/>
	<path style="fill:#212121;" d="M237.335,55.605h18.921L235.392,128h-16.971l-6.438-20.043l-2.56-16.557h-0.309l-2.756,16.459
		L200.629,128h-16.971l-20.962-72.395h19.019l8.591,34.665l1.837,15.345h0.512l1.732-15.24l8.072-25.359h13.914l7.462,25.457
		l2.357,15.134h0.301l2.04-15.134L237.335,55.605z"/>
	<path style="fill:#212121;" d="M269.056,105.096c7.266,8.794,23.206,9.208,23.718,1.431c0.203-4.088-6.438-6.438-12.378-7.258
		c-11.656-1.837-22.287-9.201-22.287-23.01c0-14.216,12.883-21.677,26.18-21.677c8.794,0,17.28,2.455,24.742,11.558l-11.964,9.201
		c-7.575-8.079-20.555-7.77-20.864,0.617c0.196,3.471,3.991,5.512,9.608,6.746c12.883,2.349,25.766,6.844,24.945,24.636
		c-0.617,14.005-15.337,21.677-28.634,21.677c-8.689,0-17.897-4.39-24.636-13.086L269.056,105.096z"/>
</g>
<g>
</g>
<g>
</g>
<g>
</g>
<g>
</g>
<g>
</g>
<g>
</g>
<g>
</g>
<g>
</g>
<g>
</g>
<g>
</g>
<g>
</g>
<g>
</g>
<g>
</g>
<g>
</g>
<g>
</g>
</svg>
