<?xml version="1.0" encoding="iso-8859-1"?>
<!-- Generator: Adobe Illustrator 19.0.0, SVG Export Plug-In . SVG Version: 6.00 Build 0)  -->
<svg version="1.1" id="Layer_1" xmlns="http://www.w3.org/2000/svg" xmlns:xlink="http://www.w3.org/1999/xlink" x="0px" y="0px"
	 viewBox="0 0 481.799 481.799" style="enable-background:new 0 0 481.799 481.799;" xml:space="preserve">
<path style="fill:#D32F2F;" d="M385.513,174.577c2.018,5.798-2.108,11.844-8.252,11.844h-96.512
	c-38.769,0-70.182,31.413-70.182,70.189c0,10.707-2.545,49.047,21.406,49.047c35.23,0,54.867,39.605,46.592,73.698
	c-6.754,27.723-31.586,52.638-81.596,52.638c-51.155,0-70.543-33.16-82.387-28.424c-11.844,4.736-29.832,2.718-44.393-7.093
	C21.933,363.73,0,299.331,0,239.058C0,132.465,86.423,46.042,193.016,46.042c59.836,0,118.724,27.287,157.237,70.099
	c9.638,10.797,18.063,22.551,24.824,35.102c3.162,5.7,5.88,11.482,8.252,17.544C384.12,170.714,384.806,172.649,385.513,174.577z"/>
<path style="fill:#FFFFFF;" d="M375.07,151.243h-94.321v-35.102h69.489C359.891,126.93,368.316,138.691,375.07,151.243z"/>
<path style="fill:#212121;" d="M428.002,254.81c-2.891-1.905-6.528-2.522-9.894-1.679l-118.325,29.583l-36.721-110.163h114.033
	c2.568,0,4.954-1.31,6.34-3.471c1.385-2.161,1.574-4.872,0.489-7.206l-4.608-10.022c-1.227-2.665-3.9-4.375-6.837-4.375H254.434
	c-60.311,0-91.851,59.565-91.851,91.497v131.607c0,6.912,5.624,12.536,12.536,12.536h131.697l14.682,44.07
	c1.717,5.128,6.505,8.568,11.896,8.568h114.04c5.165,0,9.72-3.087,11.648-7.868C496.301,335.224,489.035,294.784,428.002,254.81z
	 M418.778,278.806c30.238,20.706,43.189,39.688,36.088,79.217H324.879l-17.152-51.464L418.778,278.806z M237.47,175.081
	l37.903,113.732l-26.963,6.739l-60.755-45.568v-11.008C187.656,221.854,204.589,184.945,237.47,175.081z M187.656,358.038v-76.702
	l50.477,37.843c2.982,2.236,6.957,3.042,10.556,2.138l34.643-8.651l15.127,45.357L187.656,358.038L187.656,358.038z M438.92,410.684
	H342.43l-9.186-27.565h115.351C445.997,391.521,442.797,400.655,438.92,410.684z"/>
<circle style="fill:#FFFFFF;" cx="178.153" cy="367.254" r="35.095"/>
<path style="fill:#EF5350;" d="M193.016,46.042C86.423,46.042,0,132.465,0,239.058c0,20.465,2.598,41.367,7.823,61.372
	L253.094,55.16C233.69,49.28,213.421,46.042,193.016,46.042z"/>
<g>
</g>
<g>
</g>
<g>
</g>
<g>
</g>
<g>
</g>
<g>
</g>
<g>
</g>
<g>
</g>
<g>
</g>
<g>
</g>
<g>
</g>
<g>
</g>
<g>
</g>
<g>
</g>
<g>
</g>
</svg>
