<?xml version="1.0" encoding="iso-8859-1"?>
<!-- Generator: Adobe Illustrator 19.0.0, SVG Export Plug-In . SVG Version: 6.00 Build 0)  -->
<svg version="1.1" id="Layer_1" xmlns="http://www.w3.org/2000/svg" xmlns:xlink="http://www.w3.org/1999/xlink" x="0px" y="0px"
	 viewBox="0 0 481.799 481.799" style="enable-background:new 0 0 481.799 481.799;" xml:space="preserve">
<path style="fill:#2962FF;" d="M385.513,174.577c2.018,5.798-2.108,11.844-8.252,11.844h-96.512
	c-38.769,0-70.182,31.413-70.182,70.182c0,10.707-2.545,49.054,21.406,49.054c35.23,0,54.867,39.605,46.592,73.698
	c-6.754,27.708-31.586,52.638-81.596,52.638c-51.155,0-70.543-33.167-82.387-28.424c-11.844,4.736-29.832,2.718-44.393-7.093
	C21.933,363.745,0,299.339,0,239.058C0,132.465,86.423,46.042,193.016,46.042c59.836,0,118.724,27.287,157.237,70.106
	c9.638,10.79,18.063,22.543,24.824,35.087c3.162,5.707,5.88,11.497,8.252,17.551C384.12,170.714,384.806,172.649,385.513,174.577z"
	/>
<path style="fill:#FFFFFF;" d="M375.07,151.235h-94.321v-35.087h69.489C359.891,126.93,368.316,138.691,375.07,151.235z"/>
<path style="fill:#1A3B7E;" d="M428.002,254.81c-2.891-1.897-6.528-2.53-9.894-1.679l-118.325,29.576l-36.721-110.155h114.033
	c2.568,0,4.954-1.31,6.34-3.471c1.385-2.161,1.574-4.872,0.489-7.206l-4.608-10.022c-1.227-2.665-3.9-4.382-6.837-4.382H254.434
	c-60.311,0-91.851,59.573-91.851,91.497v131.607c0,6.92,5.624,12.544,12.536,12.544h131.697l14.682,44.07
	c1.717,5.12,6.505,8.568,11.896,8.568h114.04c5.165,0,9.72-3.087,11.648-7.861C496.301,335.224,489.035,294.784,428.002,254.81z
	 M418.778,278.806c30.238,20.706,43.189,39.688,36.088,79.224H324.879l-17.152-51.471L418.778,278.806z M237.47,175.089
	l37.903,113.724l-26.963,6.739l-60.755-45.56v-11.016C187.656,221.854,204.589,184.952,237.47,175.089z M187.656,358.053v-76.717
	l50.477,37.843c2.982,2.236,6.957,3.042,10.556,2.131l34.643-8.659l15.127,45.38H187.656V358.053z M438.92,410.676H342.43
	l-9.186-27.558h115.351C445.997,391.514,442.797,400.647,438.92,410.676z"/>
<circle style="fill:#FFFFFF;" cx="178.153" cy="367.247" r="35.095"/>
<path style="fill:#2979FF;" d="M193.016,46.042C86.423,46.042,0,132.465,0,239.058c0,20.457,2.598,41.367,7.823,61.372
	L253.094,55.16C233.69,49.28,213.421,46.042,193.016,46.042z"/>
<g>
</g>
<g>
</g>
<g>
</g>
<g>
</g>
<g>
</g>
<g>
</g>
<g>
</g>
<g>
</g>
<g>
</g>
<g>
</g>
<g>
</g>
<g>
</g>
<g>
</g>
<g>
</g>
<g>
</g>
</svg>
