<?xml version="1.0" encoding="iso-8859-1"?>
<!-- Generator: Adobe Illustrator 19.0.0, SVG Export Plug-In . SVG Version: 6.00 Build 0)  -->
<svg version="1.1" id="Layer_1" xmlns="http://www.w3.org/2000/svg" xmlns:xlink="http://www.w3.org/1999/xlink" x="0px" y="0px"
	 viewBox="0 0 479.371 479.371" style="enable-background:new 0 0 479.371 479.371;" xml:space="preserve">
<path style="fill:#733725;" d="M22.165,472.041c-7.356-1.355-13.485-7.477-14.848-14.84c-8.87-48-31.194-226.545,96.083-353.815
	C230.662-23.868,409.214-1.551,457.199,7.319c7.371,1.363,13.485,7.484,14.856,14.84c8.87,48,31.194,226.545-96.09,353.815
	C248.695,503.251,70.165,480.926,22.165,472.041z"/>
<path style="fill:#8F4D38;" d="M457.214,7.326c-48-8.87-226.545-31.194-353.807,96.075C-23.862,230.679-1.538,409.208,7.324,457.208
	c0.715,3.84,2.726,7.311,5.519,9.969l454.34-454.325C464.503,10.052,461.032,8.026,457.214,7.326z"/>
<path style="fill:#FFFFFF;" d="M346.11,135.725c-6.648-6.656-16.738-7.356-22.528-1.566l-15.601,15.616
	c-4.525-4.518-16.158-13.899-20.563-9.48l-5.534,5.534c-4.412,4.427,4.969,16.045,9.487,20.563l-31.556,31.556
	c-4.518-4.518-16.151-13.899-20.563-9.48l-5.534,5.542c-4.427,4.42,4.969,16.045,9.48,20.555l-31.563,31.548
	c-4.51-4.518-16.143-13.899-20.555-9.472l-5.542,5.534c-4.412,4.427,4.969,16.053,9.487,20.555l-31.556,31.563
	c-4.518-4.525-16.151-13.907-20.563-9.487l-5.542,5.534c-4.42,4.412,4.969,16.045,9.48,20.555l-11.904,11.912
	c-5.798,5.798-5.097,15.864,1.566,22.528c6.648,6.656,16.738,7.356,22.528,1.559l11.904-11.904
	c5.112,5.112,18.01,17.167,23.13,12.047l5.534-5.534c5.135-5.135-6.935-18.033-12.047-23.123l31.556-31.548
	c5.112,5.105,18.003,17.167,23.13,12.047l5.542-5.542c5.135-5.135-6.942-18.033-12.055-23.115l31.556-31.556
	c5.112,5.105,18.018,17.175,23.13,12.047l5.542-5.542c5.12-5.128-6.95-18.025-12.062-23.115l31.556-31.556
	c5.112,5.105,18.01,17.175,23.123,12.047l5.542-5.542c5.135-5.128-6.95-18.018-12.055-23.123l15.608-15.616
	C353.459,152.463,352.774,142.381,346.11,135.725z"/>
<path style="fill:#F0F0F0;" d="M477.461,149.956c-1.152,11.889-2.756,24.312-5.052,36.909L292.772,7.221
	c12.604-2.296,25.013-3.893,36.902-5.052L477.461,149.956z"/>
<path style="fill:#FFFFFF;" d="M329.674,2.168c-11.889,1.152-24.305,2.756-36.902,5.052l90.014,90.022l20.984-20.977L329.674,2.168z
	"/>
<path style="fill:#F0F0F0;" d="M186.788,472.41c-12.604,2.296-24.945,3.9-36.834,5.052L2.167,329.675
	c1.16-11.889,2.763-24.222,5.06-36.826L186.788,472.41z"/>
<path style="fill:#FFFFFF;" d="M97.196,382.825L7.227,292.856c-2.296,12.604-3.9,24.937-5.06,36.834l74.089,74.097L97.196,382.825z"
	/>
<g>
</g>
<g>
</g>
<g>
</g>
<g>
</g>
<g>
</g>
<g>
</g>
<g>
</g>
<g>
</g>
<g>
</g>
<g>
</g>
<g>
</g>
<g>
</g>
<g>
</g>
<g>
</g>
<g>
</g>
</svg>
