<?xml version="1.0" encoding="iso-8859-1"?>
<!-- Generator: Adobe Illustrator 19.0.0, SVG Export Plug-In . SVG Version: 6.00 Build 0)  -->
<svg version="1.1" id="Layer_1" xmlns="http://www.w3.org/2000/svg" xmlns:xlink="http://www.w3.org/1999/xlink" x="0px" y="0px"
	 viewBox="0 0 512 512" style="enable-background:new 0 0 512 512;" xml:space="preserve">
<circle style="fill:#FABC3D;" cx="256" cy="256" r="256"/>
<path style="fill:#84462D;" d="M120.753,400.421c-4.547-0.842-8.336-4.627-9.174-9.174c-5.483-29.673-19.284-140.041,59.392-218.717
	s189.044-64.875,218.717-59.392c4.547,0.842,8.336,4.627,9.174,9.174c5.483,29.673,19.284,140.041-59.392,218.717
	S150.426,405.904,120.753,400.421z"/>
<path style="fill:#9C6144;" d="M389.688,113.138c-29.673-5.483-140.041-19.284-218.717,59.392s-64.875,189.044-59.392,218.717
	c0.438,2.369,1.685,4.52,3.416,6.163l280.86-280.86C394.207,114.823,392.057,113.576,389.688,113.138z"/>
<path style="fill:#FFFFFF;" d="M321.01,192.512c-4.115-4.115-10.347-4.543-13.926-0.963l-9.654,9.654
	c-2.793-2.793-9.979-8.592-12.712-5.86l-3.426,3.426c-2.732,2.732,3.072,9.919,5.86,12.712l-19.512,19.507
	c-2.793-2.793-9.979-8.592-12.712-5.86l-3.426,3.426c-2.732,2.732,3.072,9.919,5.86,12.712l-19.512,19.507
	c-2.793-2.793-9.979-8.592-12.712-5.86l-3.426,3.426c-2.732,2.732,3.072,9.919,5.86,12.712l-19.512,19.507
	c-2.793-2.793-9.979-8.592-12.712-5.86l-3.426,3.426c-2.732,2.732,3.072,9.919,5.86,12.712l-7.363,7.363
	c-3.579,3.579-3.146,9.816,0.968,13.926c4.115,4.115,10.347,4.547,13.926,0.964l7.363-7.363c3.16,3.156,11.129,10.617,14.299,7.447
	l3.426-3.426c3.17-3.17-4.292-11.138-7.447-14.299l19.512-19.507c3.16,3.156,11.129,10.617,14.299,7.447l3.426-3.426
	c3.17-3.17-4.292-11.138-7.447-14.299l19.512-19.507c3.16,3.156,11.129,10.617,14.299,7.447l3.426-3.426
	c3.17-3.17-4.292-11.138-7.447-14.299l19.512-19.507c3.16,3.156,11.129,10.617,14.299,7.447l3.426-3.426
	c3.17-3.17-4.291-11.138-7.447-14.299l9.654-9.654C325.558,202.859,325.125,196.627,321.01,192.512z"/>
<path style="fill:#F0F1F1;" d="M402.209,201.309c-0.717,7.35-1.704,15.025-3.123,22.817L288.033,113.073
	c7.792-1.42,15.467-2.406,22.817-3.123L402.209,201.309z"/>
<path style="fill:#FFFFFF;" d="M310.849,109.95c-7.35,0.717-15.025,1.704-22.817,3.123l55.65,55.65l12.968-12.968L310.849,109.95z"
	/>
<path style="fill:#F0F1F1;" d="M222.515,400.645c-7.792,1.42-15.416,2.411-22.765,3.123l-91.359-91.359
	c0.717-7.35,1.704-14.974,3.123-22.765L222.515,400.645z"/>
<path style="fill:#FFFFFF;" d="M167.14,345.265l-55.622-55.622c-1.42,7.792-2.411,15.416-3.123,22.765l45.801,45.801L167.14,345.265
	z"/>
<g>
</g>
<g>
</g>
<g>
</g>
<g>
</g>
<g>
</g>
<g>
</g>
<g>
</g>
<g>
</g>
<g>
</g>
<g>
</g>
<g>
</g>
<g>
</g>
<g>
</g>
<g>
</g>
<g>
</g>
</svg>
